<?xml version="1.0" encoding="utf-8"?>
<!-- Generator: Adobe Illustrator 21.0.0, SVG Export Plug-In . SVG Version: 6.00 Build 0)  -->
<svg version="1.1" id="Layer_1" xmlns="http://www.w3.org/2000/svg" xmlns:xlink="http://www.w3.org/1999/xlink" x="0px" y="0px"
	 width="46.984px" height="47px" viewBox="0 0 46.984 47" enable-background="new 0 0 46.984 47" xml:space="preserve">
<g>
	<path fill="#6051E7" d="M31.189,28.33c-4.389,2.193-11.005,2.193-15.394,0c-0.58-0.29-1.286-0.055-1.576,0.525
		c-0.29,0.58-0.055,1.286,0.525,1.576l0,0c2.733,1.29,5.725,1.94,8.748,1.901c3.022,0.04,6.014-0.61,8.748-1.901
		c0.58-0.29,0.816-0.996,0.525-1.576C32.475,28.275,31.769,28.04,31.189,28.33L31.189,28.33z"/>
	<path fill="#6051E7" d="M43.46,18.809h-1.175v-3.524c-0.004-3.242-2.631-5.869-5.873-5.873h-3.524V6.847
		c1.835-0.649,2.796-2.662,2.148-4.497c-0.649-1.835-2.662-2.796-4.497-2.148s-2.796,2.662-2.148,4.497
		c0.355,1.004,1.144,1.793,2.148,2.148v2.566H16.444V6.847c1.835-0.649,2.796-2.662,2.148-4.497
		c-0.649-1.835-2.662-2.796-4.497-2.148s-2.796,2.662-2.148,4.497c0.355,1.004,1.144,1.793,2.148,2.148v2.566h-3.524
		c-3.242,0.004-5.869,2.631-5.873,5.873v3.524H3.524C1.579,18.812,0.002,20.388,0,22.333v4.698c0.002,1.945,1.579,3.522,3.524,3.524
		h1.175v3.524c0.004,3.242,2.631,5.869,5.873,5.873h5.873v5.873c0,0.648,0.525,1.174,1.173,1.175c0.255,0,0.502-0.082,0.706-0.235
		l9.084-6.813h9.006c3.242-0.004,5.869-2.631,5.873-5.873v-3.524h1.175c1.945-0.002,3.522-1.579,3.524-3.524v-4.698
		C46.982,20.388,45.405,18.812,43.46,18.809z M31.714,2.365c0.649,0,1.175,0.526,1.175,1.175s-0.526,1.175-1.175,1.175
		S30.54,4.188,30.54,3.54C30.54,2.891,31.066,2.365,31.714,2.365z M15.27,2.365c0.649,0,1.175,0.526,1.175,1.175
		s-0.526,1.175-1.175,1.175c-0.649,0-1.175-0.526-1.175-1.175C14.096,2.891,14.621,2.365,15.27,2.365z M3.524,28.206
		c-0.649,0-1.174-0.526-1.175-1.175v-4.698c0-0.649,0.526-1.174,1.175-1.175h1.175v7.048H3.524z M39.936,34.079
		c-0.002,1.945-1.579,3.522-3.524,3.524h-9.397c-0.254,0-0.501,0.082-0.704,0.235l-7.518,5.638v-4.698
		c0-0.648-0.525-1.174-1.173-1.175c0,0-0.001,0-0.001,0h-7.048c-1.945-0.002-3.522-1.579-3.524-3.524V15.286
		c0.002-1.945,1.579-3.522,3.524-3.524h25.841c1.945,0.002,3.522,1.579,3.524,3.524V34.079z M44.635,27.032
		c0,0.649-0.526,1.174-1.175,1.175h-1.175v-7.048h1.175c0.649,0,1.174,0.526,1.175,1.175V27.032z"/>
	<path fill="#6051E7" d="M15.27,21.159c0.648,0,1.174-0.525,1.175-1.173c0,0,0-0.001,0-0.001c0-0.81,2.349-0.81,2.349,0
		c0,0.649,0.526,1.175,1.175,1.175c0.649,0,1.175-0.526,1.175-1.175c0-1.701-1.482-2.936-3.524-2.936s-3.524,1.235-3.524,2.936
		c0,0.648,0.525,1.174,1.173,1.175C15.269,21.159,15.269,21.159,15.27,21.159z"/>
	<path fill="#6051E7" d="M29.365,17.047c-2.042,0-3.524,1.235-3.524,2.936c0,0.649,0.526,1.175,1.175,1.175
		c0.649,0,1.175-0.526,1.175-1.175c0-0.81,2.349-0.81,2.349,0c0,0.649,0.526,1.175,1.175,1.175s1.175-0.526,1.175-1.175
		C32.889,18.283,31.407,17.047,29.365,17.047z"/>
</g>
</svg>
