<?xml version="1.0" encoding="utf-8"?>
<!-- Generator: Adobe Illustrator 21.0.0, SVG Export Plug-In . SVG Version: 6.00 Build 0)  -->
<svg version="1.1" id="Layer_1" xmlns="http://www.w3.org/2000/svg" xmlns:xlink="http://www.w3.org/1999/xlink" x="0px" y="0px"
	 width="51.6px" height="43px" viewBox="0 0 51.6 43" enable-background="new 0 0 51.6 43" xml:space="preserve">
<g>
	<g transform="translate(-360.000000, -120.000000)">
		<g transform="translate(360.000000, 122.000000)">
			<path fill="#6051E7" d="M2.15-2h47.3c1.187,0,2.15,0.963,2.15,2.15v38.7c0,1.187-0.963,2.15-2.15,2.15H2.15
				C0.963,41,0,40.037,0,38.85V0.15C0-1.037,0.963-2,2.15-2z M2.15,0.15v38.7h47.3V0.15H2.15z"/>
			<path fill="#6051E7" d="M1.075,32.4h49.45c0.594,0,1.075-0.481,1.075-1.075c0-0.594-0.481-1.075-1.075-1.075H1.075
				C0.481,30.25,0,30.731,0,31.325C0,31.919,0.481,32.4,1.075,32.4z"/>
			<path fill="#6051E7" d="M39.775,36.7h6.45c0.594,0,1.075-0.481,1.075-1.075s-0.481-1.075-1.075-1.075h-6.45
				c-0.594,0-1.075,0.481-1.075,1.075S39.181,36.7,39.775,36.7z"/>
			<path fill="#6051E7" d="M16.292,10.166l3.502,6.612c0.397,0.749,1.464,0.766,1.884,0.029l2.14-3.757l2.498,3.814
				c0.199,0.303,0.537,0.486,0.899,0.486h4.873l2.198,8.196c0.275,1.025,1.711,1.074,2.055,0.07l2.837-8.267h7.046
				c0.594,0,1.075-0.481,1.075-1.075c0-0.594-0.481-1.075-1.075-1.075h-7.814c-0.459,0-0.868,0.292-1.017,0.726l-1.943,5.662
				l-1.5-5.592c-0.126-0.47-0.552-0.797-1.038-0.797h-5.117l-3.143-4.798c-0.44-0.672-1.436-0.641-1.833,0.057l-2.042,3.584
				l-3.639-6.871c-0.423-0.799-1.583-0.751-1.938,0.08L11.798,15.2H5.375c-0.594,0-1.075,0.481-1.075,1.075
				c0,0.594,0.481,1.075,1.075,1.075h7.132c0.43,0,0.819-0.256,0.988-0.652L16.292,10.166z"/>
			<circle fill="#6051E7" cx="5.375" cy="35.625" r="1.075"/>
			<circle fill="#6051E7" cx="9.675" cy="35.625" r="1.075"/>
			<circle fill="#6051E7" cx="13.975" cy="35.625" r="1.075"/>
		</g>
	</g>
</g>
</svg>
