<?xml version="1.0" encoding="utf-8"?>
<!-- Generator: Adobe Illustrator 21.0.0, SVG Export Plug-In . SVG Version: 6.00 Build 0)  -->
<svg version="1.1" id="Layer_1" xmlns="http://www.w3.org/2000/svg" xmlns:xlink="http://www.w3.org/1999/xlink" x="0px" y="0px"
	 width="57.04px" height="46px" viewBox="0 0 57.04 46" enable-background="new 0 0 57.04 46" xml:space="preserve">
<g>
	<path fill="#6051E7" d="M28.52,14.72c-4.565,0-8.28,3.715-8.28,8.28s3.715,8.28,8.28,8.28c4.565,0,8.28-3.715,8.28-8.28
		S33.085,14.72,28.52,14.72L28.52,14.72z M28.52,29.44c-3.551,0-6.44-2.889-6.44-6.44c0-3.551,2.889-6.44,6.44-6.44
		s6.44,2.889,6.44,6.44C34.96,26.551,32.071,29.44,28.52,29.44L28.52,29.44z M28.52,29.44"/>
	<path fill="#6051E7" d="M48.76,9.2h7.36c0.508,0,0.92-0.412,0.92-0.92V0.92c0-0.508-0.412-0.92-0.92-0.92h-7.36
		c-0.508,0-0.92,0.412-0.92,0.92v2.76h-2.76c-0.508,0-0.92,0.412-0.92,0.92v17.48h-0.92v-0.92c0-0.461-0.341-0.851-0.798-0.912
		l-2.36-0.314c-0.271-1.027-0.681-2.011-1.222-2.937l1.45-1.896c0.28-0.366,0.245-0.883-0.08-1.209l-2.602-2.602
		c-0.326-0.326-0.844-0.361-1.209-0.08l-1.896,1.45c-0.926-0.54-1.909-0.949-2.937-1.222l-0.314-2.36
		c-0.06-0.457-0.45-0.798-0.912-0.798h-3.68c-0.461,0-0.851,0.341-0.912,0.798l-0.314,2.36c-1.027,0.271-2.011,0.681-2.937,1.222
		l-1.896-1.45c-0.366-0.28-0.883-0.245-1.209,0.08l-2.602,2.602c-0.326,0.326-0.361,0.844-0.08,1.209l1.45,1.896
		c-0.54,0.926-0.949,1.909-1.222,2.937l-2.36,0.314c-0.457,0.06-0.798,0.45-0.798,0.912v0.92h-0.92V4.6
		c0-0.508-0.412-0.92-0.92-0.92H9.2V0.92C9.2,0.412,8.788,0,8.28,0H0.92C0.412,0,0,0.412,0,0.92v7.36C0,8.788,0.412,9.2,0.92,9.2
		h7.36c0.508,0,0.92-0.412,0.92-0.92V5.52h1.84v16.56H9.2v-2.76c0-0.508-0.412-0.92-0.92-0.92H0.92C0.412,18.4,0,18.812,0,19.32
		v7.36c0,0.508,0.412,0.92,0.92,0.92h7.36c0.508,0,0.92-0.412,0.92-0.92v-2.76h1.84v16.56H9.2v-2.76c0-0.508-0.412-0.92-0.92-0.92
		H0.92C0.412,36.8,0,37.212,0,37.72v7.36C0,45.588,0.412,46,0.92,46h7.36c0.508,0,0.92-0.412,0.92-0.92v-2.76h2.76
		c0.508,0,0.92-0.412,0.92-0.92V23.92h0.92v0.92c0,0.461,0.341,0.851,0.798,0.912l2.36,0.314c0.271,1.027,0.681,2.011,1.222,2.937
		l-1.45,1.896c-0.28,0.366-0.245,0.883,0.08,1.209l2.602,2.602c0.326,0.326,0.842,0.36,1.209,0.08l1.896-1.45
		c0.926,0.54,1.909,0.949,2.937,1.222l0.314,2.36c0.06,0.457,0.45,0.798,0.912,0.798h3.68c0.461,0,0.851-0.341,0.912-0.798
		l0.314-2.36c1.027-0.271,2.011-0.681,2.937-1.222l1.896,1.45c0.366,0.28,0.884,0.246,1.209-0.08l2.602-2.602
		c0.326-0.326,0.361-0.844,0.08-1.209l-1.45-1.896c0.54-0.926,0.949-1.909,1.222-2.937l2.36-0.314
		c0.457-0.06,0.798-0.45,0.798-0.912v-0.92h0.92V41.4c0,0.508,0.412,0.92,0.92,0.92h2.76v2.76c0,0.508,0.412,0.92,0.92,0.92h7.36
		c0.508,0,0.92-0.412,0.92-0.92v-7.36c0-0.508-0.412-0.92-0.92-0.92h-7.36c-0.508,0-0.92,0.412-0.92,0.92v2.76H46V23.92h1.84v2.76
		c0,0.508,0.412,0.92,0.92,0.92h7.36c0.508,0,0.92-0.412,0.92-0.92v-7.36c0-0.508-0.412-0.92-0.92-0.92h-7.36
		c-0.508,0-0.92,0.412-0.92,0.92v2.76H46V5.52h1.84v2.76C47.84,8.788,48.252,9.2,48.76,9.2L48.76,9.2z M49.68,1.84h5.52v5.52h-5.52
		V1.84z M7.36,7.36H1.84V1.84h5.52V7.36z M7.36,25.76H1.84v-5.52h5.52V25.76z M7.36,44.16H1.84v-5.52h5.52V44.16z M41.4,24.035
		l-2.19,0.292c-0.387,0.052-0.7,0.343-0.779,0.727c-0.256,1.244-0.746,2.422-1.455,3.499c-0.215,0.326-0.199,0.753,0.038,1.064
		l1.346,1.76l-1.463,1.463l-1.76-1.346c-0.311-0.237-0.738-0.253-1.064-0.038c-1.077,0.71-2.255,1.2-3.499,1.455
		c-0.383,0.079-0.675,0.392-0.727,0.779l-0.292,2.19h-2.069l-0.292-2.19c-0.051-0.387-0.343-0.7-0.727-0.779
		c-1.243-0.256-2.422-0.746-3.498-1.455c-0.326-0.215-0.753-0.199-1.064,0.038l-1.76,1.346l-1.463-1.463l1.346-1.76
		c0.237-0.311,0.253-0.738,0.038-1.064c-0.709-1.077-1.2-2.255-1.455-3.499c-0.079-0.383-0.392-0.675-0.779-0.727l-2.19-0.292
		v-2.069l2.19-0.292c0.387-0.051,0.7-0.343,0.779-0.727c0.256-1.243,0.746-2.422,1.455-3.498c0.215-0.327,0.199-0.753-0.038-1.064
		l-1.346-1.76l1.463-1.463l1.76,1.346c0.31,0.237,0.738,0.252,1.064,0.038c1.077-0.709,2.255-1.2,3.499-1.455
		c0.383-0.079,0.675-0.392,0.727-0.779l0.292-2.19h2.069l0.292,2.19c0.051,0.387,0.343,0.7,0.727,0.779
		c1.243,0.256,2.422,0.746,3.498,1.455c0.328,0.215,0.755,0.2,1.064-0.038l1.76-1.346l1.463,1.463l-1.346,1.76
		c-0.237,0.311-0.253,0.738-0.038,1.064c0.709,1.077,1.2,2.255,1.455,3.499c0.079,0.383,0.392,0.675,0.779,0.727l2.19,0.292V24.035z
		 M49.68,38.64h5.52v5.52h-5.52V38.64z M49.68,20.24h5.52v5.52h-5.52V20.24z M49.68,20.24"/>
</g>
</svg>
