<?xml version="1.0" encoding="utf-8"?>
<!-- Generator: Adobe Illustrator 21.0.0, SVG Export Plug-In . SVG Version: 6.00 Build 0)  -->
<svg version="1.1" id="Capa_1" xmlns="http://www.w3.org/2000/svg" xmlns:xlink="http://www.w3.org/1999/xlink" x="0px" y="0px"
	 width="52px" height="52px" viewBox="181 371 52 52" enable-background="new 181 371 52 52" xml:space="preserve">
<g>
	<path fill="#6051E7" d="M200.501,407.834v-5.605c1.261-0.447,2.167-1.647,2.167-3.061c0-1.795-1.455-3.25-3.25-3.25
		s-3.25,1.455-3.25,3.25c0,1.414,0.905,2.614,2.167,3.061v5.605c0.006,0.064,0.006,0.129,0,0.194
		c-0.053,0.545-0.538,0.943-1.083,0.89h-6.5c-0.086,0.005-0.173,0.005-0.26,0c-1.125-0.072-1.979-1.042-1.907-2.167v-4.039
		c0-0.31-0.133-0.606-0.365-0.811c-1.087-1.001-2.492-1.586-3.968-1.65c-0.005,0.001-0.01,0.001-0.014,0.002
		c-0.522,0.055-0.991-0.323-1.046-0.846l5.259-9.533c0.088-0.16,0.134-0.34,0.134-0.523v-2.099
		c0.009-7.774,6.309-14.074,14.083-14.083h4.32c0.066-0.007,0.132-0.007,0.198-0.001c0.547,0.052,0.949,0.537,0.898,1.085v4.522
		c-1.261,0.447-2.167,1.647-2.167,3.061c0,1.795,1.455,3.25,3.25,3.25s3.25-1.455,3.25-3.25c0-1.414-0.905-2.614-2.167-3.061v-4.522
		c0.002-0.062,0.002-0.123,0-0.185c-0.051-1.744-1.506-3.116-3.25-3.065h-4.333c-8.97,0.01-16.239,7.279-16.25,16.25v1.821
		l-5.282,9.572c-0.088,0.16-0.134,0.34-0.134,0.523c-0.002,0.062-0.002,0.123,0,0.185c0.051,1.744,1.506,3.116,3.25,3.065
		c0.788,0.044,1.544,0.327,2.167,0.811v3.522c-0.002,0.083-0.002,0.166,0,0.249c0.069,2.325,2.009,4.153,4.333,4.085h6.5
		c0.062,0.002,0.123,0.002,0.185,0C199.18,411.033,200.552,409.578,200.501,407.834z M209.167,380.751
		c0.598,0,1.083,0.485,1.083,1.083s-0.485,1.083-1.083,1.083c-0.598,0-1.083-0.485-1.083-1.083S208.569,380.751,209.167,380.751z
		 M198.334,399.167c0-0.598,0.485-1.083,1.083-1.083c0.598,0,1.083,0.485,1.083,1.083s-0.485,1.083-1.083,1.083
		C198.819,400.251,198.334,399.766,198.334,399.167z"/>
	<path fill="#6051E7" d="M225.417,403.501h-11.022c-0.447-1.261-1.647-2.167-3.061-2.167c-1.795,0-3.25,1.455-3.25,3.25
		c0,1.795,1.455,3.25,3.25,3.25c1.414,0,2.614-0.905,3.061-2.167h11.022c0.064-0.006,0.129-0.006,0.194,0
		c0.545,0.053,0.943,0.538,0.89,1.083v2.047c-0.156,0.647-1.2,4.452-4.333,4.452c-0.598,0-1.083,0.485-1.083,1.083v6.5h-20.583
		v-3.25h-2.167v4.333c0,0.598,0.485,1.083,1.083,1.083h22.749c0.598,0,1.083-0.485,1.083-1.083v-6.595
		c3.386-0.64,5.001-4.213,5.395-6.188c0.014-0.071,0.022-0.144,0.022-0.217v-2.167c0.002-0.062,0.002-0.123,0-0.185
		C228.616,404.822,227.161,403.45,225.417,403.501z M211.334,405.667c-0.598,0-1.083-0.485-1.083-1.083s0.485-1.083,1.083-1.083
		c0.598,0,1.083,0.485,1.083,1.083S211.932,405.667,211.334,405.667z"/>
	<path fill="#6051E7" d="M231.917,384.001h-2.731c-0.115-0.322-0.246-0.638-0.393-0.946l1.933-1.933
		c0.423-0.423,0.423-1.109,0-1.532l-3.065-3.065c-0.423-0.423-1.109-0.423-1.532,0l-1.933,1.933
		c-0.308-0.147-0.624-0.278-0.946-0.392v-2.732c0-0.598-0.485-1.083-1.083-1.083h-4.333c-0.598,0-1.083,0.485-1.083,1.083v2.732
		c-0.59,0.208-1.158,0.473-1.696,0.792l1.101,1.865c0.609-0.359,1.266-0.63,1.95-0.807c0.478-0.123,0.812-0.555,0.812-1.049v-2.45
		h2.167v2.45c-0.001,0.494,0.333,0.925,0.81,1.05c0.684,0.177,1.341,0.448,1.95,0.807c0.426,0.252,0.968,0.183,1.317-0.167
		l1.733-1.733l1.533,1.53l-1.733,1.733c-0.35,0.349-0.419,0.891-0.168,1.317c0.359,0.609,0.632,1.265,0.809,1.95
		c0.123,0.478,0.554,0.812,1.048,0.812h2.45v2.166h-2.448c-0.493,0.001-0.924,0.335-1.048,0.813c-0.178,0.685-0.45,1.341-0.809,1.95
		c-0.251,0.426-0.182,0.968,0.168,1.317l1.733,1.733l-1.532,1.532l-1.733-1.733c-0.35-0.35-0.892-0.418-1.317-0.167
		c-0.609,0.359-1.266,0.63-1.95,0.807c-0.478,0.123-0.812,0.555-0.812,1.049v2.45h-2.167v-2.449c0-0.494-0.334-0.925-0.812-1.049
		c-0.684-0.177-1.341-0.448-1.95-0.807c-0.426-0.252-0.968-0.183-1.317,0.167l-1.733,1.733l-1.532-1.532l1.733-1.733
		c0.35-0.349,0.419-0.891,0.168-1.317c-0.359-0.609-0.632-1.265-0.809-1.95c-0.123-0.478-0.554-0.812-1.048-0.812h-3.534v2.167
		h2.732c0.114,0.322,0.245,0.637,0.392,0.946l-1.933,1.933c-0.423,0.423-0.423,1.109,0,1.532l3.065,3.065
		c0.423,0.423,1.109,0.423,1.532,0l1.933-1.933c0.308,0.147,0.624,0.278,0.946,0.392v2.732c0,0.598,0.485,1.083,1.083,1.083h4.333
		c0.598,0,1.083-0.485,1.083-1.083v-2.731c0.322-0.115,0.637-0.245,0.946-0.392l1.933,1.932c0.423,0.423,1.109,0.423,1.532,0
		l3.065-3.065c0.423-0.423,0.423-1.109,0-1.532l-1.934-1.933c0.147-0.308,0.279-0.624,0.393-0.946h2.732
		c0.598,0,1.083-0.485,1.083-1.083v-4.333C233,384.486,232.515,384.001,231.917,384.001z"/>
	<path fill="#6051E7" d="M220,391.584c2.393,0,4.333-1.94,4.333-4.333c0-2.393-1.94-4.333-4.333-4.333s-4.333,1.94-4.333,4.333
		C215.667,389.644,217.607,391.584,220,391.584z M220,385.084c1.197,0,2.167,0.97,2.167,2.167s-0.97,2.167-2.167,2.167
		s-2.167-0.97-2.167-2.167S218.804,385.084,220,385.084z"/>
	<path fill="#6051E7" d="M191.834,388.334v1.083c-0.001,0.03-0.001,0.06,0,0.09c0.025,1.172,0.995,2.102,2.167,2.077h3.25
		c0.03,0.001,0.06,0.001,0.09,0c1.172-0.025,2.102-0.995,2.077-2.167v-1.083h-2.167v1.083h-3.25v-1.083H191.834z"/>
	<rect x="203.751" y="388.334" fill="#6051E7" width="2.167" height="2.167"/>
	<rect x="203.751" y="392.667" fill="#6051E7" width="2.167" height="2.167"/>
	<rect x="198.334" y="413.25" fill="#6051E7" width="2.167" height="2.167"/>
</g>
</svg>
