<?xml version="1.0" encoding="utf-8"?>
<!-- Generator: Adobe Illustrator 21.0.0, SVG Export Plug-In . SVG Version: 6.00 Build 0)  -->
<svg version="1.1" id="Layer_1" xmlns="http://www.w3.org/2000/svg" xmlns:xlink="http://www.w3.org/1999/xlink" x="0px" y="0px"
	 width="55px" height="56.029px" viewBox="0 0 55 56.029" enable-background="new 0 0 55 56.029" xml:space="preserve">
<g>
	<path fill="#FFFFFF" d="M11.299,38.393c-0.209,0.02-0.413-0.071-0.538-0.239l-3.707-4.783l-0.179-9.386
		c-0.033-1.915-1.611-3.44-3.526-3.408c0,0-0.001,0-0.001,0l0,0C1.489,20.611,0,22.127,0,23.986v12.435
		c0.005,1.03,0.413,2.017,1.136,2.75l9.745,10.103l-0.239,6.696l12.674-0.12l-0.598-14.707c-0.042-0.806-0.335-1.58-0.837-2.212
		l-6.277-8.429c-1.179-1.467-3.324-1.7-4.791-0.52c-1.265,1.017-1.637,2.786-0.888,4.227l1.853,3.288
		c0.139,0.299,0.009,0.655-0.29,0.794c-0.041,0.019-0.084,0.033-0.128,0.043L11.299,38.393z M13.81,36.361l-1.853-3.288
		c-0.201-0.524,0.061-1.112,0.585-1.313c0.378-0.145,0.805-0.052,1.089,0.237l6.397,8.37c0.2,0.237,0.325,0.528,0.359,0.837
		l0.478,12.196h-7.712l0.179-5.201L2.81,37.497c-0.272-0.292-0.422-0.677-0.418-1.076V23.986c0-0.561,0.455-1.016,1.016-1.016h0l0,0
		c0.572-0.001,1.044,0.445,1.076,1.016l0.179,10.163l4.185,5.44c1.036,1.286,2.917,1.488,4.203,0.453
		c1.12-0.902,1.439-2.474,0.759-3.741V36.361z"/>
	<path fill="#FFFFFF" d="M55,23.986c0-1.882-1.526-3.408-3.408-3.408l0,0c-1.892,0-3.435,1.516-3.467,3.408l-0.12,9.386
		l-3.707,4.783c-0.125,0.169-0.329,0.259-0.538,0.239c-0.323-0.068-0.53-0.385-0.461-0.709c0.009-0.044,0.024-0.087,0.043-0.128
		l1.853-3.288c0.868-1.67,0.217-3.727-1.453-4.595c-1.441-0.749-3.209-0.377-4.227,0.888l-6.337,8.37
		c-0.532,0.643-0.846,1.439-0.897,2.272L31.685,55.91l12.674,0.12l-0.239-6.696l9.745-10.163c0.723-0.733,1.131-1.72,1.136-2.75
		V23.986z M52.19,37.497L41.668,48.317l0.179,5.201h-7.712l0.478-12.196c0.025-0.329,0.15-0.641,0.359-0.897l6.337-8.489
		c0.314-0.479,0.956-0.613,1.435-0.299c0.479,0.314,0.613,0.956,0.299,1.435l-1.853,3.288c-0.78,1.455-0.234,3.267,1.221,4.047
		c1.267,0.68,2.839,0.361,3.741-0.759l4.185-5.44l0.179-10.163c0.032-0.593,0.539-1.049,1.133-1.016c0.001,0,0.002,0,0.003,0l0,0
		c0.516,0.03,0.927,0.441,0.957,0.957v12.435C52.613,36.82,52.463,37.205,52.19,37.497z"/>
	<path fill="#FFFFFF" d="M8.489,14.54v7.174H19.19v2.451h16.022v-2.391h10.701V14.6c0.016-2.131-0.902-4.162-2.511-5.56
		c1.189-2.872-0.176-6.165-3.049-7.353C37.481,0.498,34.189,1.863,33,4.736l0,0c-0.654-3.203-3.78-5.269-6.983-4.615
		c-2.324,0.474-4.141,2.291-4.615,4.615c-1.093-2.905-4.333-4.374-7.238-3.281S9.79,5.788,10.883,8.693
		C10.919,8.79,10.958,8.886,11,8.98C9.391,10.378,8.474,12.409,8.489,14.54z M21.402,9.339L21.043,8.98
		c0.205-0.379,0.365-0.78,0.478-1.196c0.104,0.371,0.244,0.732,0.418,1.076L21.402,9.339z M32.761,21.774H21.582v-6.995
		c-0.001-1.56,0.676-3.043,1.853-4.065c2.187,1.804,5.346,1.804,7.533,0c1.184,1.018,1.862,2.504,1.853,4.065L32.761,21.774z
		 M32.94,9.339l-0.538-0.478c0.174-0.344,0.314-0.705,0.418-1.076c0.113,0.416,0.274,0.817,0.478,1.196L32.94,9.339z M43.522,19.383
		h-8.31v-4.603c0.003-1.18-0.263-2.345-0.777-3.408l0.478-0.478c2.047,1.628,4.947,1.628,6.995,0
		c1.068,0.935,1.679,2.287,1.674,3.707L43.522,19.383z M38.38,3.241c1.783,0,3.228,1.445,3.228,3.228s-1.445,3.228-3.228,3.228
		c-1.783,0-3.228-1.445-3.228-3.228c-0.033-1.783,1.385-3.254,3.168-3.287c0.02,0,0.04-0.001,0.06-0.001L38.38,3.241z M27.201,2.524
		c1.981,0,3.587,1.606,3.587,3.587s-1.606,3.587-3.587,3.587s-3.587-1.606-3.587-3.587S25.22,2.524,27.201,2.524z M16.022,3.181
		c1.783,0,3.228,1.445,3.228,3.228s-1.445,3.228-3.228,3.228c-1.783,0-3.228-1.445-3.228-3.228v0
		C12.793,4.627,14.239,3.181,16.022,3.181z M10.88,14.54c-0.005-1.42,0.606-2.772,1.674-3.707c2.047,1.628,4.947,1.628,6.995,0
		l0.478,0.478c-0.535,1.057-0.821,2.223-0.837,3.408v4.603h-8.31L10.88,14.54z"/>
</g>
</svg>
