<?xml version="1.0" encoding="utf-8"?>
<!-- Generator: Adobe Illustrator 21.0.0, SVG Export Plug-In . SVG Version: 6.00 Build 0)  -->
<svg version="1.1" id="Layer_1" xmlns="http://www.w3.org/2000/svg" xmlns:xlink="http://www.w3.org/1999/xlink" x="0px" y="0px"
	 width="31.063px" height="50px" viewBox="0 0 31.063 50" enable-background="new 0 0 31.063 50" xml:space="preserve">
<g>
	<path fill="#FFFFFF" d="M27.361,0H3.702C1.662,0,0,1.662,0,3.702v42.597C0,48.338,1.662,50,3.702,50h23.659
		c2.05-0.01,3.702-1.672,3.702-3.712V35.132v-2.346V3.702C31.063,1.662,29.401,0,27.361,0z M29.044,46.298
		c0,0.928-0.754,1.683-1.683,1.683H3.702c-0.928,0-1.683-0.754-1.683-1.683V3.702c0-0.928,0.755-1.672,1.683-1.672h23.659
		c0.928,0,1.683,0.754,1.683,1.672v29.084v2.346V46.298z"/>
	<path fill="#FFFFFF" d="M15.532,6.363c-5.315,0-9.639,4.324-9.639,9.639s4.324,9.639,9.639,9.639s9.639-4.324,9.639-9.639
		S20.847,6.363,15.532,6.363L15.532,6.363z M16.627,8.636c1.237,0.183,2.376,0.671,3.338,1.386l-3.338,3.337V8.636z M14.436,8.636
		v6.272H8.164C8.642,11.676,11.204,9.114,14.436,8.636L14.436,8.636z M15.532,23.452c-3.735,0-6.836-2.764-7.367-6.353h7.367
		c0.302,0,0.576-0.122,0.774-0.321c0,0,0,0,0,0l5.207-5.207c0.921,1.24,1.467,2.774,1.467,4.433
		C22.98,20.11,19.639,23.452,15.532,23.452L15.532,23.452z M15.532,23.452"/>
	<path fill="#FFFFFF" d="M23.632,36.528H7.459c-0.605,0-1.095,0.49-1.095,1.095c0,0.605,0.49,1.095,1.095,1.095h16.173
		c0.605,0,1.095-0.49,1.095-1.095C24.727,37.018,24.237,36.528,23.632,36.528L23.632,36.528z M23.632,36.528"/>
	<path fill="#FFFFFF" d="M23.632,41.786H7.459c-0.605,0-1.095,0.49-1.095,1.095c0,0.605,0.49,1.095,1.095,1.095h16.173
		c0.605,0,1.095-0.49,1.095-1.095C24.727,42.276,24.237,41.786,23.632,41.786L23.632,41.786z M23.632,41.786"/>
	<path fill="#FFFFFF" d="M15.983,31.27H7.459c-0.605,0-1.095,0.49-1.095,1.095c0,0.605,0.49,1.095,1.095,1.095h8.524
		c0.605,0,1.095-0.49,1.095-1.095C17.079,31.76,16.588,31.27,15.983,31.27L15.983,31.27z M15.983,31.27"/>
</g>
</svg>
