<svg xmlns="http://www.w3.org/2000/svg" width="39.997" height="31" viewBox="0 0 39.997 31">
  <path id="Forma_1" data-name="Forma 1" d="M192.006,5708.758a1.416,1.416,0,0,1-1.738-.126l-.946-1.19a1.411,1.411,0,0,1,.455-1.79q2.558-2.124,3.718-3.285a18.152,18.152,0,0,0,3.379-4.79c.169-.365-.263-.6-.487-.669q-8.386-2.751-8.387-9.7a8.721,8.721,0,0,1,2.716-6.652,9.535,9.535,0,0,1,6.8-2.558,8.292,8.292,0,0,1,6.453,3.326,10.1,10.1,0,0,1,2.747,6.78Q206.722,5698.789,192.006,5708.758Zm21.277,0a1.416,1.416,0,0,1-1.738-.126l-.946-1.19a1.411,1.411,0,0,1,.455-1.79q2.557-2.124,3.718-3.285a18.158,18.158,0,0,0,3.379-4.79c.169-.365-.263-.6-.487-.669q-8.385-2.751-8.386-9.7a8.721,8.721,0,0,1,2.715-6.652,9.535,9.535,0,0,1,6.8-2.558,8.291,8.291,0,0,1,6.453,3.326A10.1,10.1,0,0,1,228,5688.1Q228,5698.789,213.283,5708.758Z" transform="translate(-188.001 -5677.999)" fill="#fff"/>
</svg>
