<?xml version="1.0" encoding="utf-8"?>
<!-- Generator: Adobe Illustrator 21.0.0, SVG Export Plug-In . SVG Version: 6.00 Build 0)  -->
<svg version="1.1" id="Layer_1" xmlns="http://www.w3.org/2000/svg" xmlns:xlink="http://www.w3.org/1999/xlink" x="0px" y="0px"
	 width="135px" height="37px" viewBox="0 0 135 37" style="enable-background:new 0 0 135 37;" xml:space="preserve">
<style type="text/css">
	.st0{fill:#FFFFFF;}
	.st1{fill:#221F1F;}
</style>
<path class="st0" d="M0,37V0h135v37H0"/>
<g>
	<g>
		<path class="st1" d="M26.7,11c4.1,0,7.5,3.4,7.5,7.5S30.8,26,26.7,26s-7.5-3.4-7.5-7.5S22.6,11,26.7,11L26.7,11z M26.7,9.5
			c-5,0-9,4-9,9s4,9,9,9s9-4,9-9S31.7,9.5,26.7,9.5L26.7,9.5z M26.7,9.5"/>
		<path class="st1" d="M24.3,17.2H26V14c0-0.4,0.3-0.8,0.8-0.8s0.8,0.3,0.8,0.8v3.2h1.7c0.5,0,0.8,0.6,0.4,1l-2.4,2.4
			c-0.1,0.1-0.3,0.2-0.4,0.2s-0.3-0.1-0.4-0.2l-2.4-2.4C23.5,17.8,23.8,17.2,24.3,17.2L24.3,17.2z M24.3,17.2"/>
		<path class="st1" d="M30.5,23.7H23c-0.4,0-0.8-0.3-0.8-0.8c0-0.4,0.3-0.8,0.8-0.8h7.5c0.4,0,0.8,0.3,0.8,0.8
			C31.2,23.4,30.9,23.7,30.5,23.7L30.5,23.7z M30.5,23.7"/>
	</g>
	<g>
		<path class="st1" d="M42.7,23.5v-10h3.1c0.9,0,1.7,0.2,2.3,0.6c0.7,0.4,1.2,1,1.6,1.7c0.4,0.7,0.6,1.6,0.6,2.5v0.5
			c0,0.9-0.2,1.7-0.6,2.5s-0.9,1.3-1.6,1.7s-1.5,0.6-2.3,0.6H42.7z M44.8,15.2v6.6h1c0.8,0,1.4-0.3,1.8-0.8s0.6-1.3,0.6-2.2v-0.5
			c0-1-0.2-1.8-0.6-2.3c-0.4-0.5-1-0.8-1.8-0.8H44.8z"/>
		<path class="st1" d="M60,18.7c0,1-0.2,1.8-0.5,2.6S58.6,22.6,58,23s-1.4,0.6-2.2,0.6c-0.8,0-1.6-0.2-2.2-0.6s-1.1-1-1.5-1.7
			c-0.4-0.7-0.5-1.6-0.5-2.5v-0.5c0-1,0.2-1.8,0.5-2.6c0.4-0.7,0.9-1.3,1.5-1.7c0.6-0.4,1.4-0.6,2.2-0.6s1.6,0.2,2.2,0.6
			c0.6,0.4,1.1,1,1.5,1.7c0.4,0.7,0.5,1.6,0.5,2.6V18.7z M57.9,18.3c0-1-0.2-1.8-0.6-2.4s-0.9-0.8-1.6-0.8c-0.7,0-1.2,0.3-1.6,0.8
			c-0.4,0.5-0.6,1.3-0.6,2.4v0.5c0,1,0.2,1.8,0.6,2.4s0.9,0.8,1.6,0.8c0.7,0,1.2-0.3,1.6-0.8c0.4-0.5,0.6-1.3,0.6-2.4V18.3z"/>
		<path class="st1" d="M69.2,20.6l1.3-7.1h2l-2.2,10h-2.1l-1.6-6.7l-1.6,6.7H63l-2.2-10h2l1.3,7.1l1.6-7.1h1.7L69.2,20.6z"/>
		<path class="st1" d="M81.8,23.5h-2.1l-4-6.5v6.5h-2.1v-10h2.1l4,6.6v-6.6h2V23.5z"/>
		<path class="st1" d="M85.7,21.8H90v1.6h-6.4v-10h2.1V21.8z"/>
		<path class="st1" d="M98.9,18.7c0,1-0.2,1.8-0.5,2.6s-0.8,1.3-1.5,1.7c-0.6,0.4-1.4,0.6-2.2,0.6c-0.8,0-1.6-0.2-2.2-0.6
			s-1.1-1-1.5-1.7c-0.4-0.7-0.5-1.6-0.5-2.5v-0.5c0-1,0.2-1.8,0.5-2.6c0.4-0.7,0.9-1.3,1.5-1.7c0.6-0.4,1.4-0.6,2.2-0.6
			s1.6,0.2,2.2,0.6c0.6,0.4,1.1,1,1.5,1.7c0.4,0.7,0.5,1.6,0.5,2.6V18.7z M96.8,18.3c0-1-0.2-1.8-0.6-2.4s-0.9-0.8-1.6-0.8
			c-0.7,0-1.2,0.3-1.6,0.8c-0.4,0.5-0.6,1.3-0.6,2.4v0.5c0,1,0.2,1.8,0.6,2.4s0.9,0.8,1.6,0.8c0.7,0,1.2-0.3,1.6-0.8
			c0.4-0.5,0.6-1.3,0.6-2.4V18.3z"/>
		<path class="st1" d="M105.9,21.4h-3.6l-0.7,2.1h-2.2l3.7-10h1.9l3.7,10h-2.2L105.9,21.4z M102.8,19.8h2.5l-1.3-3.7L102.8,19.8z"/>
		<path class="st1" d="M109.7,23.5v-10h3.1c0.9,0,1.7,0.2,2.3,0.6c0.7,0.4,1.2,1,1.6,1.7c0.4,0.7,0.6,1.6,0.6,2.5v0.5
			c0,0.9-0.2,1.7-0.6,2.5c-0.4,0.7-0.9,1.3-1.6,1.7s-1.5,0.6-2.3,0.6H109.7z M111.7,15.2v6.6h1c0.8,0,1.4-0.3,1.8-0.8
			s0.6-1.3,0.6-2.2v-0.5c0-1-0.2-1.8-0.6-2.3c-0.4-0.5-1-0.8-1.8-0.8H111.7z"/>
	</g>
</g>
</svg>
