<?xml version="1.0" encoding="utf-8"?>
<!-- Generator: Adobe Illustrator 21.0.0, SVG Export Plug-In . SVG Version: 6.00 Build 0)  -->
<svg version="1.1" id="Layer_1" xmlns="http://www.w3.org/2000/svg" xmlns:xlink="http://www.w3.org/1999/xlink" x="0px" y="0px"
	 width="34px" height="34px" viewBox="0 0 34 34" style="enable-background:new 0 0 34 34;" xml:space="preserve">
<style type="text/css">
	.st0{fill:url(#SVGID_1_);}
	.st1{fill:#FFFFFF;}
</style>
<linearGradient id="SVGID_1_" gradientUnits="userSpaceOnUse" x1="0" y1="17.08" x2="34" y2="17.08" gradientTransform="matrix(1 0 0 -1 0 34.08)">
	<stop  offset="0" style="stop-color:#6148DA"/>
	<stop  offset="1" style="stop-color:#6051E7"/>
</linearGradient>
<circle class="st0" cx="17" cy="17" r="17"/>
<path class="st1" d="M25.8,16.5l-4.6-4.7c-0.3-0.3-0.7-0.3-1,0c-0.3,0.3-0.3,0.8,0,1.1l3.4,3.5H8.7C8.3,16.3,8,16.6,8,17
	s0.3,0.7,0.7,0.7h14.8l-3.4,3.5c-0.3,0.3-0.3,0.8,0,1.1c0.1,0.1,0.3,0.2,0.5,0.2s0.4-0.1,0.5-0.2l4.6-4.7
	C26.1,17.2,26.1,16.8,25.8,16.5z"/>
</svg>
