<?xml version="1.0" encoding="utf-8"?>
<!-- Generator: Adobe Illustrator 21.0.0, SVG Export Plug-In . SVG Version: 6.00 Build 0)  -->
<svg version="1.1" id="Layer_1" xmlns="http://www.w3.org/2000/svg" xmlns:xlink="http://www.w3.org/1999/xlink" x="0px" y="0px"
	 width="168px" height="36px" viewBox="0 0 168 36" style="enable-background:new 0 0 168 36;" xml:space="preserve">
<style type="text/css">
	.st0{opacity:0.35;}
	.st1{fill:#FFFFFF;}
</style>
<g class="st0">
	<g>
		<path class="st1" d="M16.3,20.1c-1.4,0-2.7-0.5-3.7-1.5s-1.5-2.3-1.5-3.8c0-1.5,0.5-2.7,1.5-3.7c1-1.1,2.2-1.6,3.6-1.6l9.6-0.1
			l0,3.1l-9.6,0.1c-0.3,0-0.6,0.1-0.9,0.2c-0.3,0.1-0.5,0.3-0.7,0.5s-0.4,0.5-0.5,0.7c-0.1,0.3-0.2,0.6-0.2,0.9
			c0,0.6,0.2,1.2,0.6,1.6c0.4,0.5,1,0.7,1.6,0.7l4.4,0c1.4,0,2.7,0.5,3.7,1.5c1,1,1.5,2.3,1.6,3.8c0,1.5-0.5,2.7-1.5,3.8
			c-1,1-2.2,1.6-3.6,1.6l-9.6,0.1l0-3.1l9.6-0.1c0.3,0,0.6-0.1,0.9-0.2c0.3-0.1,0.5-0.3,0.7-0.5c0.2-0.2,0.4-0.4,0.5-0.7
			c0.1-0.3,0.2-0.6,0.2-0.9c0-0.6-0.2-1.1-0.7-1.6c-0.4-0.5-0.9-0.7-1.6-0.7L16.3,20.1z"/>
		<polygon class="st1" points="35.1,0 35,0 35.1,0 35.1,0 35,0 34.9,0 30.8,0 21.1,0 21.1,0 21.1,0 21.1,2.2 21.1,2.2 21.1,4.2 
			21.1,4.3 21.1,4.3 21.2,4.3 21.4,4.3 25.6,4.3 30.8,4.3 30.8,4.3 30.8,9.4 30.8,13.3 30.8,13.4 30.8,13.4 32.9,13.4 33.3,13.4 
			35,13.4 35,13.4 35.1,13.4 35.1,6.5 35.1,4.3 35.1,4.3 35.1,4.1 35.1,4 35.1,2.5 35.1,2.5 35.1,0 35.1,0 		"/>
		<polygon class="st1" points="30.8,15.8 30.8,31.7 4.2,31.7 4.2,4.3 15.6,4.3 15.6,4.3 18.8,4.3 18.8,0 18.6,0 18.6,0 0.1,0 0.1,0 
			0,0 0,31.7 0,33.8 0,36 35.1,36 35.1,36 35.1,31.7 35.1,15.8 		"/>
	</g>
	<g>
		<g>
			<path class="st1" d="M60.6,19.5c-1.2,0-2.2-0.4-3-1.3c-0.8-0.9-1.3-1.9-1.3-3.1c0-1.2,0.4-2.2,1.2-3.1c0.8-0.9,1.8-1.3,3-1.3l8,0
				l0,2.5l-8,0c-0.3,0-0.5,0-0.7,0.1c-0.2,0.1-0.4,0.2-0.6,0.4c-0.2,0.2-0.3,0.4-0.4,0.6c-0.1,0.2-0.1,0.5-0.1,0.7
				c0,0.5,0.2,1,0.5,1.3c0.4,0.4,0.8,0.6,1.3,0.6l3.7,0c1.2,0,2.2,0.4,3,1.3c0.9,0.9,1.3,1.9,1.3,3.1c0,1.2-0.4,2.2-1.3,3.1
				c-0.8,0.9-1.8,1.3-3,1.3l-7.9,0l0-2.5l7.9,0c0.3,0,0.5,0,0.7-0.1c0.2-0.1,0.4-0.2,0.6-0.4c0.2-0.2,0.3-0.4,0.4-0.6
				c0.1-0.2,0.1-0.5,0.1-0.7c0-0.5-0.2-1-0.6-1.3c-0.4-0.4-0.8-0.6-1.3-0.6L60.6,19.5z"/>
			<path class="st1" d="M72.8,10.6l12.3-0.1l0,2.5l-4.9,0l0.1,12.6l-2.5,0l-0.1-12.6l-4.9,0L72.8,10.6z"/>
			<path class="st1" d="M98.8,25.6l-2.9-5l-4.2,0l0,5l-2.4,0l-0.1-15.1l7.4,0c1.3,0,2.5,0.5,3.5,1.5c1,1,1.5,2.2,1.5,3.5
				c0,1-0.3,2-0.9,2.9c-0.6,0.8-1.3,1.5-2.2,1.8l3.1,5.4L98.8,25.6z M96.7,13l-4.9,0l0,5l4.9,0c0.7,0,1.2-0.3,1.7-0.7
				c0.5-0.5,0.7-1.1,0.7-1.8c0-0.7-0.2-1.3-0.7-1.8C97.9,13.3,97.3,13,96.7,13z"/>
			<path class="st1" d="M116.6,23l-6.8,0l-1.2,2.5l-2.7,0l7.3-15.2l7.4,15.1l-2.7,0L116.6,23z M111,20.5l4.3,0l-2.2-4.4L111,20.5z"
				/>
			<path class="st1" d="M135,19.1c0,1.7-0.6,3.2-1.8,4.5c-1.2,1.2-2.7,1.8-4.3,1.9c-1.7,0-3.1-0.6-4.3-1.8c-1.2-1.2-1.8-2.7-1.8-4.5
				l0-8.8l2.4,0l0,8.8c0,1,0.4,1.9,1.1,2.7c0.7,0.7,1.6,1.1,2.6,1.1c1,0,1.9-0.4,2.6-1.1c0.7-0.7,1.1-1.6,1.1-2.7l0-8.8l2.5,0
				L135,19.1z"/>
			<path class="st1" d="M143.5,19.1c-1.2,0-2.2-0.4-3-1.3c-0.8-0.9-1.3-1.9-1.3-3.1c0-1.2,0.4-2.2,1.2-3.1c0.8-0.9,1.8-1.3,3-1.3
				l8,0l0,2.5l-8,0c-0.3,0-0.5,0-0.7,0.1c-0.2,0.1-0.4,0.2-0.6,0.4c-0.2,0.2-0.3,0.4-0.4,0.6c-0.1,0.2-0.1,0.5-0.1,0.7
				c0,0.5,0.2,1,0.5,1.3c0.4,0.4,0.8,0.6,1.3,0.6l3.7,0c1.2,0,2.2,0.4,3,1.3c0.9,0.9,1.3,1.9,1.3,3.1c0,1.2-0.4,2.2-1.3,3.1
				c-0.8,0.9-1.8,1.3-3,1.3l-7.9,0l0-2.5l7.9,0c0.3,0,0.5,0,0.7-0.1c0.2-0.1,0.4-0.2,0.6-0.4c0.2-0.2,0.3-0.4,0.4-0.6
				c0.1-0.2,0.1-0.5,0.1-0.7c0-0.5-0.2-0.9-0.6-1.3c-0.4-0.4-0.8-0.6-1.3-0.6L143.5,19.1z"/>
			<path class="st1" d="M160,19c-1.2,0-2.2-0.4-3-1.3c-0.8-0.9-1.3-1.9-1.3-3.1c0-1.2,0.4-2.2,1.2-3.1c0.8-0.9,1.8-1.3,3-1.3l8,0
				l0,2.5l-8,0c-0.3,0-0.5,0-0.7,0.1c-0.2,0.1-0.4,0.2-0.6,0.4c-0.2,0.2-0.3,0.4-0.4,0.6c-0.1,0.2-0.1,0.5-0.1,0.7
				c0,0.5,0.2,1,0.5,1.3c0.4,0.4,0.8,0.6,1.3,0.6l3.7,0c1.2,0,2.2,0.4,3,1.3c0.9,0.9,1.3,1.9,1.3,3.1c0,1.2-0.4,2.2-1.3,3.1
				c-0.8,0.9-1.8,1.3-3,1.3l-7.9,0l0-2.5l7.9,0c0.3,0,0.5,0,0.7-0.1c0.2-0.1,0.4-0.2,0.6-0.4c0.2-0.2,0.3-0.4,0.4-0.6
				c0.1-0.2,0.1-0.5,0.1-0.7c0-0.5-0.2-1-0.6-1.3c-0.4-0.4-0.8-0.6-1.3-0.6L160,19z"/>
		</g>
	</g>
</g>
</svg>
