<?xml version="1.0" encoding="utf-8"?>
<!-- Generator: Adobe Illustrator 21.0.0, SVG Export Plug-In . SVG Version: 6.00 Build 0)  -->
<svg version="1.1" id="Layer_1" xmlns="http://www.w3.org/2000/svg" xmlns:xlink="http://www.w3.org/1999/xlink" x="0px" y="0px"
	 width="18px" height="11.2px" viewBox="0 0 18 11.2" style="enable-background:new 0 0 18 11.2;" xml:space="preserve">
<style type="text/css">
	.st0{fill:#FFFFFF;}
</style>
<path class="st0" d="M17.8,5.1l-4.6-4.7c-0.3-0.3-0.7-0.3-1,0c-0.3,0.3-0.3,0.8,0,1.1L15.6,5H0.7C0.3,4.9,0,5.2,0,5.6
	s0.3,0.7,0.7,0.7h14.8l-3.4,3.5c-0.3,0.3-0.3,0.8,0,1.1c0.1,0.1,0.3,0.2,0.5,0.2s0.4-0.1,0.5-0.2l4.6-4.7
	C18.1,5.8,18.1,5.4,17.8,5.1z"/>
</svg>
