<?xml version="1.0" encoding="utf-8"?>
<!-- Generator: Adobe Illustrator 21.0.0, SVG Export Plug-In . SVG Version: 6.00 Build 0)  -->
<svg version="1.1" id="Layer_1" xmlns="http://www.w3.org/2000/svg" xmlns:xlink="http://www.w3.org/1999/xlink" x="0px" y="0px"
	 width="69px" height="69px" viewBox="0 0 69 69" enable-background="new 0 0 69 69" xml:space="preserve">
<g>
	<circle fill="#221F1F" cx="10.016" cy="38.952" r="1.113"/>
	<circle fill="#221F1F" cx="43.403" cy="58.984" r="1.113"/>
	<circle fill="#221F1F" cx="50.08" cy="58.984" r="1.113"/>
	<circle fill="#221F1F" cx="56.758" cy="58.984" r="1.113"/>
	<path fill="#6051E7" d="M63.435,40.065h-26.71c-0.614,0-1.113,0.497-1.113,1.113v13.355c0,0.615,0.499,1.113,1.113,1.113h26.71
		c0.614,0,1.113-0.497,1.113-1.113V41.177C64.548,40.562,64.049,40.065,63.435,40.065z M37.838,53.419v-5.565h2.651l1.919,3.836
		c0.189,0.38,0.575,0.615,0.995,0.615c0.027,0,0.052-0.001,0.079-0.003c0.448-0.031,0.835-0.331,0.977-0.758l1.507-4.52l0.964,1.446
		c0.206,0.31,0.553,0.496,0.925,0.496h8.903c0.614,0,1.113-0.497,1.113-1.113s-0.499-1.113-1.113-1.113H48.45l-1.895-2.843
		c-0.236-0.353-0.654-0.543-1.074-0.486c-0.421,0.057-0.773,0.347-0.908,0.751l-1.376,4.129l-1.024-2.049
		c-0.189-0.376-0.574-0.614-0.996-0.614h-3.339V42.29h24.484v4.452h-1.113c-0.614,0-1.113,0.497-1.113,1.113
		s0.499,1.113,1.113,1.113h1.113v4.452H37.838z"/>
	<path fill="#221F1F" d="M65.661,35.613H34.703l-0.24-0.842c-0.805-2.817-3.089-4.923-5.962-5.498l-6.243-1.25v-0.2
		c0-0.029-0.014-0.053-0.017-0.081c2.068-1.194,3.608-3.193,4.197-5.568c2.053-0.396,3.61-2.2,3.61-4.367v-7.653
		c0-3.069-1.987-5.75-4.881-6.664C23.546,1.297,20.989,0,18.246,0C11.252,0,5.564,5.688,5.564,12.682v5.125
		c0,2.167,1.557,3.971,3.61,4.367c0.59,2.375,2.129,4.374,4.197,5.568c-0.002,0.028-0.017,0.052-0.017,0.081v0.2l-6.241,1.249
		c-2.874,0.574-5.158,2.681-5.963,5.498l-1.107,3.876c-0.096,0.336-0.029,0.697,0.181,0.976c0.21,0.279,0.539,0.443,0.888,0.443
		h4.61c0.405,1.557,1.624,2.776,3.181,3.181v18.521c0,3.989,3.245,7.234,7.234,7.234s7.234-3.245,7.234-7.234v-6.677
		c0-2.761,2.247-5.008,5.008-5.008h2.782v13.355c0,0.615,0.499,1.113,1.113,1.113h2.47l0.903,3.608
		C35.77,68.653,36.215,69,36.725,69h6.677c0.511,0,0.956-0.347,1.08-0.844l0.903-3.608h9.391l0.903,3.608
		C55.802,68.653,56.247,69,56.758,69h6.677c0.511,0,0.956-0.347,1.08-0.844l0.903-3.608h2.47c0.614,0,1.113-0.497,1.113-1.113
		V38.952C69,37.111,67.502,35.613,65.661,35.613z M26.709,19.723V15.89c0.662,0.386,1.113,1.096,1.113,1.916
		S27.372,19.337,26.709,19.723z M18.246,2.226c2.139,0,4.126,1.063,5.312,2.843c0.154,0.23,0.387,0.395,0.656,0.463
		c2.126,0.531,3.609,2.431,3.609,4.621v3.821c-0.658-0.383-1.411-0.619-2.226-0.619c-2.631,0-5.24-0.869-7.345-2.448l-0.89-0.668
		c-0.443-0.333-1.064-0.287-1.455,0.104l-0.978,0.978c-1.312,1.312-3.057,2.034-4.912,2.034c-0.815,0-1.568,0.236-2.226,0.619V12.68
		C7.79,6.916,12.48,2.226,18.246,2.226z M7.79,17.806c0-0.82,0.451-1.53,1.113-1.916v3.833C8.241,19.337,7.79,18.627,7.79,17.806z
		 M11.129,20.032v-4.518c2.029-0.244,3.906-1.153,5.373-2.62l0.296-0.296l0.118,0.089c2.191,1.644,4.843,2.636,7.568,2.85v4.495
		c0,3.683-2.995,6.677-6.677,6.677S11.129,23.715,11.129,20.032z M3.291,35.381c0.575-2.012,2.207-3.518,4.259-3.927l7.137-1.428
		c0.52-0.104,0.894-0.56,0.894-1.091v-0.293c0.713,0.185,1.456,0.293,2.226,0.293s1.512-0.108,2.226-0.293v0.293
		c0,0.531,0.374,0.987,0.895,1.091l7.137,1.428c2.052,0.411,3.684,1.915,4.259,3.927l0.245,0.857
		c-0.551,0.394-0.969,0.95-1.201,1.599H14.467c-0.052,0-0.098,0.023-0.148,0.03c-0.487-1.93-2.224-3.368-4.304-3.368
		c-2.068,0-3.796,1.423-4.294,3.339H2.588L3.291,35.381z M7.79,38.952c0-1.228,0.998-2.226,2.226-2.226s2.226,0.998,2.226,2.226
		c0,1.228-0.998,2.226-2.226,2.226S7.79,40.179,7.79,38.952z M28.379,47.855c-3.989,0-7.234,3.245-7.234,7.234v6.677
		c0,2.761-2.247,5.008-5.008,5.008s-5.008-2.247-5.008-5.008V43.245c1.567-0.407,2.794-1.639,3.191-3.211
		c0.05,0.007,0.096,0.03,0.148,0.03h16.694v7.79H28.379z M42.534,66.774h-4.939l-0.556-2.226h6.052L42.534,66.774z M62.566,66.774
		h-4.939l-0.556-2.226h6.052L62.566,66.774z M66.774,62.323H33.387V38.952c0-0.614,0.5-1.113,1.113-1.113h31.161
		c0.613,0,1.113,0.499,1.113,1.113V62.323z"/>
</g>
</svg>
