<?xml version="1.0" encoding="utf-8"?>
<!-- Generator: Adobe Illustrator 21.0.0, SVG Export Plug-In . SVG Version: 6.00 Build 0)  -->
<svg version="1.1" id="Layer_1" xmlns="http://www.w3.org/2000/svg" xmlns:xlink="http://www.w3.org/1999/xlink" x="0px" y="0px"
	 width="65px" height="65px" viewBox="0 0 65 65" enable-background="new 0 0 65 65" xml:space="preserve">
<g>
	<path fill="#6051E7" d="M29.355,29.355v-1.048c0-3.95-2.443-7.337-5.895-8.74c1.039-0.958,1.702-2.319,1.702-3.84
		c0-2.89-2.352-5.242-5.242-5.242s-5.242,2.352-5.242,5.242c0,1.521,0.663,2.882,1.702,3.84c-3.452,1.404-5.895,4.79-5.895,8.74
		v1.048H29.355z M16.774,15.726c0-1.734,1.411-3.145,3.145-3.145s3.145,1.411,3.145,3.145c0,1.734-1.411,3.145-3.145,3.145
		S16.774,17.46,16.774,15.726z M19.919,20.968c3.691,0,6.754,2.738,7.264,6.29H12.655C13.166,23.706,16.228,20.968,19.919,20.968z"
		/>
	<rect x="15.726" y="35.645" fill="#221F1F" width="8.387" height="2.097"/>
	<path fill="#221F1F" d="M56.538,0c-2.259,0-4.385,0.881-5.983,2.478l-0.233,0.233L50.09,2.478C48.492,0.881,46.367,0,44.107,0
		c-4.665,0-8.462,3.796-8.462,8.462v0.68c0,2.493,1.092,4.848,2.996,6.459l11.681,9.885l11.681-9.884
		C63.908,13.991,65,11.636,65,9.143V8.462C65,3.796,61.204,0,56.538,0z M44.107,2.097c1.699,0,3.298,0.663,4.501,1.864l1.715,1.715
		l1.715-1.715c1.201-1.201,2.801-1.864,4.501-1.864c3.485,0,6.321,2.815,6.362,6.29h-8.09l-1.536,4.607L50.502,7.45l-3.227,4.303
		l-2.649-4.414h-6.779C38.38,4.363,40.981,2.097,44.107,2.097z M60.65,14l-10.328,8.739L39.995,14
		c-1.357-1.149-2.157-2.799-2.237-4.565h5.68l3.642,6.07l3.063-4.085l3.518,7.037l2.659-7.974h6.439
		C62.466,11.845,61.734,13.083,60.65,14z"/>
	<path fill="#221F1F" d="M50.323,27.258c-4.624,0-8.387,3.763-8.387,8.387c0,3.462,2.086,6.474,5.242,7.749v4.832h2.097V58.71
		c0,2.313-1.881,4.194-4.194,4.194s-4.194-1.881-4.194-4.194v-2.097c0-3.469-2.821-6.29-6.29-6.29s-6.29,2.821-6.29,6.29v2.621
		c0,2.023-1.646,3.669-3.669,3.669s-3.669-1.646-3.669-3.669v-7.916c10.495-0.55,18.871-9.236,18.871-19.866v-7.339v-3.145v-3.145
		h-6.29V5.242c0-2.89-2.352-5.242-5.242-5.242H11.532C8.642,0,6.29,2.352,6.29,5.242v12.581H0v3.145v3.145v7.339
		c0,10.63,8.376,19.315,18.871,19.866v7.916c0,3.179,2.587,5.766,5.766,5.766s5.766-2.587,5.766-5.766v-2.621
		c0-2.313,1.881-4.194,4.194-4.194c2.313,0,4.194,1.881,4.194,4.194v2.097c0,3.469,2.821,6.29,6.29,6.29
		c3.469,0,6.29-2.821,6.29-6.29V48.226h2.097v-4.834c3.116-1.271,5.242-4.334,5.242-7.747C58.71,31.021,54.947,27.258,50.323,27.258
		z M37.742,19.919v1.048v1.048h-4.194v-2.097H37.742z M8.387,33.548h23.065v3.145c0,1.734-1.411,3.145-3.145,3.145H11.532
		c-1.734,0-3.145-1.411-3.145-3.145V33.548z M31.452,31.452H8.387V8.387h23.065V31.452z M11.532,2.097h16.774
		c1.734,0,3.145,1.411,3.145,3.145V6.29H8.387V5.242C8.387,3.508,9.798,2.097,11.532,2.097z M2.097,19.919H6.29v2.097H2.097v-1.048
		V19.919z M2.097,31.452v-7.339H6.29v12.581c0,2.89,2.352,5.242,5.242,5.242h16.774c2.89,0,5.242-2.352,5.242-5.242V24.113h4.194
		v7.339c0,9.828-7.995,17.823-17.823,17.823S2.097,41.279,2.097,31.452z M51.371,46.129h-2.097v-5.242
		c0-0.579,0.47-1.048,1.048-1.048c0.579,0,1.048,0.47,1.048,1.048V46.129z M53.468,41.069v-0.182c0-1.734-1.411-3.145-3.145-3.145
		c-1.734,0-3.145,1.411-3.145,3.145v0.189c-1.917-1.104-3.145-3.135-3.145-5.431c0-3.469,2.821-6.29,6.29-6.29
		c3.469,0,6.29,2.821,6.29,6.29C56.613,37.905,55.365,39.959,53.468,41.069z"/>
</g>
</svg>
