<?xml version="1.0" encoding="utf-8"?>
<!-- Generator: Adobe Illustrator 21.0.0, SVG Export Plug-In . SVG Version: 6.00 Build 0)  -->
<svg version="1.1" id="Layer_1" xmlns="http://www.w3.org/2000/svg" xmlns:xlink="http://www.w3.org/1999/xlink" x="0px" y="0px"
	 width="66px" height="55.132px" viewBox="0 0 66 55.132" enable-background="new 0 0 66 55.132" xml:space="preserve">
<g>
	<path fill="#221F1F" d="M61.073,0H4.926C2.213,0.003,0.003,2.213,0,4.927v38.035c0.003,2.713,2.213,4.923,4.927,4.926H24.99
		l-1.159,4.638H18.51c-0.719,0-1.303,0.585-1.303,1.304c0,0.719,0.585,1.303,1.303,1.303h28.98c0.719,0,1.303-0.584,1.303-1.303
		c0-0.719-0.584-1.304-1.303-1.304h-5.322l-1.159-4.638h20.065c2.713-0.003,4.922-2.213,4.926-4.927V4.926
		C65.996,2.213,63.786,0.003,61.073,0z M26.519,52.525l1.16-4.638h10.642l1.16,4.638H26.519z M63.393,42.961
		c0,1.279-1.04,2.319-2.319,2.319H4.926c-1.279,0-2.319-1.04-2.319-2.319V4.926c0-1.279,1.041-2.319,2.319-2.319h56.148
		c1.279,0,2.319,1.041,2.319,2.319V42.961z"/>
	<path fill="#6051E7" d="M34.893,33.848l5.042-5.882h10.724c0.719,0,1.304-0.585,1.304-1.303s-0.585-1.304-1.304-1.304v-0.001
		h-11.32c-0.381,0-0.742,0.166-0.99,0.456l-3.721,4.342l-3.523-16.446c-0.073-0.34-0.274-0.632-0.566-0.822
		c-0.293-0.189-0.641-0.252-0.982-0.18c-0.455,0.098-0.826,0.433-0.968,0.877l-3.785,11.774H15.34c-0.719,0-1.303,0.585-1.303,1.303
		c0,0.719,0.585,1.303,1.303,1.303h10.415c0.566-0.001,1.064-0.364,1.238-0.905l2.582-8.033l3.052,14.248
		c0.15,0.702,0.845,1.154,1.547,1.002C34.452,34.217,34.707,34.065,34.893,33.848z"/>
	<path fill="#6051E7" d="M42.214,30.793c-0.348,0.016-0.669,0.166-0.904,0.423l-6.193,6.791c-0.562,0.575-1.298,0.889-2.085,0.897
		c-0.01,0.001-0.021,0.001-0.032,0.001c-0.775,0-1.505-0.298-2.059-0.841l-6.248-6.849c-0.235-0.258-0.556-0.408-0.904-0.423
		c-0.02-0.001-0.041-0.002-0.06-0.002c-0.326,0-0.636,0.121-0.879,0.342c-0.531,0.485-0.568,1.313-0.083,1.844l6.192,6.791
		c0.984,1.08,2.33,1.711,3.789,1.78c1.459,0.063,2.857-0.437,3.937-1.421c0.126-0.114,0.245-0.233,0.358-0.358l6.194-6.792
		c0.485-0.531,0.448-1.359-0.082-1.844C42.896,30.898,42.58,30.778,42.214,30.793z"/>
	<path fill="#6051E7" d="M49.612,22.496c0.677,0.163,1.403-0.281,1.566-0.969c0.762-3.208,0.229-6.519-1.499-9.325
		c-1.729-2.806-4.447-4.771-7.654-5.533c-0.581-0.138-1.181-0.235-1.782-0.288c-2.438-0.208-4.86,0.319-6.993,1.523l-0.248,0.14
		l-0.248-0.138c-2.903-1.615-6.396-1.997-9.579-1.044c-4.047,1.222-7.128,4.387-8.24,8.468c-0.547,2.016-0.586,4.159-0.113,6.194
		c0.082,0.331,0.293,0.616,0.59,0.796c0.298,0.18,0.649,0.233,0.986,0.15c0.683-0.169,1.114-0.865,0.959-1.551
		c-0.372-1.613-0.34-3.313,0.096-4.913c0.692-2.487,2.309-4.554,4.555-5.822c2.246-1.267,4.851-1.584,7.335-0.894
		c0.854,0.238,1.672,0.592,2.429,1.053c0.759,0.464,1.698,0.464,2.456,0.001c1.518-0.925,3.227-1.404,4.985-1.404
		c0.274,0,0.548,0.012,0.823,0.035c4.618,0.43,8.324,4.086,8.819,8.693c0.109,1.089,0.038,2.18-0.212,3.248
		c-0.083,0.343-0.029,0.692,0.153,0.99c0.181,0.297,0.467,0.506,0.806,0.588L49.612,22.496z"/>
</g>
</svg>
