<?xml version="1.0" encoding="utf-8"?>
<!-- Generator: Adobe Illustrator 21.0.0, SVG Export Plug-In . SVG Version: 6.00 Build 0)  -->
<svg version="1.1" id="Layer_1" xmlns="http://www.w3.org/2000/svg" xmlns:xlink="http://www.w3.org/1999/xlink" x="0px" y="0px"
	 width="74px" height="67.635px" viewBox="0 0 74 67.635" enable-background="new 0 0 74 67.635" xml:space="preserve">
<g>
	<g>
		<path fill="#211F1F" d="M30.679,0H5.316C2.397,0,0.032,2.365,0.032,5.284v57.067c0,2.918,2.366,5.284,5.284,5.284h25.363
			c2.918,0,5.284-2.366,5.284-5.284V5.284C35.963,2.365,33.597,0,30.679,0z M5.316,2.113h25.363c1.751,0,3.17,1.419,3.17,3.17v3.17
			H2.145v-3.17C2.145,3.533,3.565,2.113,5.316,2.113z M2.145,10.568h31.704v46.499H2.145V10.568z M30.679,65.521H5.316
			c-1.751,0-3.17-1.419-3.17-3.17v-3.17h31.704v3.17C33.849,64.102,32.43,65.521,30.679,65.521z"/>
		<path fill="#211F1F" d="M14.563,6.34h6.869c0.584,0,1.057-0.473,1.057-1.057c0-0.584-0.473-1.057-1.057-1.057h-6.869
			c-0.584,0-1.057,0.473-1.057,1.057C13.506,5.867,13.979,6.34,14.563,6.34z"/>
		<circle fill="#211F1F" cx="17.997" cy="62.351" r="1.057"/>
		<path fill="#5F51E7" d="M19.672,17.342h-0.618v-0.618c0-0.584-0.473-1.057-1.057-1.057c-0.584,0-1.057,0.473-1.057,1.057v0.618
			h-0.618c-0.584,0-1.057,0.473-1.057,1.057c0,0.584,0.473,1.057,1.057,1.057h0.618v0.624c0,0.584,0.473,1.057,1.057,1.057
			c0.584,0,1.057-0.473,1.057-1.057v-0.624h0.618c0.584,0,1.057-0.473,1.057-1.057C20.729,17.815,20.256,17.342,19.672,17.342z"/>
		<path fill="#211F1F" d="M22.927,37.516c2.742-1.701,4.411-4.699,4.412-7.926V17.553c-0.003-2.661-2.158-4.818-4.819-4.824H13.48
			c-2.661,0.006-4.816,2.163-4.819,4.824V29.59c0.001,3.227,1.67,6.225,4.412,7.926C5.345,39.726,0.013,46.784,0,54.821
			c0,0.584,0.473,1.057,1.057,1.057c0.584,0,1.057-0.473,1.057-1.057c0.009-6.665,4.17-12.618,10.425-14.917l4.608,6.288
			c0.344,0.471,1.005,0.574,1.477,0.23c0.088-0.064,0.166-0.142,0.23-0.23l4.608-6.288c6.256,2.299,10.416,8.252,10.425,14.917
			c0,0.584,0.473,1.057,1.057,1.057c0.584,0,1.057-0.473,1.057-1.057C35.987,46.784,30.655,39.726,22.927,37.516z M25.226,25.405
			c-2.156-0.065-4.274-0.585-6.214-1.527h6.214V25.405z M10.769,17.553c0-1.497,1.214-2.711,2.711-2.711h0h9.036
			c1.497,0,2.711,1.214,2.711,2.711v4.227H10.769V17.553z M10.769,29.601v-5.723h4.629c0.978,0.978,3.942,3.345,9.823,3.641v2.071
			c-0.108,3.991-3.431,7.138-7.421,7.03c-3.839-0.104-6.927-3.191-7.03-7.03V29.601z M17.997,43.783L14.7,39.286
			c2.172-0.462,4.417-0.462,6.589,0L17.997,43.783z"/>
		<path fill="#5F51E7" d="M14.526,54.668c-0.584,0-1.057-0.473-1.057-1.057v-5.073c0.065-1.426-1.039-2.634-2.464-2.698
			c-1.426-0.065-2.634,1.039-2.698,2.464c-0.004,0.078-0.004,0.156,0,0.234v5.073c0,0.584-0.473,1.057-1.057,1.057
			s-1.057-0.473-1.057-1.057v-5.073c-0.087-2.593,1.944-4.765,4.537-4.852c2.593-0.087,4.765,1.944,4.852,4.537
			c0.004,0.105,0.004,0.21,0,0.315v5.073C15.583,54.195,15.109,54.668,14.526,54.668z"/>
		<path fill="#5F51E7" d="M8.132,55.883c-1.071,0-1.939-0.868-1.939-1.939c-0.045-0.584,0.391-1.093,0.975-1.139
			c0.584-0.045,1.093,0.391,1.139,0.975c0.584,0.045,1.02,0.555,0.975,1.139c-0.045,0.584-0.555,1.02-1.139,0.975L8.132,55.883z
			 M8.306,53.944"/>
		<path fill="#5F51E7" d="M13.643,55.883c-0.584,0.045-1.093-0.391-1.139-0.975c-0.045-0.584,0.391-1.093,0.975-1.139
			c0.045-0.584,0.555-1.02,1.139-0.975c0.584,0.045,1.02,0.555,0.975,1.139c0.006,1.071-0.858,1.944-1.929,1.95
			C13.657,55.883,13.65,55.883,13.643,55.883z"/>
		<path fill="#5F51E7" d="M10.779,45.971h-0.095c-0.581-0.05-1.012-0.562-0.962-1.144c0-0.001,0-0.002,0-0.003
			c0.042-0.47,0.433-4.639,1.485-6.42c0.24-0.532,0.866-0.768,1.398-0.528s0.768,0.866,0.528,1.398
			c-0.03,0.066-0.066,0.128-0.108,0.186c-0.613,1.057-1.057,3.937-1.199,5.527C11.787,45.538,11.331,45.966,10.779,45.971z"/>
		<path fill="#5F51E7" d="M25.923,47.556c-0.554,0.002-1.015-0.425-1.057-0.978c0-0.048-0.359-4.602-1.913-7.102
			c-0.337-0.476-0.224-1.136,0.252-1.473c0.476-0.337,1.136-0.224,1.473,0.252c0.024,0.034,0.046,0.069,0.066,0.106
			c1.865,2.954,2.235,7.868,2.235,8.074c0.037,0.569-0.384,1.064-0.951,1.12H25.923z"/>
		<path fill="#5F51E7" d="M25.95,52.623c-1.979-0.003-3.58-1.609-3.577-3.588s1.609-3.58,3.588-3.577
			c1.977,0.003,3.577,1.606,3.577,3.583C29.535,51.02,27.929,52.623,25.95,52.623z M25.95,47.566
			c-0.811,0.003-1.467,0.663-1.464,1.474c0.003,0.811,0.663,1.467,1.474,1.464c0.807-0.003,1.461-0.657,1.464-1.464
			c0.006-0.814-0.649-1.479-1.464-1.485c-0.004,0-0.007,0-0.011,0V47.566z"/>
	</g>
	<g>
		<path fill="#211F1F" d="M62.545,44.725c-1.934,0-3.758,0.483-5.358,1.333V40.01c0-4.463-3.631-8.094-8.094-8.094
			S41,35.547,41,40.01v19.531c0,4.463,3.631,8.094,8.094,8.094c2.342,0,4.527-0.998,6.052-2.718c1.998,1.694,4.581,2.718,7.4,2.718
			C68.862,67.635,74,62.496,74,56.18C74,49.864,68.862,44.725,62.545,44.725L62.545,44.725z M71.907,56.18
			c0,1.437-0.326,2.798-0.906,4.016L58.529,47.724c1.218-0.581,2.58-0.906,4.016-0.906C67.707,46.818,71.907,51.018,71.907,56.18
			L71.907,56.18z M49.094,34.009c3.309,0,6.001,2.692,6.001,6.001v7.477c-0.445,0.382-0.86,0.798-1.242,1.243H43.093V40.01
			C43.093,36.701,45.785,34.009,49.094,34.009L49.094,34.009z M49.094,65.542c-3.309,0-6.001-2.692-6.001-6.001v-8.719h9.33
			c-0.85,1.6-1.333,3.423-1.333,5.358c0,2.743,0.97,5.264,2.584,7.239C52.54,64.76,50.878,65.542,49.094,65.542L49.094,65.542z
			 M53.183,56.18c0-1.437,0.326-2.799,0.907-4.016l12.472,12.472c-1.218,0.581-2.579,0.906-4.016,0.906
			C57.383,65.542,53.183,61.342,53.183,56.18L53.183,56.18z M68.38,63.495L55.23,50.345c0.437-0.546,0.933-1.043,1.48-1.48
			L69.86,62.015C69.424,62.562,68.927,63.059,68.38,63.495L68.38,63.495z M68.38,63.495"/>
	</g>
</g>
</svg>
