<svg xmlns="http://www.w3.org/2000/svg" width="134.002" height="164.001" viewBox="0 0 134.002 164.001">
  <g id="dotted_bg_2" data-name="dotted bg 2" transform="translate(-316.999 -6271.999)">
    <g id="dotted_bg_2-2" data-name="dotted bg 2">
      <path id="Ellipse_2_copy_9" data-name="Ellipse 2 copy 9" d="M446.04,6373.89a2.48,2.48,0,1,1,2.48,2.48A2.479,2.479,0,0,1,446.04,6373.89Zm-9.92,0a2.47,2.47,0,1,1,2.469,2.48A2.474,2.474,0,0,1,436.12,6373.89Zm-9.93,0a2.48,2.48,0,1,1,2.48,2.48A2.479,2.479,0,0,1,426.19,6373.89Zm-9.941,0a2.48,2.48,0,1,1,2.48,2.48A2.479,2.479,0,0,1,416.25,6373.89Zm-9.909,0a2.47,2.47,0,1,1,2.469,2.48A2.474,2.474,0,0,1,406.341,6373.89Zm-9.931,0a2.48,2.48,0,1,1,2.48,2.48A2.479,2.479,0,0,1,396.41,6373.89Zm-9.939,0a2.48,2.48,0,1,1,2.48,2.48A2.479,2.479,0,0,1,386.47,6373.89Zm-9.9,0a2.48,2.48,0,1,1,2.48,2.48A2.479,2.479,0,0,1,376.57,6373.89Zm-9.939,0a2.48,2.48,0,1,1,2.48,2.48A2.479,2.479,0,0,1,366.63,6373.89Zm-9.91,0a2.47,2.47,0,1,1,2.471,2.48A2.474,2.474,0,0,1,356.72,6373.89Zm-9.93,0a2.48,2.48,0,1,1,2.48,2.48A2.479,2.479,0,0,1,346.79,6373.89Zm-9.941,0a2.48,2.48,0,1,1,2.48,2.48A2.479,2.479,0,0,1,336.85,6373.89Zm-9.909,0a2.47,2.47,0,1,1,2.469,2.48A2.474,2.474,0,0,1,326.941,6373.89Zm-9.941,0a2.48,2.48,0,1,1,2.48,2.48A2.479,2.479,0,0,1,317,6373.89Z" fill="#0063ff"/>
      <path id="Ellipse_2_copy_16" data-name="Ellipse 2 copy 16" d="M446.04,6383.83a2.48,2.48,0,1,1,2.481,2.481A2.48,2.48,0,0,1,446.04,6383.83Zm-9.919,0a2.47,2.47,0,1,1,2.47,2.481A2.475,2.475,0,0,1,436.12,6383.83Zm-9.931,0a2.48,2.48,0,1,1,2.481,2.481A2.48,2.48,0,0,1,426.19,6383.83Zm-9.94,0a2.48,2.48,0,1,1,2.481,2.481A2.48,2.48,0,0,1,416.249,6383.83Zm-9.91,0a2.47,2.47,0,1,1,2.47,2.481A2.475,2.475,0,0,1,406.34,6383.83Zm-9.929,0a2.479,2.479,0,1,1,2.479,2.481A2.479,2.479,0,0,1,396.41,6383.83Zm-9.94,0a2.48,2.48,0,1,1,2.479,2.481A2.48,2.48,0,0,1,386.47,6383.83Zm-9.9,0a2.48,2.48,0,1,1,2.479,2.481A2.48,2.48,0,0,1,376.57,6383.83Zm-9.94,0a2.48,2.48,0,1,1,2.481,2.481A2.48,2.48,0,0,1,366.63,6383.83Zm-9.91,0a2.47,2.47,0,1,1,2.47,2.481A2.475,2.475,0,0,1,356.72,6383.83Zm-9.931,0a2.48,2.48,0,1,1,2.481,2.481A2.48,2.48,0,0,1,346.789,6383.83Zm-9.939,0a2.479,2.479,0,1,1,2.479,2.481A2.479,2.479,0,0,1,336.851,6383.83Zm-9.91,0a2.47,2.47,0,1,1,2.47,2.481A2.474,2.474,0,0,1,326.941,6383.83Zm-9.94,0a2.479,2.479,0,1,1,2.479,2.481A2.479,2.479,0,0,1,317,6383.83Z" fill="#0063ff"/>
      <path id="Ellipse_2_copy_17" data-name="Ellipse 2 copy 17" d="M446.041,6393.771a2.48,2.48,0,1,1,2.48,2.48A2.48,2.48,0,0,1,446.041,6393.771Zm-9.92,0a2.47,2.47,0,1,1,2.47,2.48A2.476,2.476,0,0,1,436.12,6393.771Zm-9.93,0a2.48,2.48,0,1,1,2.48,2.48A2.481,2.481,0,0,1,426.19,6393.771Zm-9.94,0a2.48,2.48,0,1,1,2.48,2.48A2.48,2.48,0,0,1,416.25,6393.771Zm-9.911,0a2.47,2.47,0,1,1,2.47,2.48A2.476,2.476,0,0,1,406.34,6393.771Zm-9.93,0a2.48,2.48,0,1,1,2.48,2.48A2.481,2.481,0,0,1,396.409,6393.771Zm-9.94,0a2.48,2.48,0,1,1,2.48,2.48A2.481,2.481,0,0,1,386.47,6393.771Zm-9.9,0a2.48,2.48,0,1,1,2.48,2.48A2.481,2.481,0,0,1,376.57,6393.771Zm-9.94,0a2.48,2.48,0,1,1,2.48,2.48A2.48,2.48,0,0,1,366.631,6393.771Zm-9.911,0a2.47,2.47,0,1,1,2.47,2.48A2.476,2.476,0,0,1,356.72,6393.771Zm-9.93,0a2.48,2.48,0,1,1,2.48,2.48A2.481,2.481,0,0,1,346.79,6393.771Zm-9.94,0a2.48,2.48,0,1,1,2.48,2.48A2.481,2.481,0,0,1,336.85,6393.771Zm-9.909,0a2.47,2.47,0,1,1,2.469,2.48A2.474,2.474,0,0,1,326.941,6393.771Zm-9.941,0a2.48,2.48,0,1,1,2.48,2.48A2.481,2.481,0,0,1,317,6393.771Z" fill="#0063ff"/>
      <path id="Ellipse_2_copy_19" data-name="Ellipse 2 copy 19" d="M446.04,6413.64a2.48,2.48,0,1,1,2.48,2.48A2.48,2.48,0,0,1,446.04,6413.64Zm-9.919,0a2.469,2.469,0,1,1,2.47,2.48A2.474,2.474,0,0,1,436.121,6413.64Zm-9.93,0a2.48,2.48,0,1,1,2.48,2.48A2.479,2.479,0,0,1,426.19,6413.64Zm-9.94,0a2.48,2.48,0,1,1,2.48,2.48A2.479,2.479,0,0,1,416.25,6413.64Zm-9.911,0a2.47,2.47,0,1,1,2.47,2.48A2.475,2.475,0,0,1,406.339,6413.64Zm-9.929,0a2.48,2.48,0,1,1,2.48,2.48A2.479,2.479,0,0,1,396.411,6413.64Zm-9.94,0a2.48,2.48,0,1,1,2.48,2.48A2.479,2.479,0,0,1,386.471,6413.64Zm-9.9,0a2.481,2.481,0,1,1,2.481,2.48A2.48,2.48,0,0,1,376.569,6413.64Zm-9.94,0a2.481,2.481,0,1,1,2.481,2.48A2.48,2.48,0,0,1,366.629,6413.64Zm-9.909,0a2.47,2.47,0,1,1,2.47,2.48A2.475,2.475,0,0,1,356.72,6413.64Zm-9.93,0a2.48,2.48,0,1,1,2.48,2.48A2.48,2.48,0,0,1,346.79,6413.64Zm-9.94,0a2.48,2.48,0,1,1,2.48,2.48A2.48,2.48,0,0,1,336.85,6413.64Zm-9.909,0a2.47,2.47,0,1,1,2.47,2.48A2.475,2.475,0,0,1,326.94,6413.64Zm-9.94,0a2.48,2.48,0,1,1,2.48,2.48A2.479,2.479,0,0,1,317,6413.64Z" fill="#0063ff"/>
      <path id="Ellipse_2_copy_20" data-name="Ellipse 2 copy 20" d="M446.041,6423.581a2.48,2.48,0,1,1,2.479,2.479A2.479,2.479,0,0,1,446.041,6423.581Zm-9.92,0a2.47,2.47,0,1,1,2.469,2.479A2.474,2.474,0,0,1,436.121,6423.581Zm-9.931,0a2.48,2.48,0,1,1,2.48,2.479A2.48,2.48,0,0,1,426.189,6423.581Zm-9.939,0a2.48,2.48,0,1,1,2.48,2.479A2.479,2.479,0,0,1,416.25,6423.581Zm-9.91,0a2.47,2.47,0,1,1,2.471,2.479A2.475,2.475,0,0,1,406.34,6423.581Zm-9.93,0a2.48,2.48,0,1,1,2.48,2.479A2.479,2.479,0,0,1,396.41,6423.581Zm-9.941,0a2.48,2.48,0,1,1,2.48,2.479A2.48,2.48,0,0,1,386.47,6423.581Zm-9.9,0a2.48,2.48,0,1,1,2.479,2.479A2.479,2.479,0,0,1,376.571,6423.581Zm-9.941,0a2.48,2.48,0,1,1,2.48,2.479A2.48,2.48,0,0,1,366.63,6423.581Zm-9.91,0a2.47,2.47,0,1,1,2.471,2.479A2.475,2.475,0,0,1,356.72,6423.581Zm-9.93,0a2.48,2.48,0,1,1,2.48,2.479A2.479,2.479,0,0,1,346.79,6423.581Zm-9.939,0a2.48,2.48,0,1,1,2.479,2.479A2.479,2.479,0,0,1,336.851,6423.581Zm-9.91,0a2.47,2.47,0,1,1,2.469,2.479A2.474,2.474,0,0,1,326.94,6423.581Zm-9.941,0a2.48,2.48,0,1,1,2.48,2.479A2.48,2.48,0,0,1,317,6423.581Z" fill="#0063ff"/>
      <path id="Ellipse_2_copy_21" data-name="Ellipse 2 copy 21" d="M446.041,6433.521A2.479,2.479,0,1,1,448.52,6436,2.48,2.48,0,0,1,446.041,6433.521Zm-9.921,0a2.47,2.47,0,1,1,2.47,2.479A2.476,2.476,0,0,1,436.12,6433.521Zm-9.93,0a2.48,2.48,0,1,1,2.481,2.479A2.482,2.482,0,0,1,426.19,6433.521Zm-9.94,0a2.48,2.48,0,1,1,2.481,2.479A2.482,2.482,0,0,1,416.25,6433.521Zm-9.909,0a2.47,2.47,0,1,1,2.47,2.479A2.476,2.476,0,0,1,406.34,6433.521Zm-9.93,0a2.48,2.48,0,1,1,2.481,2.479A2.482,2.482,0,0,1,396.41,6433.521Zm-9.94,0a2.48,2.48,0,1,1,2.481,2.479A2.482,2.482,0,0,1,386.47,6433.521Zm-9.9,0a2.48,2.48,0,1,1,2.479,2.479A2.48,2.48,0,0,1,376.57,6433.521Zm-9.94,0a2.48,2.48,0,1,1,2.479,2.479A2.48,2.48,0,0,1,366.63,6433.521Zm-9.909,0a2.47,2.47,0,1,1,2.47,2.479A2.475,2.475,0,0,1,356.72,6433.521Zm-9.93,0a2.48,2.48,0,1,1,2.479,2.479A2.48,2.48,0,0,1,346.79,6433.521Zm-9.94,0a2.48,2.48,0,1,1,2.479,2.479A2.48,2.48,0,0,1,336.85,6433.521Zm-9.909,0a2.47,2.47,0,1,1,2.47,2.479A2.475,2.475,0,0,1,326.941,6433.521Zm-9.94,0A2.479,2.479,0,1,1,319.48,6436,2.48,2.48,0,0,1,317,6433.521Z" fill="#0063ff"/>
      <path id="Ellipse_2_copy_18" data-name="Ellipse 2 copy 18" d="M446.04,6403.7a2.48,2.48,0,1,1,2.481,2.481A2.48,2.48,0,0,1,446.04,6403.7Zm-9.92,0a2.47,2.47,0,1,1,2.47,2.481A2.474,2.474,0,0,1,436.12,6403.7Zm-9.931,0a2.481,2.481,0,1,1,2.481,2.481A2.48,2.48,0,0,1,426.189,6403.7Zm-9.939,0a2.48,2.48,0,1,1,2.479,2.481A2.478,2.478,0,0,1,416.25,6403.7Zm-9.91,0a2.47,2.47,0,1,1,2.469,2.481A2.474,2.474,0,0,1,406.34,6403.7Zm-9.929,0a2.48,2.48,0,1,1,2.479,2.481A2.478,2.478,0,0,1,396.411,6403.7Zm-9.941,0a2.48,2.48,0,1,1,2.479,2.481A2.479,2.479,0,0,1,386.47,6403.7Zm-9.9,0a2.48,2.48,0,1,1,2.481,2.481A2.48,2.48,0,0,1,376.57,6403.7Zm-9.939,0a2.48,2.48,0,1,1,2.479,2.481A2.478,2.478,0,0,1,366.631,6403.7Zm-9.91,0a2.47,2.47,0,1,1,2.469,2.481A2.474,2.474,0,0,1,356.72,6403.7Zm-9.931,0a2.48,2.48,0,1,1,2.481,2.481A2.48,2.48,0,0,1,346.789,6403.7Zm-9.939,0a2.48,2.48,0,1,1,2.479,2.481A2.478,2.478,0,0,1,336.85,6403.7Zm-9.91,0a2.47,2.47,0,1,1,2.469,2.481A2.474,2.474,0,0,1,326.94,6403.7Zm-9.941,0a2.48,2.48,0,1,1,2.481,2.481A2.48,2.48,0,0,1,317,6403.7Z" fill="#0063ff"/>
      <path id="Ellipse_2_copy_22" data-name="Ellipse 2 copy 22" d="M446.041,6304.3a2.479,2.479,0,1,1,2.479,2.48A2.48,2.48,0,0,1,446.041,6304.3Zm-9.921,0a2.47,2.47,0,1,1,2.471,2.48A2.476,2.476,0,0,1,436.12,6304.3Zm-9.93,0a2.48,2.48,0,1,1,2.48,2.48A2.481,2.481,0,0,1,426.189,6304.3Zm-9.94,0a2.48,2.48,0,1,1,2.48,2.48A2.481,2.481,0,0,1,416.249,6304.3Zm-9.91,0a2.47,2.47,0,1,1,2.471,2.48A2.476,2.476,0,0,1,406.339,6304.3Zm-9.929,0a2.479,2.479,0,1,1,2.479,2.48A2.48,2.48,0,0,1,396.411,6304.3Zm-9.94,0a2.479,2.479,0,1,1,2.479,2.48A2.48,2.48,0,0,1,386.471,6304.3Zm-9.9,0a2.48,2.48,0,1,1,2.48,2.48A2.48,2.48,0,0,1,376.57,6304.3Zm-9.94,0a2.479,2.479,0,1,1,2.48,2.48A2.48,2.48,0,0,1,366.63,6304.3Zm-9.91,0a2.47,2.47,0,1,1,2.469,2.48A2.475,2.475,0,0,1,356.72,6304.3Zm-9.93,0a2.48,2.48,0,1,1,2.48,2.48A2.48,2.48,0,0,1,346.79,6304.3Zm-9.94,0a2.48,2.48,0,1,1,2.48,2.48A2.48,2.48,0,0,1,336.85,6304.3Zm-9.91,0a2.47,2.47,0,1,1,2.469,2.48A2.476,2.476,0,0,1,326.94,6304.3Zm-9.94,0a2.48,2.48,0,1,1,2.48,2.48A2.48,2.48,0,0,1,317,6304.3Z" fill="#0063ff"/>
      <path id="Ellipse_2_copy_23" data-name="Ellipse 2 copy 23" d="M446.041,6314.231a2.479,2.479,0,1,1,2.479,2.479A2.48,2.48,0,0,1,446.041,6314.231Zm-9.921,0a2.47,2.47,0,1,1,2.47,2.479A2.476,2.476,0,0,1,436.12,6314.231Zm-9.93,0a2.48,2.48,0,1,1,2.481,2.479A2.481,2.481,0,0,1,426.19,6314.231Zm-9.94,0a2.48,2.48,0,1,1,2.479,2.479A2.48,2.48,0,0,1,416.25,6314.231Zm-9.91,0a2.47,2.47,0,1,1,2.47,2.479A2.475,2.475,0,0,1,406.34,6314.231Zm-9.93,0a2.48,2.48,0,1,1,2.479,2.479A2.48,2.48,0,0,1,396.41,6314.231Zm-9.94,0a2.479,2.479,0,1,1,2.479,2.479A2.48,2.48,0,0,1,386.47,6314.231Zm-9.9,0a2.48,2.48,0,1,1,2.479,2.479A2.48,2.48,0,0,1,376.57,6314.231Zm-9.94,0a2.479,2.479,0,1,1,2.479,2.479A2.48,2.48,0,0,1,366.631,6314.231Zm-9.911,0a2.471,2.471,0,1,1,2.47,2.479A2.476,2.476,0,0,1,356.719,6314.231Zm-9.929,0a2.479,2.479,0,1,1,2.479,2.479A2.48,2.48,0,0,1,346.791,6314.231Zm-9.941,0a2.48,2.48,0,1,1,2.481,2.479A2.481,2.481,0,0,1,336.849,6314.231Zm-9.91,0a2.47,2.47,0,1,1,2.47,2.479A2.476,2.476,0,0,1,326.94,6314.231Zm-9.94,0a2.48,2.48,0,1,1,2.479,2.479A2.48,2.48,0,0,1,317,6314.231Z" fill="#0063ff"/>
      <path id="Ellipse_2_copy_24" data-name="Ellipse 2 copy 24" d="M446.039,6324.17a2.48,2.48,0,1,1,2.48,2.48A2.481,2.481,0,0,1,446.039,6324.17Zm-9.919,0a2.47,2.47,0,1,1,2.469,2.48A2.474,2.474,0,0,1,436.12,6324.17Zm-9.93,0a2.48,2.48,0,1,1,2.48,2.48A2.48,2.48,0,0,1,426.19,6324.17Zm-9.941,0a2.48,2.48,0,1,1,2.48,2.48A2.481,2.481,0,0,1,416.249,6324.17Zm-9.909,0a2.47,2.47,0,1,1,2.471,2.48A2.475,2.475,0,0,1,406.34,6324.17Zm-9.93,0a2.48,2.48,0,1,1,2.48,2.48A2.48,2.48,0,0,1,396.41,6324.17Zm-9.94,0a2.48,2.48,0,1,1,2.48,2.48A2.48,2.48,0,0,1,386.47,6324.17Zm-9.9,0a2.479,2.479,0,1,1,2.48,2.48A2.48,2.48,0,0,1,376.571,6324.17Zm-9.941,0a2.48,2.48,0,1,1,2.48,2.48A2.481,2.481,0,0,1,366.63,6324.17Zm-9.909,0a2.47,2.47,0,1,1,2.469,2.48A2.474,2.474,0,0,1,356.72,6324.17Zm-9.93,0a2.48,2.48,0,1,1,2.48,2.48A2.48,2.48,0,0,1,346.79,6324.17Zm-9.94,0a2.479,2.479,0,1,1,2.479,2.48A2.479,2.479,0,0,1,336.851,6324.17Zm-9.911,0a2.47,2.47,0,1,1,2.471,2.48A2.475,2.475,0,0,1,326.94,6324.17Zm-9.94,0a2.48,2.48,0,1,1,2.48,2.48A2.48,2.48,0,0,1,317,6324.17Z" fill="#0063ff"/>
      <path id="Ellipse_2_copy_29" data-name="Ellipse 2 copy 29" d="M446.039,6274.48a2.48,2.48,0,1,1,2.481,2.479A2.481,2.481,0,0,1,446.039,6274.48Zm-9.92,0a2.47,2.47,0,1,1,2.47,2.479A2.476,2.476,0,0,1,436.12,6274.48Zm-9.929,0a2.48,2.48,0,1,1,2.48,2.479A2.48,2.48,0,0,1,426.191,6274.48Zm-9.94,0a2.48,2.48,0,1,1,2.48,2.479A2.481,2.481,0,0,1,416.25,6274.48Zm-9.91,0a2.47,2.47,0,1,1,2.47,2.479A2.476,2.476,0,0,1,406.34,6274.48Zm-9.931,0a2.48,2.48,0,1,1,2.481,2.479A2.481,2.481,0,0,1,396.409,6274.48Zm-9.939,0a2.48,2.48,0,1,1,2.48,2.479A2.48,2.48,0,0,1,386.471,6274.48Zm-9.9,0a2.48,2.48,0,1,1,2.48,2.479A2.481,2.481,0,0,1,376.57,6274.48Zm-9.94,0a2.48,2.48,0,1,1,2.481,2.479A2.481,2.481,0,0,1,366.63,6274.48Zm-9.91,0a2.47,2.47,0,1,1,2.47,2.479A2.476,2.476,0,0,1,356.719,6274.48Zm-9.929,0a2.48,2.48,0,1,1,2.48,2.479A2.481,2.481,0,0,1,346.79,6274.48Zm-9.94,0a2.48,2.48,0,1,1,2.48,2.479A2.481,2.481,0,0,1,336.85,6274.48Zm-9.91,0a2.47,2.47,0,1,1,2.47,2.479A2.476,2.476,0,0,1,326.94,6274.48Zm-9.94,0a2.48,2.48,0,1,1,2.481,2.479A2.481,2.481,0,0,1,317,6274.48Z" fill="#0063ff"/>
      <path id="Ellipse_2_copy_29-2" data-name="Ellipse 2 copy 29" d="M446.041,6284.419a2.48,2.48,0,1,1,2.479,2.48A2.479,2.479,0,0,1,446.041,6284.419Zm-9.921,0a2.47,2.47,0,1,1,2.471,2.48A2.476,2.476,0,0,1,436.119,6284.419Zm-9.929,0a2.48,2.48,0,1,1,2.48,2.48A2.481,2.481,0,0,1,426.19,6284.419Zm-9.94,0a2.48,2.48,0,1,1,2.48,2.48A2.481,2.481,0,0,1,416.25,6284.419Zm-9.91,0a2.47,2.47,0,1,1,2.471,2.48A2.476,2.476,0,0,1,406.34,6284.419Zm-9.929,0a2.48,2.48,0,1,1,2.479,2.48A2.479,2.479,0,0,1,396.411,6284.419Zm-9.94,0a2.48,2.48,0,1,1,2.479,2.48A2.479,2.479,0,0,1,386.471,6284.419Zm-9.9,0a2.48,2.48,0,1,1,2.48,2.48A2.481,2.481,0,0,1,376.57,6284.419Zm-9.94,0a2.48,2.48,0,1,1,2.48,2.48A2.481,2.481,0,0,1,366.63,6284.419Zm-9.91,0a2.47,2.47,0,1,1,2.471,2.48A2.476,2.476,0,0,1,356.719,6284.419Zm-9.929,0a2.48,2.48,0,1,1,2.48,2.48A2.481,2.481,0,0,1,346.79,6284.419Zm-9.94,0a2.48,2.48,0,1,1,2.48,2.48A2.481,2.481,0,0,1,336.85,6284.419Zm-9.91,0a2.47,2.47,0,1,1,2.469,2.48A2.475,2.475,0,0,1,326.94,6284.419Zm-9.94,0a2.48,2.48,0,1,1,2.48,2.48A2.481,2.481,0,0,1,317,6284.419Z" fill="#0063ff"/>
      <path id="Ellipse_2_copy_29-3" data-name="Ellipse 2 copy 29" d="M446.039,6294.36a2.48,2.48,0,1,1,2.481,2.479A2.481,2.481,0,0,1,446.039,6294.36Zm-9.92,0a2.47,2.47,0,1,1,2.47,2.479A2.476,2.476,0,0,1,436.12,6294.36Zm-9.931,0a2.48,2.48,0,1,1,2.481,2.479A2.481,2.481,0,0,1,426.189,6294.36Zm-9.939,0a2.479,2.479,0,1,1,2.479,2.479A2.48,2.48,0,0,1,416.251,6294.36Zm-9.91,0a2.47,2.47,0,1,1,2.47,2.479A2.475,2.475,0,0,1,406.341,6294.36Zm-9.931,0a2.48,2.48,0,1,1,2.479,2.479A2.481,2.481,0,0,1,396.41,6294.36Zm-9.94,0a2.48,2.48,0,1,1,2.479,2.479A2.481,2.481,0,0,1,386.47,6294.36Zm-9.9,0a2.48,2.48,0,1,1,2.481,2.479A2.481,2.481,0,0,1,376.569,6294.36Zm-9.94,0a2.48,2.48,0,1,1,2.481,2.479A2.481,2.481,0,0,1,366.629,6294.36Zm-9.91,0a2.47,2.47,0,1,1,2.47,2.479A2.476,2.476,0,0,1,356.719,6294.36Zm-9.929,0a2.479,2.479,0,1,1,2.479,2.479A2.48,2.48,0,0,1,346.79,6294.36Zm-9.94,0a2.48,2.48,0,1,1,2.479,2.479A2.48,2.48,0,0,1,336.85,6294.36Zm-9.91,0a2.47,2.47,0,1,1,2.47,2.479A2.476,2.476,0,0,1,326.94,6294.36Zm-9.94,0a2.48,2.48,0,1,1,2.479,2.479A2.481,2.481,0,0,1,317,6294.36Z" fill="#0063ff"/>
      <path id="Ellipse_2_copy_25" data-name="Ellipse 2 copy 25" d="M446.041,6344.05a2.48,2.48,0,1,1,2.48,2.48A2.48,2.48,0,0,1,446.041,6344.05Zm-9.921,0a2.47,2.47,0,1,1,2.47,2.48A2.476,2.476,0,0,1,436.119,6344.05Zm-9.929,0a2.48,2.48,0,1,1,2.48,2.48A2.48,2.48,0,0,1,426.19,6344.05Zm-9.94,0a2.48,2.48,0,1,1,2.48,2.48A2.48,2.48,0,0,1,416.25,6344.05Zm-9.91,0a2.47,2.47,0,1,1,2.47,2.48A2.476,2.476,0,0,1,406.339,6344.05Zm-9.929,0a2.48,2.48,0,1,1,2.48,2.48A2.48,2.48,0,0,1,396.41,6344.05Zm-9.94,0a2.48,2.48,0,1,1,2.48,2.48A2.48,2.48,0,0,1,386.47,6344.05Zm-9.9,0a2.48,2.48,0,1,1,2.48,2.48A2.48,2.48,0,0,1,376.57,6344.05Zm-9.94,0a2.48,2.48,0,1,1,2.48,2.48A2.48,2.48,0,0,1,366.63,6344.05Zm-9.91,0a2.47,2.47,0,1,1,2.47,2.48A2.475,2.475,0,0,1,356.72,6344.05Zm-9.929,0a2.48,2.48,0,1,1,2.48,2.48A2.48,2.48,0,0,1,346.79,6344.05Zm-9.94,0a2.48,2.48,0,1,1,2.48,2.48A2.48,2.48,0,0,1,336.85,6344.05Zm-9.91,0a2.47,2.47,0,1,1,2.47,2.48A2.475,2.475,0,0,1,326.94,6344.05Zm-9.94,0a2.48,2.48,0,1,1,2.48,2.48A2.481,2.481,0,0,1,317,6344.05Z" fill="#0063ff"/>
      <path id="Ellipse_2_copy_26" data-name="Ellipse 2 copy 26" d="M446.04,6354a2.48,2.48,0,1,1,2.481,2.5A2.489,2.489,0,0,1,446.04,6354Zm-9.919,0a2.47,2.47,0,1,1,2.469,2.5A2.484,2.484,0,0,1,436.12,6354Zm-9.931,0a2.48,2.48,0,1,1,2.481,2.5A2.489,2.489,0,0,1,426.19,6354Zm-9.94,0a2.481,2.481,0,1,1,2.481,2.5A2.489,2.489,0,0,1,416.249,6354Zm-9.91,0a2.47,2.47,0,1,1,2.471,2.5A2.484,2.484,0,0,1,406.34,6354Zm-9.929,0a2.48,2.48,0,1,1,2.479,2.5A2.489,2.489,0,0,1,396.411,6354Zm-9.94,0a2.48,2.48,0,1,1,2.479,2.5A2.489,2.489,0,0,1,386.471,6354Zm-9.9,0a2.48,2.48,0,1,1,2.479,2.5A2.489,2.489,0,0,1,376.57,6354Zm-9.94,0a2.48,2.48,0,1,1,2.481,2.5A2.489,2.489,0,0,1,366.63,6354Zm-9.91,0a2.47,2.47,0,1,1,2.469,2.5A2.484,2.484,0,0,1,356.72,6354Zm-9.931,0a2.48,2.48,0,1,1,2.481,2.5A2.489,2.489,0,0,1,346.79,6354Zm-9.94,0a2.48,2.48,0,1,1,2.481,2.5A2.489,2.489,0,0,1,336.85,6354Zm-9.91,0a2.47,2.47,0,1,1,2.469,2.5A2.484,2.484,0,0,1,326.94,6354Zm-9.94,0a2.48,2.48,0,1,1,2.481,2.5A2.489,2.489,0,0,1,317,6354Z" fill="#0063ff"/>
      <path id="Ellipse_2_copy_27" data-name="Ellipse 2 copy 27" d="M446.04,6363.95a2.48,2.48,0,1,1,2.48,2.481A2.48,2.48,0,0,1,446.04,6363.95Zm-9.921,0a2.47,2.47,0,1,1,2.47,2.481A2.476,2.476,0,0,1,436.119,6363.95Zm-9.928,0a2.48,2.48,0,1,1,2.48,2.481A2.479,2.479,0,0,1,426.191,6363.95Zm-9.941,0a2.481,2.481,0,1,1,2.481,2.481A2.48,2.48,0,0,1,416.249,6363.95Zm-9.909,0a2.47,2.47,0,1,1,2.47,2.481A2.475,2.475,0,0,1,406.34,6363.95Zm-9.93,0a2.48,2.48,0,1,1,2.48,2.481A2.48,2.48,0,0,1,396.41,6363.95Zm-9.94,0a2.48,2.48,0,1,1,2.48,2.481A2.48,2.48,0,0,1,386.47,6363.95Zm-9.9,0a2.48,2.48,0,1,1,2.48,2.481A2.48,2.48,0,0,1,376.571,6363.95Zm-9.941,0a2.481,2.481,0,1,1,2.481,2.481A2.48,2.48,0,0,1,366.629,6363.95Zm-9.909,0a2.47,2.47,0,1,1,2.47,2.481A2.475,2.475,0,0,1,356.72,6363.95Zm-9.93,0a2.48,2.48,0,1,1,2.48,2.481A2.48,2.48,0,0,1,346.79,6363.95Zm-9.94,0a2.48,2.48,0,1,1,2.48,2.481A2.48,2.48,0,0,1,336.85,6363.95Zm-9.911,0a2.47,2.47,0,1,1,2.47,2.481A2.476,2.476,0,0,1,326.939,6363.95Zm-9.94,0a2.481,2.481,0,1,1,2.48,2.481A2.48,2.48,0,0,1,317,6363.95Z" fill="#0063ff"/>
      <path id="Ellipse_2_copy_28" data-name="Ellipse 2 copy 28" d="M446.04,6334.11a2.48,2.48,0,1,1,2.479,2.479A2.479,2.479,0,0,1,446.04,6334.11Zm-9.92,0a2.47,2.47,0,1,1,2.47,2.479A2.474,2.474,0,0,1,436.12,6334.11Zm-9.93,0a2.48,2.48,0,1,1,2.479,2.479A2.479,2.479,0,0,1,426.19,6334.11Zm-9.941,0a2.48,2.48,0,1,1,2.481,2.479A2.48,2.48,0,0,1,416.25,6334.11Zm-9.909,0a2.47,2.47,0,1,1,2.47,2.479A2.474,2.474,0,0,1,406.341,6334.11Zm-9.931,0a2.48,2.48,0,1,1,2.481,2.479A2.481,2.481,0,0,1,396.409,6334.11Zm-9.939,0a2.48,2.48,0,1,1,2.479,2.479A2.479,2.479,0,0,1,386.47,6334.11Zm-9.9,0a2.48,2.48,0,1,1,2.479,2.479A2.479,2.479,0,0,1,376.571,6334.11Zm-9.941,0a2.48,2.48,0,1,1,2.481,2.479A2.48,2.48,0,0,1,366.63,6334.11Zm-9.911,0a2.471,2.471,0,1,1,2.471,2.479A2.476,2.476,0,0,1,356.719,6334.11Zm-9.93,0a2.48,2.48,0,1,1,2.481,2.479A2.48,2.48,0,0,1,346.79,6334.11Zm-9.939,0a2.48,2.48,0,1,1,2.479,2.479A2.479,2.479,0,0,1,336.85,6334.11Zm-9.911,0a2.47,2.47,0,1,1,2.47,2.479A2.475,2.475,0,0,1,326.94,6334.11Zm-9.939,0a2.48,2.48,0,1,1,2.479,2.479A2.479,2.479,0,0,1,317,6334.11Z" fill="#0063ff"/>
    </g>
    <path id="Color_Overlay" data-name="Color Overlay" d="M446.041,6433.521A2.479,2.479,0,1,1,448.52,6436,2.48,2.48,0,0,1,446.041,6433.521Zm-9.921,0a2.47,2.47,0,1,1,2.47,2.479A2.476,2.476,0,0,1,436.12,6433.521Zm-9.93,0a2.48,2.48,0,1,1,2.481,2.479A2.482,2.482,0,0,1,426.19,6433.521Zm-9.94,0a2.48,2.48,0,1,1,2.481,2.479A2.482,2.482,0,0,1,416.25,6433.521Zm-9.909,0a2.47,2.47,0,1,1,2.47,2.479A2.476,2.476,0,0,1,406.34,6433.521Zm-9.93,0a2.48,2.48,0,1,1,2.481,2.479A2.482,2.482,0,0,1,396.41,6433.521Zm-9.94,0a2.48,2.48,0,1,1,2.481,2.479A2.482,2.482,0,0,1,386.47,6433.521Zm-9.9,0a2.48,2.48,0,1,1,2.479,2.479A2.48,2.48,0,0,1,376.57,6433.521Zm-9.94,0a2.48,2.48,0,1,1,2.479,2.479A2.48,2.48,0,0,1,366.63,6433.521Zm-9.909,0a2.47,2.47,0,1,1,2.47,2.479A2.475,2.475,0,0,1,356.72,6433.521Zm-9.93,0a2.48,2.48,0,1,1,2.479,2.479A2.48,2.48,0,0,1,346.79,6433.521Zm-9.94,0a2.48,2.48,0,1,1,2.479,2.479A2.48,2.48,0,0,1,336.85,6433.521Zm-9.909,0a2.47,2.47,0,1,1,2.47,2.479A2.475,2.475,0,0,1,326.941,6433.521Zm-9.94,0A2.479,2.479,0,1,1,319.48,6436,2.48,2.48,0,0,1,317,6433.521Zm129.04-9.94a2.479,2.479,0,1,1,2.479,2.478A2.479,2.479,0,0,1,446.041,6423.581Zm-9.921,0a2.471,2.471,0,1,1,2.47,2.478A2.474,2.474,0,0,1,436.12,6423.581Zm-9.93,0a2.48,2.48,0,1,1,2.481,2.478A2.481,2.481,0,0,1,426.19,6423.581Zm-9.94,0a2.48,2.48,0,1,1,2.481,2.478A2.48,2.48,0,0,1,416.25,6423.581Zm-9.909,0a2.47,2.47,0,1,1,2.471,2.478A2.476,2.476,0,0,1,406.34,6423.581Zm-9.93,0a2.48,2.48,0,1,1,2.481,2.478A2.48,2.48,0,0,1,396.41,6423.581Zm-9.94,0a2.48,2.48,0,1,1,2.481,2.478A2.481,2.481,0,0,1,386.47,6423.581Zm-9.9,0a2.48,2.48,0,1,1,2.479,2.478A2.479,2.479,0,0,1,376.57,6423.581Zm-9.94,0a2.48,2.48,0,1,1,2.481,2.478A2.481,2.481,0,0,1,366.63,6423.581Zm-9.911,0a2.471,2.471,0,1,1,2.471,2.478A2.476,2.476,0,0,1,356.719,6423.581Zm-9.929,0a2.48,2.48,0,1,1,2.481,2.478A2.48,2.48,0,0,1,346.79,6423.581Zm-9.94,0a2.48,2.48,0,1,1,2.479,2.478A2.479,2.479,0,0,1,336.85,6423.581Zm-9.909,0a2.47,2.47,0,1,1,2.47,2.478A2.474,2.474,0,0,1,326.941,6423.581Zm-9.942,0a2.481,2.481,0,1,1,2.481,2.478A2.481,2.481,0,0,1,317,6423.581Zm129.04-9.94a2.48,2.48,0,1,1,2.481,2.479A2.479,2.479,0,0,1,446.039,6413.641Zm-9.919,0a2.47,2.47,0,1,1,2.471,2.479A2.473,2.473,0,0,1,436.12,6413.641Zm-9.93,0a2.48,2.48,0,1,1,2.481,2.479A2.478,2.478,0,0,1,426.19,6413.641Zm-9.938,0a2.479,2.479,0,1,1,2.479,2.479A2.477,2.477,0,0,1,416.251,6413.641Zm-9.911,0a2.47,2.47,0,1,1,2.47,2.479A2.473,2.473,0,0,1,406.34,6413.641Zm-9.929,0a2.479,2.479,0,1,1,2.479,2.479A2.477,2.477,0,0,1,396.411,6413.641Zm-9.94,0a2.479,2.479,0,1,1,2.479,2.479A2.478,2.478,0,0,1,386.471,6413.641Zm-9.9,0a2.48,2.48,0,1,1,2.481,2.479A2.479,2.479,0,0,1,376.57,6413.641Zm-9.94,0a2.48,2.48,0,1,1,2.481,2.479A2.479,2.479,0,0,1,366.63,6413.641Zm-9.909,0a2.47,2.47,0,1,1,2.47,2.479A2.474,2.474,0,0,1,356.72,6413.641Zm-9.93,0a2.479,2.479,0,1,1,2.479,2.479A2.479,2.479,0,0,1,346.79,6413.641Zm-9.94,0a2.479,2.479,0,1,1,2.479,2.479A2.479,2.479,0,0,1,336.85,6413.641Zm-9.909,0a2.47,2.47,0,1,1,2.47,2.479A2.474,2.474,0,0,1,326.941,6413.641Zm-9.94,0a2.479,2.479,0,1,1,2.479,2.479A2.478,2.478,0,0,1,317,6413.641Zm129.04-9.94a2.479,2.479,0,1,1,2.479,2.481A2.479,2.479,0,0,1,446.041,6403.7Zm-9.921,0a2.47,2.47,0,1,1,2.47,2.481A2.475,2.475,0,0,1,436.12,6403.7Zm-9.93,0a2.48,2.48,0,1,1,2.481,2.481A2.48,2.48,0,0,1,426.19,6403.7Zm-9.94,0a2.48,2.48,0,1,1,2.479,2.481A2.479,2.479,0,0,1,416.25,6403.7Zm-9.909,0a2.471,2.471,0,1,1,2.47,2.481A2.475,2.475,0,0,1,406.34,6403.7Zm-9.929,0a2.479,2.479,0,1,1,2.478,2.481A2.477,2.477,0,0,1,396.411,6403.7Zm-9.942,0a2.48,2.48,0,1,1,2.479,2.481A2.48,2.48,0,0,1,386.47,6403.7Zm-9.9,0a2.479,2.479,0,1,1,2.481,2.481A2.48,2.48,0,0,1,376.57,6403.7Zm-9.94,0a2.48,2.48,0,1,1,2.479,2.481A2.479,2.479,0,0,1,366.63,6403.7Zm-9.909,0a2.47,2.47,0,1,1,2.47,2.481A2.475,2.475,0,0,1,356.72,6403.7Zm-9.93,0a2.479,2.479,0,1,1,2.479,2.481A2.479,2.479,0,0,1,346.79,6403.7Zm-9.94,0a2.48,2.48,0,1,1,2.479,2.481A2.479,2.479,0,0,1,336.85,6403.7Zm-9.909,0a2.47,2.47,0,1,1,2.47,2.481A2.475,2.475,0,0,1,326.941,6403.7Zm-9.942,0a2.48,2.48,0,1,1,2.481,2.481A2.48,2.48,0,0,1,317,6403.7Zm129.042-9.931a2.48,2.48,0,1,1,2.479,2.481A2.479,2.479,0,0,1,446.041,6393.77Zm-9.921,0a2.47,2.47,0,1,1,2.471,2.481A2.475,2.475,0,0,1,436.12,6393.77Zm-9.93,0a2.48,2.48,0,1,1,2.481,2.481A2.48,2.48,0,0,1,426.19,6393.77Zm-9.94,0a2.48,2.48,0,1,1,2.481,2.481A2.479,2.479,0,0,1,416.25,6393.77Zm-9.909,0a2.471,2.471,0,1,1,2.47,2.481A2.474,2.474,0,0,1,406.34,6393.77Zm-9.93,0a2.48,2.48,0,1,1,2.479,2.481A2.48,2.48,0,0,1,396.41,6393.77Zm-9.94,0a2.48,2.48,0,1,1,2.481,2.481A2.48,2.48,0,0,1,386.47,6393.77Zm-9.9,0a2.48,2.48,0,1,1,2.481,2.481A2.48,2.48,0,0,1,376.57,6393.77Zm-9.94,0a2.48,2.48,0,1,1,2.481,2.481A2.479,2.479,0,0,1,366.63,6393.77Zm-9.909,0a2.471,2.471,0,1,1,2.47,2.481A2.474,2.474,0,0,1,356.72,6393.77Zm-9.93,0a2.48,2.48,0,1,1,2.479,2.481A2.479,2.479,0,0,1,346.79,6393.77Zm-9.94,0a2.48,2.48,0,1,1,2.479,2.481A2.48,2.48,0,0,1,336.85,6393.77Zm-9.909,0a2.47,2.47,0,1,1,2.47,2.481A2.474,2.474,0,0,1,326.941,6393.77Zm-9.942,0a2.48,2.48,0,1,1,2.481,2.481A2.48,2.48,0,0,1,317,6393.77Zm129.04-9.94a2.48,2.48,0,1,1,2.481,2.481A2.48,2.48,0,0,1,446.039,6383.83Zm-9.919,0a2.47,2.47,0,1,1,2.47,2.481A2.475,2.475,0,0,1,436.12,6383.83Zm-9.93,0a2.48,2.48,0,1,1,2.481,2.481A2.48,2.48,0,0,1,426.19,6383.83Zm-9.94,0a2.48,2.48,0,1,1,2.481,2.481A2.48,2.48,0,0,1,416.25,6383.83Zm-9.909,0a2.47,2.47,0,1,1,2.47,2.481A2.474,2.474,0,0,1,406.34,6383.83Zm-9.93,0a2.48,2.48,0,1,1,2.481,2.481A2.479,2.479,0,0,1,396.41,6383.83Zm-9.94,0a2.48,2.48,0,1,1,2.479,2.481A2.48,2.48,0,0,1,386.47,6383.83Zm-9.9,0a2.48,2.48,0,1,1,2.479,2.481A2.48,2.48,0,0,1,376.57,6383.83Zm-9.94,0a2.48,2.48,0,1,1,2.481,2.481A2.48,2.48,0,0,1,366.63,6383.83Zm-9.909,0a2.47,2.47,0,1,1,2.47,2.481A2.474,2.474,0,0,1,356.72,6383.83Zm-9.932,0a2.481,2.481,0,1,1,2.483,2.481A2.481,2.481,0,0,1,346.788,6383.83Zm-9.938,0a2.479,2.479,0,1,1,2.479,2.481A2.479,2.479,0,0,1,336.85,6383.83Zm-9.909,0a2.47,2.47,0,1,1,2.47,2.481A2.474,2.474,0,0,1,326.941,6383.83Zm-9.94,0a2.479,2.479,0,1,1,2.479,2.481A2.479,2.479,0,0,1,317,6383.83Zm129.04-9.94a2.479,2.479,0,1,1,2.479,2.481A2.479,2.479,0,0,1,446.041,6373.89Zm-9.921,0a2.47,2.47,0,1,1,2.47,2.481A2.475,2.475,0,0,1,436.12,6373.89Zm-9.93,0a2.48,2.48,0,1,1,2.481,2.481A2.48,2.48,0,0,1,426.19,6373.89Zm-9.94,0a2.48,2.48,0,1,1,2.481,2.481A2.48,2.48,0,0,1,416.25,6373.89Zm-9.909,0a2.471,2.471,0,1,1,2.47,2.481A2.475,2.475,0,0,1,406.34,6373.89Zm-9.93,0a2.48,2.48,0,1,1,2.481,2.481A2.479,2.479,0,0,1,396.41,6373.89Zm-9.94,0a2.48,2.48,0,1,1,2.481,2.481A2.48,2.48,0,0,1,386.47,6373.89Zm-9.9,0a2.48,2.48,0,1,1,2.479,2.481A2.479,2.479,0,0,1,376.57,6373.89Zm-9.94,0a2.48,2.48,0,1,1,2.481,2.481A2.48,2.48,0,0,1,366.63,6373.89Zm-9.909,0a2.47,2.47,0,1,1,2.47,2.481A2.474,2.474,0,0,1,356.72,6373.89Zm-9.93,0a2.479,2.479,0,1,1,2.481,2.481A2.48,2.48,0,0,1,346.79,6373.89Zm-9.94,0a2.48,2.48,0,1,1,2.479,2.481A2.479,2.479,0,0,1,336.85,6373.89Zm-9.909,0a2.47,2.47,0,1,1,2.47,2.481A2.475,2.475,0,0,1,326.941,6373.89Zm-9.94,0a2.48,2.48,0,1,1,2.479,2.481A2.479,2.479,0,0,1,317,6373.89Zm129.039-9.94a2.48,2.48,0,1,1,2.481,2.481A2.48,2.48,0,0,1,446.039,6363.95Zm-9.919,0a2.47,2.47,0,1,1,2.47,2.481A2.474,2.474,0,0,1,436.12,6363.95Zm-9.929,0a2.479,2.479,0,1,1,2.479,2.481A2.478,2.478,0,0,1,426.191,6363.95Zm-9.942,0a2.48,2.48,0,1,1,2.481,2.481A2.479,2.479,0,0,1,416.25,6363.95Zm-9.909,0a2.471,2.471,0,1,1,2.47,2.481A2.473,2.473,0,0,1,406.34,6363.95Zm-9.93,0a2.48,2.48,0,1,1,2.479,2.481A2.48,2.48,0,0,1,396.41,6363.95Zm-9.94,0a2.48,2.48,0,1,1,2.481,2.481A2.48,2.48,0,0,1,386.47,6363.95Zm-9.9,0a2.48,2.48,0,1,1,2.481,2.481A2.48,2.48,0,0,1,376.57,6363.95Zm-9.94,0a2.48,2.48,0,1,1,2.481,2.481A2.479,2.479,0,0,1,366.63,6363.95Zm-9.909,0a2.47,2.47,0,1,1,2.47,2.481A2.473,2.473,0,0,1,356.72,6363.95Zm-9.93,0a2.479,2.479,0,1,1,2.479,2.481A2.479,2.479,0,0,1,346.79,6363.95Zm-9.94,0a2.48,2.48,0,1,1,2.479,2.481A2.48,2.48,0,0,1,336.85,6363.95Zm-9.911,0a2.471,2.471,0,1,1,2.47,2.481A2.476,2.476,0,0,1,326.939,6363.95Zm-9.94,0a2.481,2.481,0,1,1,2.481,2.481A2.48,2.48,0,0,1,317,6363.95Zm129.04-9.95a2.48,2.48,0,1,1,2.481,2.5A2.49,2.49,0,0,1,446.039,6354Zm-9.919,0a2.471,2.471,0,1,1,2.47,2.5A2.484,2.484,0,0,1,436.12,6354Zm-9.93,0a2.48,2.48,0,1,1,2.481,2.5A2.488,2.488,0,0,1,426.19,6354Zm-9.94,0a2.481,2.481,0,1,1,2.481,2.5A2.488,2.488,0,0,1,416.25,6354Zm-9.909,0a2.47,2.47,0,1,1,2.471,2.5A2.483,2.483,0,0,1,406.34,6354Zm-9.929,0a2.479,2.479,0,1,1,2.478,2.5A2.488,2.488,0,0,1,396.411,6354Zm-9.94,0a2.479,2.479,0,1,1,2.478,2.5A2.488,2.488,0,0,1,386.471,6354Zm-9.9,0a2.48,2.48,0,1,1,2.479,2.5A2.489,2.489,0,0,1,376.57,6354Zm-9.94,0a2.48,2.48,0,1,1,2.481,2.5A2.49,2.49,0,0,1,366.63,6354Zm-9.909,0a2.47,2.47,0,1,1,2.47,2.5A2.483,2.483,0,0,1,356.72,6354Zm-9.93,0a2.479,2.479,0,1,1,2.481,2.5A2.488,2.488,0,0,1,346.79,6354Zm-9.94,0a2.479,2.479,0,1,1,2.481,2.5A2.488,2.488,0,0,1,336.85,6354Zm-9.911,0a2.471,2.471,0,1,1,2.47,2.5A2.484,2.484,0,0,1,326.939,6354Zm-9.94,0a2.48,2.48,0,1,1,2.481,2.5A2.49,2.49,0,0,1,317,6354Zm129.042-9.95a2.48,2.48,0,1,1,2.479,2.479A2.48,2.48,0,0,1,446.041,6344.05Zm-9.921,0a2.47,2.47,0,1,1,2.47,2.479A2.476,2.476,0,0,1,436.12,6344.05Zm-9.93,0a2.48,2.48,0,1,1,2.481,2.479A2.482,2.482,0,0,1,426.19,6344.05Zm-9.94,0a2.48,2.48,0,1,1,2.479,2.479A2.48,2.48,0,0,1,416.25,6344.05Zm-9.909,0a2.47,2.47,0,1,1,2.47,2.479A2.476,2.476,0,0,1,406.34,6344.05Zm-9.93,0a2.48,2.48,0,1,1,2.481,2.479A2.481,2.481,0,0,1,396.41,6344.05Zm-9.94,0a2.48,2.48,0,1,1,2.479,2.479A2.48,2.48,0,0,1,386.47,6344.05Zm-9.9,0a2.48,2.48,0,1,1,2.481,2.479A2.482,2.482,0,0,1,376.57,6344.05Zm-9.94,0a2.48,2.48,0,1,1,2.479,2.479A2.48,2.48,0,0,1,366.63,6344.05Zm-9.909,0a2.47,2.47,0,1,1,2.47,2.479A2.475,2.475,0,0,1,356.72,6344.05Zm-9.93,0a2.48,2.48,0,1,1,2.481,2.479A2.482,2.482,0,0,1,346.79,6344.05Zm-9.94,0a2.48,2.48,0,1,1,2.479,2.479A2.48,2.48,0,0,1,336.85,6344.05Zm-9.909,0a2.47,2.47,0,1,1,2.47,2.479A2.475,2.475,0,0,1,326.941,6344.05Zm-9.942,0a2.48,2.48,0,1,1,2.481,2.479A2.483,2.483,0,0,1,317,6344.05Zm129.042-9.94a2.48,2.48,0,1,1,2.479,2.479A2.48,2.48,0,0,1,446.041,6334.11Zm-9.921,0a2.47,2.47,0,1,1,2.47,2.479A2.475,2.475,0,0,1,436.12,6334.11Zm-9.929,0a2.479,2.479,0,1,1,2.478,2.479A2.48,2.48,0,0,1,426.191,6334.11Zm-9.942,0a2.48,2.48,0,1,1,2.481,2.479A2.481,2.481,0,0,1,416.25,6334.11Zm-9.909,0a2.47,2.47,0,1,1,2.47,2.479A2.476,2.476,0,0,1,406.34,6334.11Zm-9.93,0a2.48,2.48,0,1,1,2.481,2.479A2.482,2.482,0,0,1,396.41,6334.11Zm-9.94,0a2.48,2.48,0,1,1,2.479,2.479A2.481,2.481,0,0,1,386.47,6334.11Zm-9.9,0a2.48,2.48,0,1,1,2.479,2.479A2.481,2.481,0,0,1,376.57,6334.11Zm-9.94,0a2.48,2.48,0,1,1,2.481,2.479A2.481,2.481,0,0,1,366.63,6334.11Zm-9.911,0a2.471,2.471,0,1,1,2.471,2.479A2.478,2.478,0,0,1,356.719,6334.11Zm-9.929,0a2.48,2.48,0,1,1,2.481,2.479A2.481,2.481,0,0,1,346.79,6334.11Zm-9.94,0a2.48,2.48,0,1,1,2.479,2.479A2.48,2.48,0,0,1,336.85,6334.11Zm-9.909,0a2.47,2.47,0,1,1,2.47,2.479A2.476,2.476,0,0,1,326.941,6334.11Zm-9.94,0a2.48,2.48,0,1,1,2.479,2.479A2.48,2.48,0,0,1,317,6334.11Zm129.039-9.94a2.48,2.48,0,1,1,2.481,2.481A2.48,2.48,0,0,1,446.039,6324.17Zm-9.919,0a2.47,2.47,0,1,1,2.47,2.481A2.473,2.473,0,0,1,436.12,6324.17Zm-9.93,0a2.48,2.48,0,1,1,2.481,2.481A2.48,2.48,0,0,1,426.19,6324.17Zm-9.94,0a2.48,2.48,0,1,1,2.479,2.481A2.48,2.48,0,0,1,416.25,6324.17Zm-9.909,0a2.47,2.47,0,1,1,2.47,2.481A2.474,2.474,0,0,1,406.34,6324.17Zm-9.93,0a2.48,2.48,0,1,1,2.481,2.481A2.479,2.479,0,0,1,396.41,6324.17Zm-9.938,0a2.479,2.479,0,1,1,2.479,2.481A2.479,2.479,0,0,1,386.471,6324.17Zm-9.9,0a2.479,2.479,0,1,1,2.481,2.481A2.48,2.48,0,0,1,376.57,6324.17Zm-9.94,0a2.48,2.48,0,1,1,2.479,2.481A2.48,2.48,0,0,1,366.63,6324.17Zm-9.909,0a2.47,2.47,0,1,1,2.468,2.481A2.473,2.473,0,0,1,356.72,6324.17Zm-9.93,0a2.48,2.48,0,1,1,2.481,2.481A2.479,2.479,0,0,1,346.79,6324.17Zm-9.94,0a2.479,2.479,0,1,1,2.479,2.481A2.48,2.48,0,0,1,336.85,6324.17Zm-9.909,0a2.47,2.47,0,1,1,2.47,2.481A2.474,2.474,0,0,1,326.941,6324.17Zm-9.94,0a2.48,2.48,0,1,1,2.479,2.481A2.479,2.479,0,0,1,317,6324.17Zm129.04-9.938a2.479,2.479,0,1,1,2.479,2.478A2.479,2.479,0,0,1,446.041,6314.231Zm-9.921,0a2.47,2.47,0,1,1,2.47,2.478A2.475,2.475,0,0,1,436.12,6314.231Zm-9.93,0a2.48,2.48,0,1,1,2.481,2.478A2.481,2.481,0,0,1,426.19,6314.231Zm-9.94,0a2.48,2.48,0,1,1,2.479,2.478A2.479,2.479,0,0,1,416.25,6314.231Zm-9.909,0a2.47,2.47,0,1,1,2.47,2.478A2.474,2.474,0,0,1,406.34,6314.231Zm-9.93,0a2.48,2.48,0,1,1,2.479,2.478A2.479,2.479,0,0,1,396.41,6314.231Zm-9.94,0a2.48,2.48,0,1,1,2.479,2.478A2.479,2.479,0,0,1,386.47,6314.231Zm-9.9,0a2.48,2.48,0,1,1,2.479,2.478A2.479,2.479,0,0,1,376.57,6314.231Zm-9.94,0a2.479,2.479,0,1,1,2.479,2.478A2.479,2.479,0,0,1,366.63,6314.231Zm-9.911,0a2.471,2.471,0,1,1,2.47,2.478A2.475,2.475,0,0,1,356.719,6314.231Zm-9.929,0a2.479,2.479,0,1,1,2.479,2.478A2.479,2.479,0,0,1,346.79,6314.231Zm-9.94,0a2.48,2.48,0,1,1,2.481,2.478A2.481,2.481,0,0,1,336.85,6314.231Zm-9.911,0a2.471,2.471,0,1,1,2.471,2.478A2.477,2.477,0,0,1,326.939,6314.231Zm-9.938,0a2.48,2.48,0,1,1,2.479,2.478A2.479,2.479,0,0,1,317,6314.231Zm129.04-9.932a2.479,2.479,0,1,1,2.479,2.479A2.48,2.48,0,0,1,446.041,6304.3Zm-9.921,0a2.47,2.47,0,1,1,2.47,2.479A2.476,2.476,0,0,1,436.12,6304.3Zm-9.93,0a2.48,2.48,0,1,1,2.479,2.479A2.481,2.481,0,0,1,426.19,6304.3Zm-9.94,0a2.48,2.48,0,1,1,2.479,2.479A2.481,2.481,0,0,1,416.25,6304.3Zm-9.909,0a2.47,2.47,0,1,1,2.47,2.479A2.476,2.476,0,0,1,406.34,6304.3Zm-9.929,0a2.479,2.479,0,1,1,2.478,2.479A2.479,2.479,0,0,1,396.411,6304.3Zm-9.94,0a2.479,2.479,0,1,1,2.478,2.479A2.48,2.48,0,0,1,386.471,6304.3Zm-9.9,0a2.48,2.48,0,1,1,2.481,2.479A2.48,2.48,0,0,1,376.57,6304.3Zm-9.94,0a2.479,2.479,0,1,1,2.481,2.479A2.48,2.48,0,0,1,366.63,6304.3Zm-9.909,0a2.47,2.47,0,1,1,2.47,2.479A2.475,2.475,0,0,1,356.72,6304.3Zm-9.93,0a2.48,2.48,0,1,1,2.481,2.479A2.48,2.48,0,0,1,346.79,6304.3Zm-9.94,0a2.48,2.48,0,1,1,2.481,2.479A2.48,2.48,0,0,1,336.85,6304.3Zm-9.909,0a2.47,2.47,0,1,1,2.468,2.479A2.476,2.476,0,0,1,326.941,6304.3Zm-9.94,0a2.48,2.48,0,1,1,2.479,2.479A2.48,2.48,0,0,1,317,6304.3Zm129.039-9.938a2.48,2.48,0,1,1,2.481,2.479A2.48,2.48,0,0,1,446.039,6294.361Zm-9.919,0a2.47,2.47,0,1,1,2.47,2.479A2.475,2.475,0,0,1,436.12,6294.361Zm-9.93,0a2.48,2.48,0,1,1,2.481,2.479A2.48,2.48,0,0,1,426.19,6294.361Zm-9.938,0a2.479,2.479,0,1,1,2.479,2.479A2.479,2.479,0,0,1,416.251,6294.361Zm-9.911,0a2.471,2.471,0,1,1,2.471,2.479A2.474,2.474,0,0,1,406.34,6294.361Zm-9.93,0a2.48,2.48,0,1,1,2.479,2.479A2.48,2.48,0,0,1,396.41,6294.361Zm-9.94,0a2.48,2.48,0,1,1,2.479,2.479A2.48,2.48,0,0,1,386.47,6294.361Zm-9.9,0a2.48,2.48,0,1,1,2.481,2.479A2.479,2.479,0,0,1,376.57,6294.361Zm-9.94,0a2.48,2.48,0,1,1,2.481,2.479A2.479,2.479,0,0,1,366.63,6294.361Zm-9.911,0a2.471,2.471,0,1,1,2.47,2.479A2.475,2.475,0,0,1,356.719,6294.361Zm-9.929,0a2.479,2.479,0,1,1,2.479,2.479A2.479,2.479,0,0,1,346.79,6294.361Zm-9.94,0a2.48,2.48,0,1,1,2.479,2.479A2.479,2.479,0,0,1,336.85,6294.361Zm-9.909,0a2.47,2.47,0,1,1,2.47,2.479A2.475,2.475,0,0,1,326.941,6294.361Zm-9.94,0a2.48,2.48,0,1,1,2.479,2.479A2.479,2.479,0,0,1,317,6294.361Zm129.04-9.942a2.479,2.479,0,1,1,2.478,2.481A2.479,2.479,0,0,1,446.041,6284.419Zm-9.921,0a2.47,2.47,0,1,1,2.47,2.481A2.474,2.474,0,0,1,436.12,6284.419Zm-9.93,0a2.48,2.48,0,1,1,2.481,2.481A2.48,2.48,0,0,1,426.19,6284.419Zm-9.94,0a2.48,2.48,0,1,1,2.481,2.481A2.48,2.48,0,0,1,416.25,6284.419Zm-9.909,0a2.47,2.47,0,1,1,2.471,2.481A2.475,2.475,0,0,1,406.34,6284.419Zm-9.929,0a2.479,2.479,0,1,1,2.478,2.481A2.478,2.478,0,0,1,396.411,6284.419Zm-9.94,0a2.479,2.479,0,1,1,2.478,2.481A2.478,2.478,0,0,1,386.471,6284.419Zm-9.9,0a2.48,2.48,0,1,1,2.479,2.481A2.48,2.48,0,0,1,376.57,6284.419Zm-9.94,0a2.48,2.48,0,1,1,2.479,2.481A2.48,2.48,0,0,1,366.63,6284.419Zm-9.911,0a2.471,2.471,0,1,1,2.471,2.481A2.475,2.475,0,0,1,356.719,6284.419Zm-9.929,0a2.479,2.479,0,1,1,2.481,2.481A2.48,2.48,0,0,1,346.79,6284.419Zm-9.94,0a2.48,2.48,0,1,1,2.481,2.481A2.48,2.48,0,0,1,336.85,6284.419Zm-9.909,0a2.47,2.47,0,1,1,2.468,2.481A2.474,2.474,0,0,1,326.941,6284.419Zm-9.94,0a2.48,2.48,0,1,1,2.479,2.481A2.479,2.479,0,0,1,317,6284.419Zm129.039-9.938a2.48,2.48,0,1,1,2.481,2.479A2.482,2.482,0,0,1,446.039,6274.481Zm-9.919,0a2.47,2.47,0,1,1,2.47,2.479A2.475,2.475,0,0,1,436.12,6274.481Zm-9.929,0a2.479,2.479,0,1,1,2.479,2.479A2.48,2.48,0,0,1,426.191,6274.481Zm-9.94,0a2.479,2.479,0,1,1,2.479,2.479A2.481,2.481,0,0,1,416.251,6274.481Zm-9.911,0a2.47,2.47,0,1,1,2.47,2.479A2.476,2.476,0,0,1,406.34,6274.481Zm-9.93,0a2.48,2.48,0,1,1,2.481,2.479A2.481,2.481,0,0,1,396.41,6274.481Zm-9.938,0a2.479,2.479,0,1,1,2.479,2.479A2.48,2.48,0,0,1,386.471,6274.481Zm-9.9,0a2.48,2.48,0,1,1,2.479,2.479A2.482,2.482,0,0,1,376.57,6274.481Zm-9.94,0a2.48,2.48,0,1,1,2.481,2.479A2.481,2.481,0,0,1,366.63,6274.481Zm-9.911,0a2.471,2.471,0,1,1,2.471,2.479A2.477,2.477,0,0,1,356.719,6274.481Zm-9.929,0a2.479,2.479,0,1,1,2.479,2.479A2.482,2.482,0,0,1,346.79,6274.481Zm-9.94,0a2.48,2.48,0,1,1,2.479,2.479A2.482,2.482,0,0,1,336.85,6274.481Zm-9.911,0a2.471,2.471,0,1,1,2.471,2.479A2.477,2.477,0,0,1,326.939,6274.481Zm-9.94,0a2.481,2.481,0,1,1,2.481,2.479A2.482,2.482,0,0,1,317,6274.481Z" fill="#eae9f4"/>
  </g>
</svg>
