<svg xmlns="http://www.w3.org/2000/svg" width="40.3" height="40.1" viewBox="0 0 40.3 40.1">
  <g id="Group_49" data-name="Group 49" transform="translate(-25.9 -25.9)">
    <path id="Path_203" data-name="Path 203" d="M43.3,60.5V50.3a.684.684,0,0,0-.7-.7H38.3a.7.7,0,1,0,0,1.4h3.5v9.5a2.685,2.685,0,0,0-2.1,2.7A2.8,2.8,0,0,0,42.5,66a2.862,2.862,0,0,0,2.8-2.8A2.51,2.51,0,0,0,43.3,60.5Zm.7,2.7a1.4,1.4,0,1,1-1.4-1.4A1.43,1.43,0,0,1,44,63.2Z" fill="#6051e7"/>
    <path id="Path_204" data-name="Path 204" d="M50.1,60.5V50.3a.684.684,0,0,0-.7-.7H45.1a.7.7,0,0,0,0,1.4h3.5v9.5a2.685,2.685,0,0,0-2.1,2.7A2.8,2.8,0,0,0,49.3,66a2.862,2.862,0,0,0,2.8-2.8A2.51,2.51,0,0,0,50.1,60.5Zm.7,2.7a1.4,1.4,0,1,1-1.4-1.4A1.43,1.43,0,0,1,50.8,63.2Z" fill="#6051e7"/>
    <path id="Path_205" data-name="Path 205" d="M60.9,56.1a2.791,2.791,0,0,0-2.7,2.1H57v-8a.684.684,0,0,0-.7-.7H52a.7.7,0,0,0,0,1.4h3.5v8a.684.684,0,0,0,.7.7h1.9a2.685,2.685,0,0,0,2.7,2.1,2.8,2.8,0,0,0,2.8-2.8A2.711,2.711,0,0,0,60.9,56.1ZM62.3,59a1.4,1.4,0,1,1-1.4-1.4A1.367,1.367,0,0,1,62.3,59Z" fill="#6051e7"/>
    <path id="Path_206" data-name="Path 206" d="M64.5,39.7a6.431,6.431,0,0,0-3.3-2.3,12.323,12.323,0,0,0-3.6-8A11.931,11.931,0,0,0,49,25.9a12.082,12.082,0,0,0-10.3,5.8,4.4,4.4,0,0,0-1.6-.2,5.657,5.657,0,0,0-5.5,4.4,7.736,7.736,0,0,0,2,15.2H35v7.2H33.8a2.685,2.685,0,0,0-2.7-2.1A2.8,2.8,0,0,0,28.3,59a2.862,2.862,0,0,0,2.8,2.8,2.791,2.791,0,0,0,2.7-2.1h1.9a.684.684,0,0,0,.7-.7V50.3a.684.684,0,0,0-.7-.7H33.6a6.308,6.308,0,0,1-1.2-12.5.9.9,0,0,0,.6-.6,4.107,4.107,0,0,1,4.1-3.6,5.079,5.079,0,0,1,1.7.3.806.806,0,0,0,.9-.3A10.731,10.731,0,0,1,59.8,38a.73.73,0,0,0,.6.7,5.561,5.561,0,0,1,4.3,5.4,5.484,5.484,0,0,1-5.5,5.5h-.3a.7.7,0,0,0,0,1.4h.3a7.02,7.02,0,0,0,7-7A7.7,7.7,0,0,0,64.5,39.7ZM32.5,59a1.4,1.4,0,1,1-1.4-1.4A1.367,1.367,0,0,1,32.5,59Z" fill="#6051e7"/>
    <path id="Path_207" data-name="Path 207" d="M55.9,35.4a7.512,7.512,0,0,1,.5,2.6.684.684,0,0,0,.7.7h0a.684.684,0,0,0,.7-.7,8.149,8.149,0,0,0-.6-3.1.781.781,0,0,0-.4-.4.446.446,0,0,0-.5,0,.781.781,0,0,0-.4.4A.446.446,0,0,0,55.9,35.4Z" fill="#6051e7"/>
    <path id="Path_208" data-name="Path 208" d="M49.1,29.3a.7.7,0,1,0,0,1.4,7.21,7.21,0,0,1,5.6,2.7.6.6,0,0,0,.6.3c.2,0,.3-.1.5-.2a.769.769,0,0,0,.1-1A9,9,0,0,0,49.1,29.3Z" fill="#6051e7"/>
  </g>
</svg>
