<svg xmlns="http://www.w3.org/2000/svg" width="26" height="41" viewBox="0 0 26 41">
  <g id="mobile-application" transform="translate(-33 -25.5)">
    <g id="Group_50" data-name="Group 50">
      <path id="Path_210" data-name="Path 210" d="M56,25.5H36a3.031,3.031,0,0,0-3,3.1V63.4a3.1,3.1,0,0,0,3,3.1H56a3.031,3.031,0,0,0,3-3.1V28.6A3.1,3.1,0,0,0,56,25.5ZM36,27.2H56a1.367,1.367,0,0,1,1.4,1.4v3H34.7v-3A1.347,1.347,0,0,1,36,27.2Zm17.8,31H38.2V55.8a5.79,5.79,0,0,1,4.2-5.6L45.2,57a.872.872,0,0,0,1.6,0l2.8-7.1a6.392,6.392,0,0,1,4.2,5.9v2.4ZM49.2,48.1a.8.8,0,0,0-.9.5L46,54.4l-2.3-5.6a.874.874,0,0,0-.9-.5,7.7,7.7,0,0,0-6.2,7.5v2.4H34.7V33.3H57.3V58.2H55.4V55.8A7.732,7.732,0,0,0,49.2,48.1ZM56,64.8H36a1.367,1.367,0,0,1-1.4-1.4V59.8H57.2v3.6A1.215,1.215,0,0,1,56,64.8Z" fill="#6051e7"/>
      <path id="Path_211" data-name="Path 211" d="M46.3,61.1h-.6c-.5,0-.8.3-.8.9a.817.817,0,0,0,.8.9h.6c.5,0,.8-.3.8-.9A.765.765,0,0,0,46.3,61.1Z" fill="#6051e7"/>
      <path id="Path_212" data-name="Path 212" d="M44.4,30.2h3.1c.5,0,.8-.3.8-.9a.817.817,0,0,0-.8-.9H44.4c-.5,0-.8.3-.8.9A.818.818,0,0,0,44.4,30.2Z" fill="#6051e7"/>
      <path id="Path_213" data-name="Path 213" d="M44.8,36.4a4.6,4.6,0,0,0-3.5,4.5c0,2.2,1.8,6.6,4.6,6.6s4.6-4.3,4.6-6.6A4.72,4.72,0,0,0,44.8,36.4Zm1.1,9.3c-1.4,0-2.9-2.9-2.9-4.9A2.726,2.726,0,0,1,45.2,38a2.8,2.8,0,0,1,3.5,2.8C48.8,42.8,47.2,45.7,45.9,45.7Z" fill="#6051e7"/>
      <path id="Path_214" data-name="Path 214" d="M51.6,53.9a.817.817,0,0,0-.8-.9c-.5,0-.8.3-.8.9v.6h-.6c-.5,0-.8.3-.8.9a.817.817,0,0,0,.8.9H50v.6a.817.817,0,0,0,.8.9c.5,0,.8-.3.8-.9v-.6h.6c.5,0,.8-.3.8-.9a.817.817,0,0,0-.8-.9h-.6v-.6Z" fill="#6051e7"/>
    </g>
  </g>
</svg>
