<?xml version="1.0" encoding="utf-8"?>
<!-- Generator: Adobe Illustrator 21.0.0, SVG Export Plug-In . SVG Version: 6.00 Build 0)  -->
<svg version="1.1" id="Layer_1" xmlns="http://www.w3.org/2000/svg" xmlns:xlink="http://www.w3.org/1999/xlink" x="0px" y="0px"
	 width="17px" height="13px" viewBox="0 0 17 13" style="enable-background:new 0 0 17 13;" xml:space="preserve">
<style type="text/css">
	.st0{fill-rule:evenodd;clip-rule:evenodd;fill:#999999;}
</style>
<path class="st0" d="M0.3,5.8l5.6-5.5c0.4-0.4,1.1-0.4,1.5,0c0.4,0.4,0.4,1,0,1.4L3.5,5.5H16c0.6,0,1,0.5,1,1c0,0.6-0.5,1-1,1H3.5
	l3.8,3.8c0.4,0.4,0.4,1,0,1.4C7.2,12.9,6.9,13,6.6,13c-0.3,0-0.5-0.1-0.7-0.3L0.3,7.2C-0.1,6.8-0.1,6.2,0.3,5.8z"/>
</svg>
