<?xml version="1.0" encoding="utf-8"?>
<!-- Generator: Adobe Illustrator 21.0.0, SVG Export Plug-In . SVG Version: 6.00 Build 0)  -->
<svg version="1.1" id="Layer_1" xmlns="http://www.w3.org/2000/svg" xmlns:xlink="http://www.w3.org/1999/xlink" x="0px" y="0px"
	 width="146px" height="146px" viewBox="0 0 146 146" style="enable-background:new 0 0 146 146;" xml:space="preserve">
<style type="text/css">
	.st0{fill:url(#SVGID_1_);}
	.st1{fill:#FFFFFF;}
</style>
<g>
	
		<linearGradient id="SVGID_1_" gradientUnits="userSpaceOnUse" x1="0" y1="74.28" x2="146" y2="74.28" gradientTransform="matrix(1 0 0 -1 0 147.28)">
		<stop  offset="0" style="stop-color:#6148DA"/>
		<stop  offset="1" style="stop-color:#6051E7"/>
	</linearGradient>
	<circle class="st0" cx="73" cy="73" r="73"/>
	<path class="st1" d="M57,88.3c-0.3,0.2-1.2,0.4-1.7-0.1l-0.9-1.2c-0.5-0.8,0.1-1.5,0.5-1.8c1.7-1.4,2.9-2.5,3.7-3.3
		c1.5-1.6,2.6-3.2,3.4-4.8c0.2-0.4-0.3-0.6-0.5-0.7c-5.6-1.8-8.4-5.1-8.4-9.7c0-2.7,0.9-4.9,2.7-6.7c1.8-1.7,4.1-2.6,6.8-2.6
		c2.4,0,4.6,1.1,6.5,3.3c1.8,2.1,2.7,4.4,2.7,6.8C71.7,74.7,66.8,81.6,57,88.3z M78.3,88.3c-0.3,0.2-1.2,0.4-1.7-0.1l-0.9-1.2
		c-0.5-0.8,0.1-1.5,0.5-1.8c1.7-1.4,2.9-2.5,3.7-3.3c1.5-1.6,2.6-3.2,3.4-4.8c0.2-0.4-0.3-0.6-0.5-0.7c-5.6-1.8-8.4-5.1-8.4-9.7
		c0-2.7,0.9-4.9,2.7-6.7c1.8-1.7,4.1-2.6,6.8-2.6c2.4,0,4.6,1.1,6.5,3.3c1.8,2.1,2.7,4.4,2.7,6.8C93,74.7,88.1,81.6,78.3,88.3z"/>
</g>
</svg>
