<?xml version="1.0" encoding="utf-8"?>
<!-- Generator: Adobe Illustrator 21.0.0, SVG Export Plug-In . SVG Version: 6.00 Build 0)  -->
<svg version="1.1" id="Layer_1" xmlns="http://www.w3.org/2000/svg" xmlns:xlink="http://www.w3.org/1999/xlink" x="0px" y="0px"
	 width="76px" height="20px" viewBox="0 0 76 20" style="enable-background:new 0 0 76 20;" xml:space="preserve">
<style type="text/css">
	.st0{fill-rule:evenodd;clip-rule:evenodd;fill:#221F1F;}
</style>
<path class="st0" d="M75.5,8.9l-8.9-8.4c-0.6-0.6-1.7-0.6-2.3,0c-0.6,0.6-0.6,1.6,0,2.2l6.1,5.8H1.6C0.7,8.4,0,9.1,0,10
	c0,0.9,0.7,1.6,1.6,1.6h68.8l-6.1,5.8c-0.6,0.6-0.6,1.6,0,2.2c0.3,0.3,0.7,0.5,1.2,0.5c0.4,0,0.8-0.2,1.2-0.5l8.9-8.4
	C76.2,10.5,76.2,9.5,75.5,8.9z"/>
</svg>
