<?xml version="1.0" encoding="utf-8"?>
<!-- Generator: Adobe Illustrator 21.0.0, SVG Export Plug-In . SVG Version: 6.00 Build 0)  -->
<svg version="1.1" id="Layer_1" xmlns="http://www.w3.org/2000/svg" xmlns:xlink="http://www.w3.org/1999/xlink" x="0px" y="0px"
	 width="13px" height="10px" viewBox="0 0 13 10" style="enable-background:new 0 0 13 10;" xml:space="preserve">
<style type="text/css">
	.st0{fill:#6051E7;}
</style>
<g>
	<path class="st0" d="M12.8,4.4L8.5,0.2c-0.3-0.3-0.8-0.3-1.1,0C7.1,0.5,7.1,1,7.4,1.3l2.9,2.9H0.8C0.4,4.2,0,4.6,0,5
		s0.4,0.8,0.8,0.8h9.5L7.4,8.7C7.1,9,7.1,9.5,7.4,9.8C7.5,9.9,7.7,10,7.9,10s0.4-0.1,0.6-0.2l4.3-4.2C13.1,5.2,13.1,4.8,12.8,4.4z"
		/>
</g>
</svg>
