<?xml version="1.0" encoding="utf-8"?>
<!-- Generator: Adobe Illustrator 21.0.0, SVG Export Plug-In . SVG Version: 6.00 Build 0)  -->
<svg version="1.1" id="Layer_1" xmlns="http://www.w3.org/2000/svg" xmlns:xlink="http://www.w3.org/1999/xlink" x="0px" y="0px"
	 width="163.21px" height="34px" viewBox="0 0 163.21 34" enable-background="new 0 0 163.21 34" xml:space="preserve">
<g>
	<g>
		<path fill="#231F20" d="M15.876,18.982c-1.39,0.007-2.577-0.475-3.559-1.447c-0.982-0.972-1.476-2.161-1.483-3.569
			c-0.007-1.374,0.475-2.552,1.447-3.534c0.955-0.998,2.137-1.501,3.544-1.508l9.338-0.048l0.014,2.881l-9.338,0.048
			c-0.298,0.001-0.579,0.057-0.843,0.166c-0.264,0.109-0.495,0.263-0.693,0.463c-0.198,0.2-0.35,0.432-0.456,0.698
			c-0.107,0.266-0.158,0.539-0.157,0.82c0.003,0.596,0.213,1.109,0.629,1.537c0.416,0.429,0.93,0.641,1.543,0.638l4.296-0.022
			c1.391-0.007,2.577,0.475,3.559,1.447c0.998,0.972,1.501,2.153,1.508,3.543c0.007,1.374-0.484,2.56-1.472,3.559
			c-0.972,0.982-2.153,1.476-3.544,1.483l-9.312,0.048l-0.015-2.881l9.312-0.048c0.298-0.001,0.579-0.056,0.843-0.165
			c0.264-0.109,0.496-0.259,0.693-0.451c0.198-0.191,0.349-0.42,0.456-0.685c0.106-0.265,0.159-0.547,0.157-0.845
			c-0.003-0.579-0.221-1.083-0.654-1.512c-0.416-0.428-0.922-0.641-1.518-0.638L15.876,18.982z"/>
		<linearGradient id="SVGID_1_" gradientUnits="userSpaceOnUse" x1="34.5488" y1="8.419" x2="22.5081" y2="-1.4811">
			<stop  offset="0" style="stop-color:#5E63FF"/>
			<stop  offset="1" style="stop-color:#6148DA"/>
		</linearGradient>
		<polygon fill="url(#SVGID_1_)" points="34.052,0 34.043,0.033 34.052,0.001 34.052,0 34.048,0 33.948,0 29.957,0 20.523,0 
			20.516,0 20.512,0 20.512,2.053 20.512,2.053 20.512,3.943 20.512,4.09 20.512,4.097 20.555,4.097 20.76,4.097 24.888,4.097 
			29.957,4.097 29.957,4.107 29.957,8.846 29.957,12.606 29.957,12.655 29.962,12.655 32.005,12.655 32.387,12.655 34.023,12.655 
			34.027,12.655 34.053,12.655 34.053,6.14 34.053,4.107 34.053,4.097 34.053,3.832 34.053,3.812 34.053,2.321 34.053,2.321 
			34.053,0.001 34.053,0 		"/>
		<polygon fill="#231F20" points="29.957,14.923 29.957,29.903 4.097,29.903 4.097,4.097 15.201,4.097 15.201,4.105 18.261,4.105 
			18.261,0 18.029,0 18.029,0 0.082,0 0.082,0 0,0 0,29.903 0,31.952 0,34 34.053,34 34.053,33.971 34.053,29.903 34.053,14.923 		
			"/>
	</g>
	<g>
		<g>
			<path fill="#231F20" d="M58.915,18.449c-1.152,0.006-2.136-0.394-2.95-1.199c-0.814-0.806-1.223-1.791-1.229-2.958
				c-0.006-1.139,0.394-2.115,1.199-2.929c0.792-0.827,1.771-1.244,2.937-1.25l7.739-0.039l0.012,2.387l-7.739,0.039
				c-0.247,0.001-0.48,0.047-0.699,0.138c-0.219,0.09-0.41,0.218-0.574,0.384c-0.164,0.165-0.29,0.358-0.378,0.578
				c-0.088,0.22-0.131,0.447-0.13,0.68c0.003,0.494,0.176,0.919,0.521,1.274c0.345,0.355,0.771,0.531,1.279,0.529l3.561-0.018
				c1.153-0.006,2.136,0.394,2.949,1.199c0.827,0.805,1.244,1.784,1.25,2.937c0.006,1.139-0.401,2.122-1.22,2.949
				c-0.806,0.814-1.784,1.224-2.937,1.229l-7.718,0.039l-0.012-2.387l7.718-0.039c0.247-0.001,0.48-0.047,0.699-0.137
				c0.219-0.09,0.411-0.215,0.575-0.373c0.164-0.159,0.289-0.348,0.378-0.568c0.088-0.22,0.132-0.453,0.13-0.7
				c-0.002-0.48-0.183-0.898-0.542-1.253c-0.345-0.355-0.764-0.531-1.258-0.529L58.915,18.449z"/>
			<path fill="#231F20" d="M70.728,10.053l11.917-0.061l0.012,2.387l-4.754,0.024L77.963,24.3l-2.387,0.012l-0.061-11.896
				L70.74,12.44L70.728,10.053z"/>
			<path fill="#231F20" d="M95.992,24.208l-2.783-4.74l-4.034,0.02l0.025,4.754l-2.367,0.012L86.761,9.971l7.142-0.036
				c1.303-0.007,2.423,0.454,3.361,1.382c0.938,0.929,1.41,2.045,1.417,3.348c0.005,0.988-0.272,1.888-0.83,2.7
				c-0.545,0.799-1.242,1.372-2.091,1.719l2.969,5.11L95.992,24.208z M93.914,12.322l-4.775,0.024l0.024,4.734l4.775-0.004
				c0.645-0.003,1.199-0.239,1.663-0.708c0.464-0.469,0.695-1.033,0.691-1.691c-0.003-0.645-0.24-1.199-0.708-1.664
				C95.116,12.55,94.559,12.319,93.914,12.322z"/>
			<path fill="#231F20" d="M113.268,21.733l-6.566,0.034l-1.202,2.394l-2.655,0.013l7.069-14.32l7.214,14.247l-2.655,0.014
				L113.268,21.733z M107.864,19.393l4.198-0.021l-2.12-4.188L107.864,19.393z"/>
			<path fill="#231F20" d="M131.177,18.081c0.008,1.646-0.568,3.056-1.728,4.228c-1.174,1.159-2.578,1.742-4.211,1.75
				c-1.619,0.008-3.022-0.561-4.208-1.708c-1.158-1.174-1.742-2.577-1.75-4.21l-0.043-8.336l2.367-0.012l0.043,8.336
				c0.005,0.988,0.352,1.823,1.042,2.506c0.704,0.696,1.549,1.042,2.537,1.037c0.988-0.005,1.823-0.359,2.506-1.062
				c0.709-0.703,1.062-1.542,1.058-2.516l-0.043-8.336l2.387-0.012L131.177,18.081z"/>
			<path fill="#231F20" d="M139.45,18.039c-1.152,0.006-2.136-0.394-2.95-1.199c-0.814-0.806-1.223-1.791-1.229-2.958
				c-0.006-1.139,0.394-2.115,1.199-2.929c0.792-0.827,1.771-1.244,2.937-1.25l7.738-0.039l0.012,2.387l-7.738,0.039
				c-0.247,0.001-0.48,0.047-0.699,0.137c-0.219,0.091-0.41,0.218-0.574,0.384c-0.164,0.165-0.29,0.358-0.378,0.578
				c-0.088,0.22-0.131,0.447-0.13,0.68c0.003,0.494,0.176,0.919,0.521,1.274c0.345,0.355,0.771,0.531,1.279,0.529l3.561-0.018
				c1.153-0.006,2.135,0.394,2.949,1.199c0.827,0.806,1.244,1.784,1.25,2.937c0.006,1.139-0.401,2.122-1.219,2.949
				c-0.806,0.814-1.784,1.224-2.937,1.229l-7.718,0.039l-0.012-2.387l7.718-0.039c0.247-0.001,0.48-0.047,0.699-0.137
				c0.219-0.09,0.411-0.215,0.575-0.373c0.164-0.158,0.289-0.348,0.378-0.568c0.088-0.22,0.132-0.454,0.13-0.701
				c-0.002-0.48-0.183-0.897-0.542-1.253c-0.345-0.355-0.764-0.531-1.258-0.529L139.45,18.039z"/>
			<path fill="#231F20" d="M155.462,17.957c-1.152,0.006-2.136-0.394-2.95-1.199c-0.814-0.806-1.223-1.791-1.229-2.958
				c-0.006-1.139,0.394-2.115,1.199-2.929c0.792-0.827,1.771-1.244,2.937-1.25l7.739-0.039l0.012,2.387l-7.739,0.039
				c-0.247,0.001-0.48,0.047-0.699,0.138c-0.219,0.09-0.41,0.218-0.574,0.384c-0.164,0.165-0.29,0.358-0.378,0.578
				c-0.088,0.22-0.131,0.447-0.13,0.68c0.003,0.494,0.176,0.919,0.521,1.274c0.345,0.355,0.771,0.531,1.279,0.529l3.561-0.018
				c1.153-0.006,2.136,0.394,2.949,1.199c0.827,0.805,1.244,1.784,1.25,2.937c0.006,1.139-0.401,2.122-1.22,2.949
				c-0.806,0.814-1.784,1.224-2.937,1.229l-7.718,0.039l-0.012-2.387l7.718-0.039c0.247-0.001,0.48-0.047,0.699-0.137
				c0.219-0.09,0.411-0.215,0.575-0.373c0.164-0.159,0.289-0.348,0.378-0.568c0.088-0.22,0.132-0.453,0.13-0.7
				c-0.002-0.48-0.183-0.898-0.542-1.253c-0.345-0.355-0.764-0.531-1.258-0.529L155.462,17.957z"/>
		</g>
	</g>
</g>
</svg>
