<?xml version="1.0" encoding="utf-8"?>
<!-- Generator: Adobe Illustrator 21.0.0, SVG Export Plug-In . SVG Version: 6.00 Build 0)  -->
<svg version="1.1" id="Layer_1" xmlns="http://www.w3.org/2000/svg" xmlns:xlink="http://www.w3.org/1999/xlink" x="0px" y="0px"
	 width="19px" height="14px" viewBox="0 0 19 14" style="enable-background:new 0 0 19 14;" xml:space="preserve">
<style type="text/css">
	.st0{fill:#6051E7;}
</style>
<path class="st0" d="M16.7,0H2.3C1,0,0,0.9,0,2.1v9.8C0,13.1,1,14,2.3,14h14.5c1.2,0,2.3-0.9,2.3-2.1V2.1C19,0.9,18,0,16.7,0z
	 M16.7,12.1H2.3c-0.2,0-0.3-0.1-0.3-0.2V3.4l6.6,5.4c0.1,0.1,0.3,0.2,0.5,0.2h1.1c0.2,0,0.3-0.1,0.5-0.2l6.6-5.4v8.5
	C17.1,12,16.9,12.1,16.7,12.1z M9.5,7.1L3.1,1.9h12.7L9.5,7.1z"/>
</svg>
