<?xml version="1.0" encoding="utf-8"?>
<!-- Generator: Adobe Illustrator 21.0.0, SVG Export Plug-In . SVG Version: 6.00 Build 0)  -->
<svg version="1.1" id="Layer_1" xmlns="http://www.w3.org/2000/svg" xmlns:xlink="http://www.w3.org/1999/xlink" x="0px" y="0px"
	 width="31px" height="20px" viewBox="0 0 31 20" style="enable-background:new 0 0 31 20;" xml:space="preserve">
<style type="text/css">
	.st0{fill:#FAB446;}
	.st1{fill:#73AF00;}
	.st2{fill:#F5F5F5;}
	.st3{fill:#41479B;}
</style>
<g>
	<path class="st0" d="M31,6.7H0V0.5C0,0.2,0.2,0,0.5,0h29.9C30.8,0,31,0.2,31,0.5L31,6.7L31,6.7z"/>
	<path class="st1" d="M30.5,20H0.5C0.2,20,0,19.8,0,19.5v-6.1h31v6.1C31,19.8,30.8,20,30.5,20z"/>
	<rect y="6.7" class="st2" width="31" height="6.7"/>
	<g>
		<path class="st3" d="M15.5,12.8c-1.6,0-2.9-1.3-2.9-2.8s1.3-2.8,2.9-2.8s2.9,1.3,2.9,2.8S17.1,12.8,15.5,12.8z M15.5,7.7
			c-1.3,0-2.3,1-2.3,2.3s1,2.3,2.3,2.3s2.3-1,2.3-2.3S16.8,7.7,15.5,7.7z"/>
		<ellipse class="st3" cx="15.5" cy="10" rx="0.3" ry="0.3"/>
		<polygon class="st3" points="15.5,10 14.7,10.1 12.9,10 12.9,10 14.7,9.9 15.5,10 		"/>
		<polygon class="st3" points="15.5,10 16.3,10.1 18.1,10 18.1,10 16.3,9.9 15.5,10 		"/>
		<polygon class="st3" points="15.5,10 15.4,9.2 15.5,7.4 15.5,7.4 15.6,9.2 15.5,10 		"/>
		<polygon class="st3" points="15.5,10 15.4,10.8 15.5,12.6 15.5,12.6 15.6,10.8 15.5,10 		"/>
		<polygon class="st3" points="15.5,10 14.8,9.5 13.6,8.2 13.7,8.2 15,9.3 15.5,10 		"/>
		<polygon class="st3" points="15.5,10 16,10.7 17.3,11.8 17.4,11.8 16.2,10.5 15.5,10 		"/>
		<polygon class="st3" points="15.5,10 16,9.3 17.3,8.2 17.4,8.2 16.2,9.5 15.5,10 		"/>
		<polygon class="st3" points="15.5,10 14.8,10.5 13.6,11.8 13.7,11.8 15,10.7 15.5,10 		"/>
		<polygon class="st3" points="15.5,10 14.8,10.4 13.1,11 13.1,10.9 14.7,10.2 15.5,10 		"/>
		<polygon class="st3" points="15.5,10 16.3,9.8 17.9,9.1 17.9,9 16.2,9.6 15.5,10 		"/>
		<polygon class="st3" points="15.5,10 15.1,9.3 14.5,7.6 14.5,7.6 15.3,9.2 15.5,10 		"/>
		<polygon class="st3" points="15.5,10 15.7,10.8 16.5,12.4 16.5,12.4 15.9,10.7 15.5,10 		"/>
		<polygon class="st3" points="15.5,10 14.7,9.8 13.1,9.1 13.1,9 14.8,9.6 15.5,10 		"/>
		<polygon class="st3" points="15.5,10 16.2,10.4 17.9,11 17.9,10.9 16.3,10.2 15.5,10 		"/>
		<polygon class="st3" points="15.5,10 15.7,9.2 16.5,7.6 16.5,7.6 15.9,9.3 15.5,10 		"/>
		<polygon class="st3" points="15.5,10 15.1,10.7 14.5,12.4 14.5,12.4 15.3,10.8 15.5,10 		"/>
	</g>
	<ellipse class="st2" cx="15.5" cy="10" rx="0.4" ry="0.4"/>
	<ellipse class="st3" cx="15.5" cy="10" rx="0.3" ry="0.3"/>
</g>
</svg>
