<?xml version="1.0" encoding="utf-8"?>
<!-- Generator: Adobe Illustrator 21.0.0, SVG Export Plug-In . SVG Version: 6.00 Build 0)  -->
<svg version="1.1" id="Layer_1" xmlns="http://www.w3.org/2000/svg" xmlns:xlink="http://www.w3.org/1999/xlink" x="0px" y="0px"
	 width="22px" height="19px" viewBox="0 0 22 19" style="enable-background:new 0 0 22 19;" xml:space="preserve">
<style type="text/css">
	.st0{fill-rule:evenodd;clip-rule:evenodd;fill:#0E76A8;}
</style>
<g>
	<g>
		<path class="st0" d="M20.4,0H1.6C0.7,0,0,0.6,0,1.4v16.3C0,18.4,0.7,19,1.6,19h18.7c0.9,0,1.6-0.6,1.6-1.4V1.4
			C22,0.6,21.3,0,20.4,0z M7.1,15.9H3.8V7.3h3.2V15.9z M5.4,6.1L5.4,6.1c-1.1,0-1.8-0.7-1.8-1.5c0-0.8,0.7-1.5,1.8-1.5
			c1.1,0,1.8,0.6,1.8,1.5C7.3,5.5,6.6,6.1,5.4,6.1z M18.7,15.9h-3.2v-4.6c0-1.2-0.5-1.9-1.6-1.9c-0.9,0-1.4,0.5-1.7,1
			c-0.1,0.2-0.1,0.4-0.1,0.7v4.8H8.8c0,0,0-7.8,0-8.6h3.2v1.2c0.4-0.6,1.2-1.4,2.9-1.4c2.1,0,3.7,1.2,3.7,3.9V15.9z M12.1,8.5
			L12.1,8.5C12.1,8.5,12.1,8.5,12.1,8.5L12.1,8.5z"/>
	</g>
</g>
</svg>
