<?xml version="1.0" encoding="utf-8"?>
<!-- Generator: Adobe Illustrator 21.0.0, SVG Export Plug-In . SVG Version: 6.00 Build 0)  -->
<svg version="1.1" id="Layer_1" xmlns="http://www.w3.org/2000/svg" xmlns:xlink="http://www.w3.org/1999/xlink" x="0px" y="0px"
	 width="160px" height="34px" viewBox="0 0 160 34" style="enable-background:new 0 0 160 34;" xml:space="preserve">
<style type="text/css">
	.st0{fill:#231F20;}
	.st1{fill:url(#SVGID_1_);}
</style>
<g>
	<g>
		<path class="st0" d="M15.6,19c-1.4,0-2.5-0.5-3.5-1.4s-1.4-2.2-1.5-3.6c0-1.4,0.5-2.6,1.4-3.5c0.9-1,2.1-1.5,3.5-1.5l9.2,0l0,2.9
			l-9.2,0c-0.3,0-0.6,0.1-0.8,0.2s-0.5,0.3-0.7,0.5c-0.2,0.2-0.3,0.4-0.4,0.7c-0.1,0.3-0.2,0.5-0.2,0.8c0,0.6,0.2,1.1,0.6,1.5
			c0.4,0.4,0.9,0.6,1.5,0.6l4.2,0c1.4,0,2.5,0.5,3.5,1.4c1,1,1.5,2.2,1.5,3.5c0,1.4-0.5,2.6-1.4,3.6c-1,1-2.1,1.5-3.5,1.5l-9.1,0
			l0-2.9l9.1,0c0.3,0,0.6-0.1,0.8-0.2c0.3-0.1,0.5-0.3,0.7-0.5c0.2-0.2,0.3-0.4,0.4-0.7c0.1-0.3,0.2-0.5,0.2-0.8
			c0-0.6-0.2-1.1-0.6-1.5c-0.4-0.4-0.9-0.6-1.5-0.6L15.6,19z"/>
		
			<linearGradient id="SVGID_1_" gradientUnits="userSpaceOnUse" x1="33.9151" y1="26.8644" x2="22.0083" y2="36.6544" gradientTransform="matrix(1 0 0 -1 0 35.28)">
			<stop  offset="0" style="stop-color:#5E63FF"/>
			<stop  offset="1" style="stop-color:#6148DA"/>
		</linearGradient>
		<polygon class="st1" points="33.4,0 33.4,0 33.4,0 33.4,0 33.4,0 33.3,0 29.4,0 20.1,0 20.1,0 20.1,0 20.1,2.1 20.1,2.1 20.1,3.9 
			20.1,4.1 20.1,4.1 20.2,4.1 20.4,4.1 24.4,4.1 29.4,4.1 29.4,4.1 29.4,8.8 29.4,12.6 29.4,12.7 29.4,12.7 31.4,12.7 31.8,12.7 
			33.4,12.7 33.4,12.7 33.4,12.7 33.4,6.1 33.4,4.1 33.4,4.1 33.4,3.8 33.4,3.8 33.4,2.3 33.4,2.3 33.4,0 33.4,0 		"/>
		<polygon class="st0" points="29.4,14.9 29.4,29.9 4,29.9 4,4.1 14.9,4.1 14.9,4.1 17.9,4.1 17.9,0 17.7,0 17.7,0 0.1,0 0.1,0 0,0 
			0,29.9 0,32 0,34 33.4,34 33.4,34 33.4,29.9 33.4,14.9 		"/>
	</g>
	<g>
		<g>
			<path class="st0" d="M57.8,18.4c-1.1,0-2.1-0.4-2.9-1.2c-0.8-0.8-1.2-1.8-1.2-3c0-1.1,0.4-2.1,1.2-2.9c0.8-0.8,1.7-1.2,2.9-1.3
				l7.6,0l0,2.4l-7.6,0c-0.2,0-0.5,0-0.7,0.1c-0.2,0.1-0.4,0.2-0.6,0.4c-0.2,0.2-0.3,0.4-0.4,0.6C56,13.8,56,14,56,14.3
				c0,0.5,0.2,0.9,0.5,1.3c0.3,0.4,0.8,0.5,1.3,0.5l3.5,0c1.1,0,2.1,0.4,2.9,1.2c0.8,0.8,1.2,1.8,1.2,2.9c0,1.1-0.4,2.1-1.2,2.9
				c-0.8,0.8-1.7,1.2-2.9,1.2l-7.6,0l0-2.4l7.6,0c0.2,0,0.5,0,0.7-0.1c0.2-0.1,0.4-0.2,0.6-0.4c0.2-0.2,0.3-0.3,0.4-0.6
				c0.1-0.2,0.1-0.5,0.1-0.7c0-0.5-0.2-0.9-0.5-1.3c-0.3-0.4-0.7-0.5-1.2-0.5L57.8,18.4z"/>
			<path class="st0" d="M69.3,10.1L81,10l0,2.4l-4.7,0l0.1,11.9l-2.3,0L74,12.4l-4.7,0L69.3,10.1z"/>
			<path class="st0" d="M94.1,24.2l-2.7-4.7l-4,0l0,4.8l-2.3,0L85.1,10l7,0c1.3,0,2.4,0.5,3.3,1.4c0.9,0.9,1.4,2,1.4,3.3
				c0,1-0.3,1.9-0.8,2.7c-0.5,0.8-1.2,1.4-2,1.7l2.9,5.1L94.1,24.2z M92.1,12.3l-4.7,0l0,4.7l4.7,0c0.6,0,1.2-0.2,1.6-0.7
				c0.5-0.5,0.7-1,0.7-1.7c0-0.6-0.2-1.2-0.7-1.7C93.2,12.6,92.7,12.3,92.1,12.3z"/>
			<path class="st0" d="M111,21.7l-6.4,0l-1.2,2.4l-2.6,0l6.9-14.3l7.1,14.2l-2.6,0L111,21.7z M105.7,19.4l4.1,0l-2.1-4.2
				L105.7,19.4z"/>
			<path class="st0" d="M128.6,18.1c0,1.6-0.6,3.1-1.7,4.2c-1.2,1.2-2.5,1.7-4.1,1.8c-1.6,0-3-0.6-4.1-1.7c-1.1-1.2-1.7-2.6-1.7-4.2
				l0-8.3l2.3,0l0,8.3c0,1,0.3,1.8,1,2.5c0.7,0.7,1.5,1,2.5,1s1.8-0.4,2.5-1.1c0.7-0.7,1-1.5,1-2.5l0-8.3l2.3,0L128.6,18.1z"/>
			<path class="st0" d="M136.7,18c-1.1,0-2.1-0.4-2.9-1.2c-0.8-0.8-1.2-1.8-1.2-3c0-1.1,0.4-2.1,1.2-2.9c0.8-0.8,1.7-1.2,2.9-1.3
				l7.6,0l0,2.4l-7.6,0c-0.2,0-0.5,0-0.7,0.1c-0.2,0.1-0.4,0.2-0.6,0.4c-0.2,0.2-0.3,0.4-0.4,0.6c-0.1,0.2-0.1,0.4-0.1,0.7
				c0,0.5,0.2,0.9,0.5,1.3c0.3,0.4,0.8,0.5,1.3,0.5l3.5,0c1.1,0,2.1,0.4,2.9,1.2c0.8,0.8,1.2,1.8,1.2,2.9c0,1.1-0.4,2.1-1.2,2.9
				c-0.8,0.8-1.7,1.2-2.9,1.2l-7.6,0l0-2.4l7.6,0c0.2,0,0.5,0,0.7-0.1c0.2-0.1,0.4-0.2,0.6-0.4c0.2-0.2,0.3-0.3,0.4-0.6
				c0.1-0.2,0.1-0.5,0.1-0.7c0-0.5-0.2-0.9-0.5-1.3c-0.3-0.4-0.7-0.5-1.2-0.5L136.7,18z"/>
			<path class="st0" d="M152.4,18c-1.1,0-2.1-0.4-2.9-1.2c-0.8-0.8-1.2-1.8-1.2-3c0-1.1,0.4-2.1,1.2-2.9c0.8-0.8,1.7-1.2,2.9-1.3
				l7.6,0l0,2.4l-7.6,0c-0.2,0-0.5,0-0.7,0.1c-0.2,0.1-0.4,0.2-0.6,0.4c-0.2,0.2-0.3,0.4-0.4,0.6s-0.1,0.4-0.1,0.7
				c0,0.5,0.2,0.9,0.5,1.3c0.3,0.4,0.8,0.5,1.3,0.5l3.5,0c1.1,0,2.1,0.4,2.9,1.2c0.8,0.8,1.2,1.8,1.2,2.9c0,1.1-0.4,2.1-1.2,2.9
				c-0.8,0.8-1.7,1.2-2.9,1.2l-7.6,0l0-2.4l7.6,0c0.2,0,0.5,0,0.7-0.1c0.2-0.1,0.4-0.2,0.6-0.4c0.2-0.2,0.3-0.3,0.4-0.6
				c0.1-0.2,0.1-0.5,0.1-0.7c0-0.5-0.2-0.9-0.5-1.3c-0.3-0.4-0.7-0.5-1.2-0.5L152.4,18z"/>
		</g>
	</g>
</g>
</svg>
