<?xml version="1.0" encoding="utf-8"?>
<!-- Generator: Adobe Illustrator 21.0.0, SVG Export Plug-In . SVG Version: 6.00 Build 0)  -->
<svg version="1.1" id="Layer_1" xmlns="http://www.w3.org/2000/svg" xmlns:xlink="http://www.w3.org/1999/xlink" x="0px" y="0px"
	 width="18px" height="15px" viewBox="0 0 18 15" style="enable-background:new 0 0 18 15;" xml:space="preserve">
<style type="text/css">
	.st0{fill:#00ACED;}
</style>
<path class="st0" d="M16.2,4.3c0-0.2,0-0.3,0-0.5c0.7-0.5,1.3-1.2,1.8-1.9c-0.7,0.3-1.4,0.5-2.1,0.6c0.8-0.5,1.3-1.2,1.6-2.1
	c-0.7,0.4-1.5,0.7-2.3,0.9C14.5,0.5,13.5,0,12.5,0c-2,0-3.7,1.6-3.7,3.7c0,0.3,0,0.6,0.1,0.9C5.8,4.4,3.1,2.9,1.3,0.5
	C0.9,1.1,0.8,1.7,0.8,2.4c0,1.3,0.7,2.5,1.6,3.2c-0.6,0-1.2-0.2-1.7-0.5c0,0,0,0,0,0c0,1.9,1.3,3.4,3,3.8C3.4,9.1,3,9.1,2.7,9.1
	C2.5,9.1,2.2,9.1,2,9c0.5,1.5,1.8,2.6,3.4,2.7c-1.3,1-2.9,1.6-4.6,1.6c-0.3,0-0.6,0-0.9-0.1C1.6,14.4,3.6,15,5.7,15
	C12.5,15,16.2,9.3,16.2,4.3z"/>
</svg>
