<?xml version="1.0" encoding="utf-8"?>
<!-- Generator: Adobe Illustrator 21.0.0, SVG Export Plug-In . SVG Version: 6.00 Build 0)  -->
<svg version="1.1" id="Layer_1" xmlns="http://www.w3.org/2000/svg" xmlns:xlink="http://www.w3.org/1999/xlink" x="0px" y="0px"
	 width="31px" height="20px" viewBox="0 0 31 20" style="enable-background:new 0 0 31 20;" xml:space="preserve">
<style type="text/css">
	.st0{fill:#F0F0F0;}
	.st1{fill:#D80027;}
	.st2{fill:#0052B4;}
</style>
<g>
	<rect y="0" class="st0" width="31" height="20"/>
	<polygon class="st1" points="17.4,0 13.6,0 13.6,8.1 0,8.1 0,11.9 13.6,11.9 13.6,20 17.4,20 17.4,11.9 31,11.9 31,8.1 17.4,8.1 	
		"/>
	<g>
		<polygon class="st2" points="23.8,13.5 31,17.3 31,13.5 		"/>
		<polygon class="st2" points="18.9,13.5 31,20 31,18.2 22.3,13.5 		"/>
		<polygon class="st2" points="27.8,20 18.9,15.2 18.9,20 		"/>
	</g>
	<polygon class="st0" points="18.9,13.5 31,20 31,18.2 22.3,13.5 	"/>
	<polygon class="st1" points="18.9,13.5 31,20 31,18.2 22.3,13.5 	"/>
	<g>
		<polygon class="st2" points="5.5,13.5 0,16.4 0,13.5 		"/>
		<polygon class="st2" points="12.1,14.3 12.1,20 1.5,20 		"/>
	</g>
	<polygon class="st1" points="8.7,13.5 0,18.2 0,20 0,20 12.1,13.5 	"/>
	<g>
		<polygon class="st2" points="7.2,6.5 0,2.7 0,6.5 		"/>
		<polygon class="st2" points="12.1,6.5 0,0 0,1.8 8.7,6.5 		"/>
		<polygon class="st2" points="3.2,0 12.1,4.8 12.1,0 		"/>
	</g>
	<polygon class="st0" points="12.1,6.5 0,0 0,1.8 8.7,6.5 	"/>
	<polygon class="st1" points="12.1,6.5 0,0 0,1.8 8.7,6.5 	"/>
	<g>
		<polygon class="st2" points="25.5,6.5 31,3.6 31,6.5 		"/>
		<polygon class="st2" points="18.9,5.7 18.9,0 29.5,0 		"/>
	</g>
	<polygon class="st1" points="22.3,6.5 31,1.8 31,0 31,0 18.9,6.5 	"/>
</g>
</svg>
