<?xml version="1.0" encoding="utf-8"?>
<!-- Generator: Adobe Illustrator 21.0.0, SVG Export Plug-In . SVG Version: 6.00 Build 0)  -->
<svg version="1.1" id="Layer_1" xmlns="http://www.w3.org/2000/svg" xmlns:xlink="http://www.w3.org/1999/xlink" x="0px" y="0px"
	 width="31px" height="20px" viewBox="0 0 31 20" style="enable-background:new 0 0 31 20;" xml:space="preserve">
<style type="text/css">
	.st0{fill:#F5F5F5;}
	.st1{fill:#B22234;}
	.st2{fill:#3C3B6E;}
</style>
<g>
	<path class="st0" d="M30.5,20H0.5C0.2,20,0,19.8,0,19.5V0.5C0,0.2,0.2,0,0.5,0h29.9C30.8,0,31,0.2,31,0.5v18.9
		C31,19.8,30.8,20,30.5,20z"/>
	<g>
		<path class="st1" d="M31,1.5H0v-1C0,0.2,0.2,0,0.5,0h29.9C30.8,0,31,0.2,31,0.5L31,1.5L31,1.5z"/>
		<rect y="6.2" class="st1" width="31" height="1.5"/>
		<rect y="3.1" class="st1" width="31" height="1.5"/>
		<path class="st1" d="M31,10.8H0.5c-0.3,0-0.5-0.2-0.5-0.5v-1h31V10.8z"/>
		<rect y="15.4" class="st1" width="31" height="1.5"/>
		<path class="st1" d="M30.5,20H0.5C0.2,20,0,19.8,0,19.5v-1h31v1C31,19.8,30.8,20,30.5,20z"/>
		<rect y="12.3" class="st1" width="31" height="1.5"/>
	</g>
	<path class="st2" d="M13.9,0H0.5C0.2,0,0,0.2,0,0.5v9.7c0,0.3,0.2,0.5,0.5,0.5h13.4c0.3,0,0.5-0.2,0.5-0.5V0.5
		C14.4,0.2,14.2,0,13.9,0z"/>
	<g>
		<path class="st0" d="M1.5,1.2l0.1,0.3l0.4,0c0,0,0.1,0.1,0,0.1L1.7,1.9l0.1,0.4c0,0,0,0.1-0.1,0.1L1.5,2.1L1.1,2.3
			c0,0-0.1,0-0.1-0.1l0.1-0.4L0.9,1.6c0,0,0-0.1,0-0.1l0.4,0L1.5,1.2C1.4,1.2,1.5,1.2,1.5,1.2z"/>
		<path class="st0" d="M1.5,3l0.1,0.3l0.4,0c0,0,0.1,0.1,0,0.1L1.7,3.7L1.8,4c0,0,0,0.1-0.1,0.1L1.5,3.9L1.1,4.1c0,0-0.1,0-0.1-0.1
			l0.1-0.4L0.9,3.5c0,0,0-0.1,0-0.1l0.4,0L1.5,3C1.4,3,1.5,3,1.5,3z"/>
		<path class="st0" d="M1.5,4.9l0.1,0.3l0.4,0c0,0,0.1,0.1,0,0.1L1.7,5.5l0.1,0.4c0,0,0,0.1-0.1,0.1L1.5,5.7L1.1,5.9
			c0,0-0.1,0-0.1-0.1l0.1-0.4L0.9,5.3c0,0,0-0.1,0-0.1l0.4,0L1.5,4.9C1.4,4.8,1.5,4.8,1.5,4.9z"/>
		<path class="st0" d="M1.5,6.7L1.6,7L2,7c0,0,0.1,0.1,0,0.1L1.7,7.4l0.1,0.4c0,0,0,0.1-0.1,0.1L1.5,7.5L1.1,7.8c0,0-0.1,0-0.1-0.1
			l0.1-0.4L0.9,7.1c0,0,0-0.1,0-0.1l0.4,0L1.5,6.7C1.4,6.6,1.5,6.6,1.5,6.7z"/>
		<path class="st0" d="M1.5,8.5l0.1,0.3l0.4,0c0,0,0.1,0.1,0,0.1L1.7,9.2l0.1,0.4c0,0,0,0.1-0.1,0.1L1.5,9.4L1.1,9.6
			c0,0-0.1,0-0.1-0.1l0.1-0.4L0.9,9c0,0,0-0.1,0-0.1l0.4,0L1.5,8.5C1.4,8.5,1.5,8.5,1.5,8.5z"/>
		<path class="st0" d="M2.9,2.1l0.1,0.3l0.4,0c0,0,0.1,0.1,0,0.1L3.2,2.8l0.1,0.4c0,0,0,0.1-0.1,0.1L2.9,3L2.6,3.2
			c0,0-0.1,0-0.1-0.1l0.1-0.4L2.3,2.5c0,0,0-0.1,0-0.1l0.4,0L2.9,2.1C2.9,2.1,2.9,2.1,2.9,2.1z"/>
		<path class="st0" d="M2.9,3.9l0.1,0.3l0.4,0c0,0,0.1,0.1,0,0.1L3.2,4.6l0.1,0.4c0,0,0,0.1-0.1,0.1L2.9,4.8L2.6,5
			c0,0-0.1,0-0.1-0.1l0.1-0.4L2.3,4.4c0,0,0-0.1,0-0.1l0.4,0L2.9,3.9C2.9,3.9,2.9,3.9,2.9,3.9z"/>
		<path class="st0" d="M2.9,5.8l0.1,0.3l0.4,0c0,0,0.1,0.1,0,0.1L3.2,6.4l0.1,0.4c0,0,0,0.1-0.1,0.1L2.9,6.6L2.6,6.8
			c0,0-0.1,0-0.1-0.1l0.1-0.4L2.3,6.2c0,0,0-0.1,0-0.1l0.4,0L2.9,5.8C2.9,5.7,2.9,5.7,2.9,5.8z"/>
		<path class="st0" d="M2.9,7.6l0.1,0.3l0.4,0c0,0,0.1,0.1,0,0.1L3.2,8.2l0.1,0.4c0,0,0,0.1-0.1,0.1L2.9,8.4L2.6,8.7
			c0,0-0.1,0-0.1-0.1l0.1-0.4L2.3,8c0,0,0-0.1,0-0.1l0.4,0L2.9,7.6C2.9,7.5,2.9,7.5,2.9,7.6z"/>
		<path class="st0" d="M4.4,1.2l0.1,0.3l0.4,0c0,0,0.1,0.1,0,0.1L4.6,1.9l0.1,0.4c0,0,0,0.1-0.1,0.1L4.3,2.1L4,2.3
			c0,0-0.1,0-0.1-0.1l0.1-0.4L3.8,1.6c0,0,0-0.1,0-0.1l0.4,0L4.4,1.2C4.3,1.2,4.4,1.2,4.4,1.2z"/>
		<path class="st0" d="M4.4,3l0.1,0.3l0.4,0c0,0,0.1,0.1,0,0.1L4.6,3.7L4.7,4c0,0,0,0.1-0.1,0.1L4.3,3.9L4,4.1c0,0-0.1,0-0.1-0.1
			l0.1-0.4L3.8,3.5c0,0,0-0.1,0-0.1l0.4,0L4.4,3C4.3,3,4.4,3,4.4,3z"/>
		<path class="st0" d="M4.4,4.9l0.1,0.3l0.4,0c0,0,0.1,0.1,0,0.1L4.6,5.5l0.1,0.4c0,0,0,0.1-0.1,0.1L4.3,5.7L4,5.9
			c0,0-0.1,0-0.1-0.1l0.1-0.4L3.8,5.3c0,0,0-0.1,0-0.1l0.4,0L4.4,4.9C4.3,4.8,4.4,4.8,4.4,4.9z"/>
		<path class="st0" d="M4.4,6.7L4.5,7l0.4,0c0,0,0.1,0.1,0,0.1L4.6,7.4l0.1,0.4c0,0,0,0.1-0.1,0.1L4.3,7.5L4,7.8c0,0-0.1,0-0.1-0.1
			l0.1-0.4L3.8,7.1c0,0,0-0.1,0-0.1l0.4,0L4.4,6.7C4.3,6.6,4.4,6.6,4.4,6.7z"/>
		<path class="st0" d="M4.4,8.5l0.1,0.3l0.4,0c0,0,0.1,0.1,0,0.1L4.6,9.2l0.1,0.4c0,0,0,0.1-0.1,0.1L4.3,9.4L4,9.6
			c0,0-0.1,0-0.1-0.1l0.1-0.4L3.8,9c0,0,0-0.1,0-0.1l0.4,0L4.4,8.5C4.3,8.5,4.4,8.5,4.4,8.5z"/>
		<path class="st0" d="M5.8,2.1l0.1,0.3l0.4,0c0,0,0.1,0.1,0,0.1L6,2.8l0.1,0.4c0,0,0,0.1-0.1,0.1L5.8,3L5.5,3.2c0,0-0.1,0-0.1-0.1
			l0.1-0.4L5.2,2.5c0,0,0-0.1,0-0.1l0.4,0L5.8,2.1C5.7,2.1,5.8,2.1,5.8,2.1z"/>
		<path class="st0" d="M5.8,3.9l0.1,0.3l0.4,0c0,0,0.1,0.1,0,0.1L6,4.6l0.1,0.4c0,0,0,0.1-0.1,0.1L5.8,4.8L5.5,5c0,0-0.1,0-0.1-0.1
			l0.1-0.4L5.2,4.4c0,0,0-0.1,0-0.1l0.4,0L5.8,3.9C5.7,3.9,5.8,3.9,5.8,3.9z"/>
		<path class="st0" d="M5.8,5.8l0.1,0.3l0.4,0c0,0,0.1,0.1,0,0.1L6,6.4l0.1,0.4c0,0,0,0.1-0.1,0.1L5.8,6.6L5.5,6.8
			c0,0-0.1,0-0.1-0.1l0.1-0.4L5.2,6.2c0,0,0-0.1,0-0.1l0.4,0L5.8,5.8C5.7,5.7,5.8,5.7,5.8,5.8z"/>
		<path class="st0" d="M5.8,7.6l0.1,0.3l0.4,0c0,0,0.1,0.1,0,0.1L6,8.2l0.1,0.4c0,0,0,0.1-0.1,0.1L5.8,8.4L5.5,8.7
			c0,0-0.1,0-0.1-0.1l0.1-0.4L5.2,8c0,0,0-0.1,0-0.1l0.4,0L5.8,7.6C5.7,7.5,5.8,7.5,5.8,7.6z"/>
		<path class="st0" d="M7.3,1.2l0.1,0.3l0.4,0c0,0,0.1,0.1,0,0.1L7.5,1.9l0.1,0.4c0,0,0,0.1-0.1,0.1L7.2,2.1L6.9,2.3
			c0,0-0.1,0-0.1-0.1l0.1-0.4L6.6,1.6c0,0,0-0.1,0-0.1l0.4,0L7.3,1.2C7.2,1.2,7.2,1.2,7.3,1.2z"/>
		<path class="st0" d="M7.3,3l0.1,0.3l0.4,0c0,0,0.1,0.1,0,0.1L7.5,3.7L7.6,4c0,0,0,0.1-0.1,0.1L7.2,3.9L6.9,4.1c0,0-0.1,0-0.1-0.1
			l0.1-0.4L6.6,3.5c0,0,0-0.1,0-0.1l0.4,0L7.3,3C7.2,3,7.2,3,7.3,3z"/>
		<path class="st0" d="M7.3,4.9l0.1,0.3l0.4,0c0,0,0.1,0.1,0,0.1L7.5,5.5l0.1,0.4c0,0,0,0.1-0.1,0.1L7.2,5.7L6.9,5.9
			c0,0-0.1,0-0.1-0.1l0.1-0.4L6.6,5.3c0,0,0-0.1,0-0.1l0.4,0L7.3,4.9C7.2,4.8,7.2,4.8,7.3,4.9z"/>
		<path class="st0" d="M7.3,6.7L7.4,7l0.4,0c0,0,0.1,0.1,0,0.1L7.5,7.4l0.1,0.4c0,0,0,0.1-0.1,0.1L7.2,7.5L6.9,7.8
			c0,0-0.1,0-0.1-0.1l0.1-0.4L6.6,7.1c0,0,0-0.1,0-0.1L7,7L7.3,6.7C7.2,6.6,7.2,6.6,7.3,6.7z"/>
		<path class="st0" d="M7.3,8.5l0.1,0.3l0.4,0c0,0,0.1,0.1,0,0.1L7.5,9.2l0.1,0.4c0,0,0,0.1-0.1,0.1L7.2,9.4L6.9,9.6
			c0,0-0.1,0-0.1-0.1l0.1-0.4L6.6,9c0,0,0-0.1,0-0.1l0.4,0L7.3,8.5C7.2,8.5,7.2,8.5,7.3,8.5z"/>
		<path class="st0" d="M8.7,2.1l0.1,0.3l0.4,0c0,0,0.1,0.1,0,0.1L8.9,2.8L9,3.1c0,0,0,0.1-0.1,0.1L8.7,3L8.4,3.2c0,0-0.1,0-0.1-0.1
			l0.1-0.4L8.1,2.5c0,0,0-0.1,0-0.1l0.4,0L8.7,2.1C8.6,2.1,8.7,2.1,8.7,2.1z"/>
		<path class="st0" d="M8.7,3.9l0.1,0.3l0.4,0c0,0,0.1,0.1,0,0.1L8.9,4.6L9,4.9C9.1,5,9,5,9,5L8.7,4.8L8.4,5c0,0-0.1,0-0.1-0.1
			l0.1-0.4L8.1,4.4c0,0,0-0.1,0-0.1l0.4,0L8.7,3.9C8.6,3.9,8.7,3.9,8.7,3.9z"/>
		<path class="st0" d="M8.7,5.8l0.1,0.3l0.4,0c0,0,0.1,0.1,0,0.1L8.9,6.4L9,6.8c0,0,0,0.1-0.1,0.1L8.7,6.6L8.4,6.8
			c0,0-0.1,0-0.1-0.1l0.1-0.4L8.1,6.2c0,0,0-0.1,0-0.1l0.4,0L8.7,5.8C8.6,5.7,8.7,5.7,8.7,5.8z"/>
		<path class="st0" d="M8.7,7.6l0.1,0.3l0.4,0c0,0,0.1,0.1,0,0.1L8.9,8.2L9,8.6c0,0,0,0.1-0.1,0.1L8.7,8.4L8.4,8.7
			c0,0-0.1,0-0.1-0.1l0.1-0.4L8.1,8c0,0,0-0.1,0-0.1l0.4,0L8.7,7.6C8.6,7.5,8.7,7.5,8.7,7.6z"/>
		<path class="st0" d="M10.1,1.2l0.1,0.3l0.4,0c0,0,0.1,0.1,0,0.1l-0.3,0.2l0.1,0.4c0,0,0,0.1-0.1,0.1l-0.3-0.2L9.8,2.3
			c0,0-0.1,0-0.1-0.1l0.1-0.4L9.5,1.6c0,0,0-0.1,0-0.1l0.4,0L10.1,1.2C10.1,1.2,10.1,1.2,10.1,1.2z"/>
		<path class="st0" d="M10.1,3l0.1,0.3l0.4,0c0,0,0.1,0.1,0,0.1l-0.3,0.2L10.5,4c0,0,0,0.1-0.1,0.1l-0.3-0.2L9.8,4.1
			c0,0-0.1,0-0.1-0.1l0.1-0.4L9.5,3.5c0,0,0-0.1,0-0.1l0.4,0L10.1,3C10.1,3,10.1,3,10.1,3z"/>
		<path class="st0" d="M10.1,4.9l0.1,0.3l0.4,0c0,0,0.1,0.1,0,0.1l-0.3,0.2l0.1,0.4c0,0,0,0.1-0.1,0.1l-0.3-0.2L9.8,5.9
			c0,0-0.1,0-0.1-0.1l0.1-0.4L9.5,5.3c0,0,0-0.1,0-0.1l0.4,0L10.1,4.9C10.1,4.8,10.1,4.8,10.1,4.9z"/>
		<path class="st0" d="M10.1,6.7L10.3,7l0.4,0c0,0,0.1,0.1,0,0.1l-0.3,0.2l0.1,0.4c0,0,0,0.1-0.1,0.1l-0.3-0.2L9.8,7.8
			c0,0-0.1,0-0.1-0.1l0.1-0.4L9.5,7.1c0,0,0-0.1,0-0.1l0.4,0L10.1,6.7C10.1,6.6,10.1,6.6,10.1,6.7z"/>
		<path class="st0" d="M10.1,8.5l0.1,0.3l0.4,0c0,0,0.1,0.1,0,0.1l-0.3,0.2l0.1,0.4c0,0,0,0.1-0.1,0.1l-0.3-0.2L9.8,9.6
			c0,0-0.1,0-0.1-0.1l0.1-0.4L9.5,9c0,0,0-0.1,0-0.1l0.4,0L10.1,8.5C10.1,8.5,10.1,8.5,10.1,8.5z"/>
		<path class="st0" d="M11.6,2.1l0.1,0.3l0.4,0c0,0,0.1,0.1,0,0.1l-0.3,0.2l0.1,0.4c0,0,0,0.1-0.1,0.1L11.5,3l-0.3,0.2
			c0,0-0.1,0-0.1-0.1l0.1-0.4L11,2.5c0,0,0-0.1,0-0.1l0.4,0L11.6,2.1C11.5,2.1,11.6,2.1,11.6,2.1z"/>
		<path class="st0" d="M11.6,3.9l0.1,0.3l0.4,0c0,0,0.1,0.1,0,0.1l-0.3,0.2l0.1,0.4c0,0,0,0.1-0.1,0.1l-0.3-0.2L11.2,5
			c0,0-0.1,0-0.1-0.1l0.1-0.4L11,4.4c0,0,0-0.1,0-0.1l0.4,0L11.6,3.9C11.5,3.9,11.6,3.9,11.6,3.9z"/>
		<path class="st0" d="M11.6,5.8l0.1,0.3l0.4,0c0,0,0.1,0.1,0,0.1l-0.3,0.2l0.1,0.4c0,0,0,0.1-0.1,0.1l-0.3-0.2l-0.3,0.2
			c0,0-0.1,0-0.1-0.1l0.1-0.4L11,6.2c0,0,0-0.1,0-0.1l0.4,0L11.6,5.8C11.5,5.7,11.6,5.7,11.6,5.8z"/>
		<path class="st0" d="M11.6,7.6l0.1,0.3l0.4,0c0,0,0.1,0.1,0,0.1l-0.3,0.2l0.1,0.4c0,0,0,0.1-0.1,0.1l-0.3-0.2l-0.3,0.2
			c0,0-0.1,0-0.1-0.1l0.1-0.4L11,8c0,0,0-0.1,0-0.1l0.4,0L11.6,7.6C11.5,7.5,11.6,7.5,11.6,7.6z"/>
		<path class="st0" d="M13,1.2l0.1,0.3l0.4,0c0,0,0.1,0.1,0,0.1l-0.3,0.2l0.1,0.4c0,0,0,0.1-0.1,0.1L13,2.1l-0.3,0.2
			c0,0-0.1,0-0.1-0.1l0.1-0.4l-0.3-0.2c0,0,0-0.1,0-0.1l0.4,0L13,1.2C12.9,1.2,13,1.2,13,1.2z"/>
		<path class="st0" d="M13,3l0.1,0.3l0.4,0c0,0,0.1,0.1,0,0.1l-0.3,0.2L13.4,4c0,0,0,0.1-0.1,0.1L13,3.9l-0.3,0.2c0,0-0.1,0-0.1-0.1
			l0.1-0.4l-0.3-0.2c0,0,0-0.1,0-0.1l0.4,0L13,3C12.9,3,13,3,13,3z"/>
		<path class="st0" d="M13,4.9l0.1,0.3l0.4,0c0,0,0.1,0.1,0,0.1l-0.3,0.2l0.1,0.4c0,0,0,0.1-0.1,0.1L13,5.7l-0.3,0.2
			c0,0-0.1,0-0.1-0.1l0.1-0.4l-0.3-0.2c0,0,0-0.1,0-0.1l0.4,0L13,4.9C12.9,4.8,13,4.8,13,4.9z"/>
		<path class="st0" d="M13,6.7L13.1,7l0.4,0c0,0,0.1,0.1,0,0.1l-0.3,0.2l0.1,0.4c0,0,0,0.1-0.1,0.1L13,7.5l-0.3,0.2
			c0,0-0.1,0-0.1-0.1l0.1-0.4l-0.3-0.2c0,0,0-0.1,0-0.1l0.4,0L13,6.7C12.9,6.6,13,6.6,13,6.7z"/>
		<path class="st0" d="M13,8.5l0.1,0.3l0.4,0c0,0,0.1,0.1,0,0.1l-0.3,0.2l0.1,0.4c0,0,0,0.1-0.1,0.1L13,9.4l-0.3,0.2
			c0,0-0.1,0-0.1-0.1l0.1-0.4L12.4,9c0,0,0-0.1,0-0.1l0.4,0L13,8.5C12.9,8.5,13,8.5,13,8.5z"/>
	</g>
</g>
</svg>
