<?xml version="1.0" encoding="utf-8"?>
<!-- Generator: Adobe Illustrator 21.0.0, SVG Export Plug-In . SVG Version: 6.00 Build 0)  -->
<svg version="1.1" id="Layer_1" xmlns="http://www.w3.org/2000/svg" xmlns:xlink="http://www.w3.org/1999/xlink" x="0px" y="0px"
	 width="92px" height="92px" viewBox="0 0 92 92" style="enable-background:new 0 0 92 92;" xml:space="preserve">
<style type="text/css">
	.st0{fill:#FFFFFF;stroke:url(#SVGID_1_);stroke-width:2;stroke-miterlimit:10;}
	.st1{fill:#6051E7;}
</style>
<g>
	
		<linearGradient id="SVGID_1_" gradientUnits="userSpaceOnUse" x1="0" y1="47.28" x2="92" y2="47.28" gradientTransform="matrix(1 0 0 -1 0 93.28)">
		<stop  offset="0" style="stop-color:#6148DA"/>
		<stop  offset="1" style="stop-color:#6051E7"/>
	</linearGradient>
	<circle class="st0" cx="46" cy="46" r="45"/>
	<g>
		<path class="st1" d="M43.3,60.5V50.3c0-0.4-0.3-0.7-0.7-0.7h-4.3c-0.4,0-0.7,0.3-0.7,0.7s0.3,0.7,0.7,0.7h3.5v9.5
			c-1.3,0.3-2.1,1.4-2.1,2.7c0,1.6,1.3,2.8,2.8,2.8s2.8-1.3,2.8-2.8C45.4,61.9,44.6,60.8,43.3,60.5z M44,63.2c0,0.8-0.6,1.4-1.4,1.4
			s-1.4-0.6-1.4-1.4s0.6-1.4,1.4-1.4S44,62.5,44,63.2z"/>
		<path class="st1" d="M50.1,60.5V50.3c0-0.4-0.3-0.7-0.7-0.7h-4.3c-0.4,0-0.7,0.3-0.7,0.7s0.3,0.7,0.7,0.7h3.5v9.5
			c-1.3,0.3-2.1,1.4-2.1,2.7c0,1.6,1.3,2.8,2.8,2.8s2.8-1.3,2.8-2.8C52.2,61.9,51.4,60.8,50.1,60.5z M50.8,63.2
			c0,0.8-0.6,1.4-1.4,1.4S48,64,48,63.2s0.6-1.4,1.4-1.4S50.8,62.5,50.8,63.2z"/>
		<path class="st1" d="M60.9,56.1c-1.3,0-2.4,0.9-2.7,2.1H57v-8c0-0.4-0.3-0.7-0.7-0.7H52c-0.4,0-0.7,0.3-0.7,0.7s0.3,0.7,0.7,0.7
			h3.5v8c0,0.4,0.3,0.7,0.7,0.7h1.9c0.3,1.3,1.4,2.1,2.7,2.1c1.6,0,2.8-1.3,2.8-2.8S62.5,56.1,60.9,56.1z M62.3,59
			c0,0.8-0.6,1.4-1.4,1.4s-1.4-0.6-1.4-1.4s0.6-1.4,1.4-1.4S62.3,58.2,62.3,59z"/>
		<path class="st1" d="M64.5,39.7c-0.8-1.1-2-1.9-3.3-2.3c-0.2-3-1.4-5.8-3.6-8c-2.3-2.3-5.3-3.5-8.6-3.5c-4.2,0-8.1,2.2-10.3,5.8
			c-0.5-0.2-1.1-0.2-1.6-0.2c-2.6,0-4.9,1.8-5.5,4.4c-3.4,0.9-5.7,4-5.7,7.5c0,4.3,3.5,7.7,7.7,7.7H35v7.2h-1.2
			c-0.3-1.3-1.4-2.1-2.7-2.1c-1.6,0-2.8,1.3-2.8,2.8s1.3,2.8,2.8,2.8c1.3,0,2.4-0.9,2.7-2.1h1.9c0.4,0,0.7-0.3,0.7-0.7v-8.7
			c0-0.4-0.3-0.7-0.7-0.7h-2.1c-3.5,0-6.3-2.8-6.3-6.3c0-3,2.1-5.6,5.1-6.2c0.3-0.1,0.5-0.3,0.6-0.6c0.3-2.1,2-3.6,4.1-3.6
			c0.6,0,1.1,0.1,1.7,0.3c0.3,0.1,0.7,0,0.9-0.3c1.9-3.4,5.5-5.5,9.4-5.5c5.9,0,10.7,4.8,10.7,10.6c0,0.3,0.2,0.6,0.6,0.7
			c2.5,0.6,4.3,2.8,4.3,5.4c0,3.1-2.5,5.5-5.5,5.5h-0.3c-0.4,0-0.7,0.3-0.7,0.7s0.3,0.7,0.7,0.7h0.3c3.8,0,7-3.1,7-7
			C66.1,42.5,65.5,40.9,64.5,39.7z M32.5,59c0,0.8-0.6,1.4-1.4,1.4s-1.4-0.6-1.4-1.4s0.6-1.4,1.4-1.4S32.5,58.2,32.5,59z"/>
		<path class="st1" d="M55.9,35.4c0.3,0.8,0.5,1.7,0.5,2.6c0,0.4,0.3,0.7,0.7,0.7l0,0c0.2,0,0.4-0.1,0.5-0.2
			c0.1-0.1,0.2-0.3,0.2-0.5c0-1.1-0.2-2.1-0.6-3.1c-0.1-0.2-0.2-0.3-0.4-0.4c-0.2-0.1-0.4-0.1-0.5,0c-0.2,0.1-0.3,0.2-0.4,0.4
			C55.8,35.1,55.8,35.3,55.9,35.4z"/>
		<path class="st1" d="M49.1,29.3c-0.4,0-0.7,0.3-0.7,0.7s0.3,0.7,0.7,0.7c2.2,0,4.2,1,5.6,2.7c0.1,0.2,0.3,0.3,0.6,0.3
			c0.2,0,0.3-0.1,0.5-0.2c0.3-0.3,0.3-0.7,0.1-1C54.2,30.5,51.7,29.3,49.1,29.3z"/>
	</g>
</g>
</svg>
