<?xml version="1.0" encoding="utf-8"?>
<!-- Generator: Adobe Illustrator 21.0.0, SVG Export Plug-In . SVG Version: 6.00 Build 0)  -->
<svg version="1.1" id="Layer_1" xmlns="http://www.w3.org/2000/svg" xmlns:xlink="http://www.w3.org/1999/xlink" x="0px" y="0px"
	 width="92px" height="92px" viewBox="0 0 92 92" style="enable-background:new 0 0 92 92;" xml:space="preserve">
<style type="text/css">
	.st0{fill:#FFFFFF;stroke:url(#SVGID_1_);stroke-width:2;stroke-miterlimit:10;}
	.st1{fill:#6051E7;}
</style>
<linearGradient id="SVGID_1_" gradientUnits="userSpaceOnUse" x1="0" y1="47.28" x2="92" y2="47.28" gradientTransform="matrix(1 0 0 -1 0 93.28)">
	<stop  offset="0" style="stop-color:#6148DA"/>
	<stop  offset="1" style="stop-color:#6051E7"/>
</linearGradient>
<circle class="st0" cx="46" cy="46" r="45"/>
<g>
	<path class="st1" d="M56,25.5H36c-1.7,0-3,1.4-3,3.1v34.8c0,1.7,1.4,3.1,3,3.1H56c1.7,0,3-1.4,3-3.1V28.6
		C59,26.9,57.6,25.5,56,25.5z M36,27.2H56c0.8,0,1.4,0.6,1.4,1.4v3H34.7v-3C34.7,27.8,35.3,27.2,36,27.2z M53.8,58.2H38.2v-2.4
		c0-2.6,1.7-4.9,4.2-5.6l2.8,6.8c0.3,0.7,1.3,0.7,1.6,0l2.8-7.1c2.4,0.9,4.2,3.2,4.2,5.9L53.8,58.2L53.8,58.2z M49.2,48.1
		c-0.4-0.1-0.8,0.2-0.9,0.5L46,54.4l-2.3-5.6c-0.2-0.3-0.5-0.6-0.9-0.5c-3.6,0.8-6.2,3.8-6.2,7.5v2.4h-1.9V33.3h22.6v24.9h-1.9v-2.4
		C55.5,52.1,52.8,48.8,49.2,48.1z M56,64.8H36c-0.8,0-1.4-0.6-1.4-1.4v-3.6h22.6v3.6C57.3,64.2,56.7,64.8,56,64.8z"/>
	<path class="st1" d="M46.3,61.1h-0.6c-0.5,0-0.8,0.3-0.8,0.9c0,0.5,0.3,0.9,0.8,0.9h0.6c0.5,0,0.8-0.3,0.8-0.9
		C47.2,61.5,46.8,61.1,46.3,61.1z"/>
	<path class="st1" d="M44.4,30.2h3.1c0.5,0,0.8-0.3,0.8-0.9c0-0.5-0.3-0.9-0.8-0.9h-3.1c-0.5,0-0.8,0.3-0.8,0.9
		C43.6,29.9,44,30.2,44.4,30.2z"/>
	<path class="st1" d="M44.8,36.4c-2.1,0.5-3.5,2.4-3.5,4.5c0,2.2,1.8,6.6,4.6,6.6s4.6-4.3,4.6-6.6C50.5,38,47.7,35.8,44.8,36.4z
		 M45.9,45.7c-1.4,0-2.9-2.9-2.9-4.9c0-1.4,0.9-2.6,2.2-2.8c1.9-0.4,3.5,0.9,3.5,2.8C48.8,42.8,47.2,45.7,45.9,45.7z"/>
	<path class="st1" d="M51.6,53.9c0-0.5-0.3-0.9-0.8-0.9s-0.8,0.3-0.8,0.9v0.6h-0.6c-0.5,0-0.8,0.3-0.8,0.9c0,0.5,0.3,0.9,0.8,0.9
		h0.6v0.6c0,0.5,0.3,0.9,0.8,0.9s0.8-0.3,0.8-0.9v-0.6h0.6c0.5,0,0.8-0.3,0.8-0.9c0-0.5-0.3-0.9-0.8-0.9h-0.6L51.6,53.9L51.6,53.9z"
		/>
</g>
</svg>
